<?xml version="1.0" encoding="utf-8"?>
<!-- Generator: Adobe Illustrator 24.1.3, SVG Export Plug-In . SVG Version: 6.00 Build 0)  -->
<svg version="1.1" id="Layer_1" xmlns="http://www.w3.org/2000/svg" xmlns:xlink="http://www.w3.org/1999/xlink" x="0px" y="0px"
	 viewBox="0 0 1093 132.628" style="enable-background:new 0 0 1093 132.628;" xml:space="preserve">
<style type="text/css">
	.st0{fill-rule:evenodd;clip-rule:evenodd;fill:#96694C;}
	.st1{fill:#96694C;}
</style>
<g>
	<g>
		<path class="st0" d="M138.925,46.248c-1.51,2.716-3.377,5.571-5.541,8.485c-4.699,6.297-8.711,10.285-11.955,11.868
			c-2.343,1.245-5.154,1.874-8.347,1.874h-4.854V38.138h0.898c1.505,0,2.761,0.233,3.73,0.691c1.484,0.709,3.028,1.912,4.583,3.571
			c1.917,2.113,3.439,4.546,4.523,7.232l0.235,0.581h3.469V21.684h-3.444l-0.246,0.549c-3.375,7.57-7.589,11.407-12.53,11.407
			l-1.217-0.004V6.721h6.767c1.566,0,2.912,0.134,4.049,0.405c2.197,0.403,4.82,2.21,7.785,5.358
			c4.477,4.927,8.324,10.38,11.433,16.21l0.263,0.491h3.226V2.222H77.763v4.499h3.407c1.712,0,3.026,0.112,3.909,0.334
			c1.794,0.437,2.804,1.613,3.174,3.698c0.224,1.314,0.351,3.448,0.379,6.332v14.603c0,1.854-1.202,2.739-1.486,2.968
			c-0.284,0.228-3.672,2.8-3.672,2.8s3.39,2.571,3.672,2.802c0.284,0.228,1.486,1.118,1.486,2.968v14.883
			c0,2.009-0.043,3.495-0.127,4.423c-0.183,2.106-0.661,3.603-1.406,4.432c-0.935,1.001-2.828,1.508-5.623,1.51l-3.713-0.002v4.501
			h64.685V45.77h-3.258L138.925,46.248z M99.116,38.988c-0.017,3.062-0.034,6.23-0.106,9.161c-0.037,2.126-0.114,4.113-0.19,6.036
			c-0.039,0.995-0.078,1.945-0.106,2.845c-0.222,5.147-0.521,8.642-0.523,8.677c-0.011,0.125-0.114,0.22-0.239,0.22
			c-0.125,0-0.228-0.095-0.239-0.22c-0.002-0.034-0.301-3.53-0.523-8.672c-0.028-0.915-0.067-1.884-0.106-2.897
			c-0.075-1.908-0.153-3.883-0.19-5.991c-0.073-2.965-0.09-6.174-0.106-9.275l-0.004-0.907l0.004-0.81
			c0.017-3.136,0.034-6.377,0.108-9.377c0.039-2.119,0.116-4.103,0.192-6.021c0.039-0.999,0.075-1.955,0.103-2.86
			c0.222-5.147,0.519-8.642,0.521-8.677c0.011-0.125,0.114-0.22,0.239-0.22c0.125,0,0.228,0.097,0.239,0.22
			c0.002,0.034,0.299,3.53,0.521,8.672v0.002c0.028,0.905,0.067,1.861,0.103,2.86c0.075,1.919,0.153,3.902,0.192,6.021
			c0.073,3.03,0.09,6.31,0.11,9.482l0.004,0.7L99.116,38.988z"/>
		<path class="st0" d="M56.96,37.479c5.446-3.683,8.205-9.041,8.205-15.947c0-4.199-1.012-7.962-3.013-11.19
			c-2.173-3.422-5.522-5.836-9.958-7.18c-2.134-0.631-5.136-0.937-9.176-0.937H0v4.499h3.407c1.714,0,3.026,0.112,3.911,0.334
			c1.794,0.437,2.802,1.613,3.174,3.698c0.222,1.303,0.349,3.435,0.377,6.332V31.69c0,1.854-1.202,2.739-1.486,2.968
			c-0.284,0.228-3.674,2.8-3.674,2.8s3.39,2.571,3.674,2.802c0.284,0.228,1.486,1.118,1.486,2.968V58.11
			c0,2.007-0.043,3.495-0.127,4.426c-0.183,2.106-0.661,3.601-1.404,4.43c-0.937,1.001-2.83,1.51-5.625,1.51H0v4.501h44.017
			c4.135,0,7.316-0.228,9.454-0.681c3.948-0.844,7.113-2.8,9.411-5.806c2.438-3.157,3.672-7.148,3.672-11.86
			C66.556,46.707,63.33,40.944,56.96,37.479z M54.496,17.397c-0.276-1.176-0.717-2.365-1.307-3.534
			c-0.502-0.952-1.025-1.77-1.471-2.3l-0.687-0.853c-0.071-0.088-0.071-0.213,0-0.302c0.071-0.09,0.192-0.116,0.295-0.067
			c0.015,0.009,0.385,0.192,0.967,0.607c0.487,0.362,1.383,1.032,2.19,2.07c0.618,0.775,1.475,2.059,2.046,3.786
			c0.618,1.736,0.771,3.603,0.788,4.861c-0.028,1.824-0.295,3.463-0.79,4.871c-0.571,1.723-1.428,3.009-2.046,3.784
			c-0.743,0.952-1.518,1.566-2.186,2.067c-0.586,0.418-0.952,0.601-0.969,0.609c-0.034,0.015-0.069,0.024-0.106,0.024
			c-0.071,0-0.14-0.032-0.187-0.09c-0.069-0.088-0.069-0.213,0-0.302l0.687-0.851c0.448-0.536,0.984-1.374,1.473-2.304
			c1.156-2.162,1.824-5.08,1.787-7.805C54.989,20.231,54.83,18.833,54.496,17.397z M30.467,6.721h2.029
			c1.766,0,3.332,0.097,4.66,0.293c1.604,0.215,2.978,0.913,4.208,2.143c2.272,2.25,3.422,6.252,3.422,11.894
			c0,7.288-1.977,11.83-5.873,13.505c-1.271,0.547-3.428,0.825-6.416,0.825h-2.029V6.721H30.467z M21.323,38.773
			c-0.015,3.136-0.032,6.379-0.106,9.377c-0.037,2.106-0.114,4.081-0.19,5.989c-0.041,1.012-0.078,1.979-0.106,2.892
			c-0.222,5.147-0.521,8.642-0.523,8.677c-0.011,0.125-0.114,0.22-0.239,0.22s-0.228-0.095-0.239-0.22
			c-0.002-0.034-0.302-3.53-0.523-8.672c-0.028-0.907-0.067-1.863-0.106-2.862c-0.075-1.919-0.155-3.902-0.192-6.024
			c-0.073-2.996-0.09-6.239-0.106-9.375l-0.004-0.808l0.004-0.81c0.017-3.136,0.034-6.377,0.108-9.377
			c0.039-2.119,0.116-4.103,0.192-6.021c0.039-0.999,0.075-1.955,0.103-2.86c0.222-5.147,0.519-8.642,0.521-8.677
			c0.011-0.125,0.114-0.22,0.239-0.22s0.228,0.095,0.239,0.22c0.002,0.034,0.299,3.528,0.521,8.672v0.002
			c0.028,0.902,0.067,1.859,0.106,2.858c0.075,1.919,0.153,3.904,0.19,6.026c0.073,2.998,0.09,6.239,0.108,9.375l0.004,0.808
			L21.323,38.773z M38.838,67.928c-0.704,0.25-2.378,0.547-6.342,0.547h-2.029V39.88h2.029c1.882,0,3.431,0.058,4.613,0.177
			c1.617,0.144,2.998,0.721,4.212,1.759c2.5,2.169,3.769,6.338,3.769,12.394C45.089,61.896,42.99,66.513,38.838,67.928z
			 M56.525,59.443c-0.571,1.723-1.428,3.009-2.046,3.784c-0.743,0.952-1.518,1.566-2.186,2.067c-0.586,0.42-0.954,0.601-0.969,0.609
			c-0.034,0.017-0.069,0.024-0.106,0.024c-0.071,0-0.14-0.032-0.187-0.09c-0.069-0.088-0.069-0.213,0-0.301l0.687-0.851
			c0.448-0.532,0.984-1.37,1.473-2.304c1.156-2.162,1.824-5.08,1.787-7.805c0.011-1.445-0.149-2.843-0.482-4.279
			c-0.276-1.176-0.717-2.365-1.307-3.534c-0.504-0.954-1.025-1.772-1.471-2.3l-0.687-0.853c-0.071-0.088-0.071-0.213,0-0.301
			c0.071-0.09,0.19-0.112,0.293-0.067c0.015,0.006,0.385,0.192,0.967,0.607c0.674,0.504,1.449,1.116,2.19,2.07
			c0.618,0.775,1.475,2.061,2.046,3.788c0.618,1.736,0.771,3.601,0.788,4.861C57.289,56.396,57.022,58.032,56.525,59.443z"/>
		<path class="st0" d="M241.788,34.593h3.508l0.185-0.685c2.871-10.527,7.298-18.9,13.141-24.865
			c1.579-1.525,3.392-2.285,5.528-2.322h0.157c-0.006,6.846-0.013,16.346-0.026,24.969c0,1.854-1.202,2.739-1.486,2.968
			c-0.284,0.228-3.672,2.8-3.672,2.8s3.39,2.571,3.672,2.802c0.284,0.228,1.486,1.118,1.486,2.968
			c-0.022,10.249-0.069,18.805-0.099,19.309c-0.183,2.106-0.661,3.603-1.406,4.432c-0.935,1.001-2.826,1.508-5.623,1.51
			l-3.713-0.002v4.501h41.338v-4.501h-3.407c-1.684,0-3.002-0.112-3.911-0.334c-1.792-0.435-2.8-1.613-3.177-3.717
			c-0.25-1.299-0.375-3.422-0.375-6.312V43.229c0-1.852,1.202-2.739,1.486-2.968c0.284-0.228,3.672-2.802,3.672-2.802
			s-3.39-2.571-3.672-2.8c-0.284-0.228-1.486-1.116-1.486-2.968V6.721h0.289c2.156,0,4.053,0.907,5.797,2.767
			c3.568,3.836,6.545,8.261,8.845,13.169c2.158,4.432,3.534,8.192,4.096,11.179l0.142,0.758h3.571V2.222h-64.859v32.37H241.788z
			 M273.054,37.156c0.017-3.136,0.034-6.377,0.108-9.377c0.039-2.119,0.116-4.103,0.192-6.021c0.039-0.999,0.075-1.955,0.103-2.86
			c0.222-5.147,0.519-8.642,0.521-8.677c0.011-0.123,0.114-0.22,0.239-0.22c0.125,0,0.228,0.095,0.239,0.22
			c0.002,0.034,0.299,3.53,0.521,8.672v0.002c0.028,0.902,0.067,1.859,0.106,2.858c0.075,1.919,0.153,3.904,0.19,6.026
			c0.073,2.998,0.09,6.239,0.108,9.375l0.004,0.808l-0.004,0.909c-0.015,3.101-0.032,6.31-0.106,9.278
			c-0.037,2.106-0.114,4.081-0.189,5.989c-0.041,1.012-0.078,1.979-0.106,2.892c-0.222,5.147-0.521,8.642-0.523,8.677
			c-0.011,0.125-0.114,0.22-0.239,0.22c-0.125,0-0.228-0.095-0.239-0.22c-0.002-0.034-0.301-3.53-0.523-8.672
			c-0.028-0.902-0.067-1.852-0.106-2.847c-0.075-1.923-0.153-3.913-0.19-6.039c-0.071-2.929-0.088-6.097-0.106-9.159l-0.006-1.023
			L273.054,37.156z"/>
		<path class="st0" d="M202.813,5.793l0.153,0.928h0.93c2.1,0,3.982,0.769,5.729,2.328c2.782,2.651,4.206,7.74,4.234,15.125v13.815
			l-27.88-35.767H155.9v4.499h1.32c0.7,0,1.43,0.093,2.182,0.276c0.728,0.168,1.671,0.715,2.789,1.613
			c1.813,1.503,3.062,2.72,3.739,3.65l1.533,1.908v17.519c0,1.852-1.202,2.739-1.486,2.968c-0.284,0.228-3.674,2.8-3.674,2.8
			s3.39,2.571,3.674,2.802c0.284,0.228,1.486,1.118,1.486,2.968v7.792c-0.028,6.396-1.376,11.25-3.991,14.412
			c-1.749,2.011-4.083,3.006-7.137,3.043l-0.917,0.011v4.49h27.337v-3.573l-0.157-0.928h-0.928c-2.093,0-3.969-0.784-5.729-2.393
			c-2.778-2.608-4.202-7.678-4.23-15.06v-31.75l43.224,55.931h3.168v-31.97c0-1.852,1.202-2.739,1.486-2.968
			c0.284-0.228,3.674-2.8,3.674-2.8s-3.39-2.571-3.674-2.802c-0.284-0.228-1.486-1.116-1.486-2.968V24.18
			c0.028-6.396,1.374-11.25,3.988-14.412c1.747-2.009,4.081-3.006,7.137-3.045l0.917-0.011v-4.49h-27.333V5.793z M210.422,51.195
			c-0.045,0.037-0.097,0.054-0.151,0.054c-0.062,0-0.125-0.024-0.172-0.073c-0.022-0.022-2.272-2.324-5.416-5.843
			c-0.551-0.633-1.137-1.294-1.753-1.986c-1.163-1.312-2.367-2.668-3.618-4.146c-1.775-2.065-3.65-4.337-5.464-6.534l-0.937-1.146
			c-1.822-2.259-3.704-4.591-5.403-6.784c-1.195-1.523-2.283-2.972-3.336-4.372c-0.556-0.741-1.088-1.447-1.594-2.113
			c-2.817-3.79-4.624-6.452-4.641-6.478c-0.069-0.103-0.05-0.241,0.047-0.321c0.097-0.078,0.237-0.071,0.323,0.019
			c0.022,0.022,2.268,2.326,5.412,5.843c0.549,0.629,1.133,1.288,1.742,1.975c1.165,1.316,2.371,2.677,3.629,4.156
			c1.807,2.104,3.717,4.415,5.563,6.652l0.96,1.178c1.779,2.205,3.62,4.486,5.281,6.629c1.2,1.525,2.291,2.981,3.345,4.385
			c0.551,0.737,1.081,1.441,1.585,2.1c2.819,3.79,4.624,6.452,4.641,6.478C210.538,50.977,210.519,51.115,210.422,51.195z"/>
		<path class="st0" d="M379.708,46.244c-1.566,2.793-3.416,5.651-5.498,8.487c-4.699,6.258-8.741,10.247-12.041,11.871
			c-2.343,1.245-5.138,1.874-8.304,1.874h-4.854V17.086c0-1.955,0.043-3.424,0.129-4.376c0.159-2.104,0.635-3.618,1.406-4.479
			c0.935-1.001,2.832-1.51,5.638-1.51l3.698,0.002V2.222h-41.338v4.499h3.407c1.712,0,3.026,0.112,3.911,0.334
			c1.794,0.435,2.802,1.613,3.174,3.698c0.222,1.307,0.349,3.439,0.379,6.332v14.603c0,1.854-1.202,2.739-1.486,2.968
			c-0.284,0.228-3.672,2.8-3.672,2.8s3.39,2.571,3.672,2.802c0.284,0.228,1.486,1.118,1.486,2.968v14.883
			c0,1.996-0.043,3.484-0.127,4.423c-0.183,2.106-0.661,3.603-1.406,4.432c-0.935,1.001-2.828,1.508-5.625,1.51l-3.713-0.002v4.501
			h64.687V45.77h-3.256L379.708,46.244z M340.343,38.872c-0.015,3.101-0.032,6.31-0.106,9.278c-0.034,2.108-0.114,4.083-0.19,5.993
			c-0.041,1.01-0.078,1.975-0.105,2.888c-0.222,5.147-0.521,8.642-0.523,8.677c-0.011,0.125-0.114,0.22-0.239,0.22
			s-0.228-0.095-0.239-0.22c-0.002-0.034-0.304-3.53-0.523-8.672c-0.028-0.915-0.067-1.88-0.106-2.892
			c-0.075-1.91-0.153-3.885-0.189-5.996c-0.071-2.929-0.088-6.097-0.106-9.159l-0.006-1.023l0.006-0.943
			c0.017-3.09,0.037-6.286,0.108-9.243c0.039-2.102,0.114-4.07,0.189-5.974c0.041-1.016,0.078-1.99,0.106-2.907
			c0.222-5.147,0.519-8.642,0.523-8.677c0.011-0.125,0.114-0.22,0.239-0.22c0.125,0,0.228,0.097,0.239,0.22
			c0.002,0.034,0.299,3.53,0.521,8.672v0.002c0.028,0.917,0.067,1.891,0.105,2.907c0.075,1.904,0.151,3.872,0.19,5.974
			c0.073,3.071,0.09,6.398,0.11,9.614l0.002,0.569L340.343,38.872z"/>
		<path class="st0" d="M394.063,13.305l16.942,33.079v11.728c0,1.996-0.043,3.484-0.129,4.434c-0.157,2.1-0.631,3.586-1.404,4.421
			c-0.935,1.001-2.828,1.508-5.625,1.51l-3.713-0.002v4.501h41.336v-4.501h-3.407c-1.71,0-3.026-0.112-3.909-0.332
			c-1.747-0.431-2.787-1.645-3.177-3.704c-0.222-1.266-0.349-3.398-0.377-6.327V41.278l7.247-14.158
			c4.189-8.188,8.069-13.919,11.509-17.009c2.552-2.139,5.029-3.28,7.361-3.39l0.885-0.041V2.223h-29.349v4.499h2.158
			c2.38,0,4.143,0.943,5.401,2.89c0.879,1.32,1.322,3.189,1.322,5.552c0,3.077-0.902,6.39-2.677,9.842l-5.524,10.555l-11.483-22.087
			c-0.825-1.579-1.243-2.931-1.243-4.016c0-0.747,0-2.735,4.725-2.735h3.42V2.222h-41.306v4.499h2.802
			C389.164,6.721,391.85,8.873,394.063,13.305z M403.89,10.031c0.112-0.056,0.248-0.022,0.314,0.084
			c0.022,0.032,2.031,3.217,4.8,8.005c0.476,0.846,0.986,1.736,1.52,2.664c1.029,1.792,2.095,3.646,3.179,5.657l5.203,9.624
			c0,0.002,0.002,0.004,0.002,0.006l2.546,4.998c0.431,0.982,0.659,2.046,0.661,3.093l-0.028,2.675
			c-0.019,2.272-0.099,4.398-0.177,6.454c-0.041,1.081-0.08,2.117-0.105,3.095c-0.222,5.53-0.521,9.286-0.523,9.323
			c-0.011,0.125-0.114,0.22-0.239,0.22s-0.228-0.097-0.239-0.22c-0.002-0.037-0.302-3.792-0.523-9.321
			c-0.026-0.973-0.065-2.001-0.106-3.075c-0.078-2.063-0.157-4.195-0.179-6.478l-0.032-2.645c-0.019-0.745-0.2-1.508-0.521-2.197
			l-2.602-4.837l-4.988-9.743c-1.036-2.02-1.955-3.939-2.845-5.793c-0.467-0.978-0.915-1.91-1.348-2.789
			c-2.378-4.998-3.864-8.459-3.879-8.494C403.733,10.223,403.78,10.087,403.89,10.031z"/>
		<path class="st0" d="M539.042,6.721h1.284c1.639,0,2.778,0.103,3.7,0.334c1.794,0.437,2.804,1.613,3.174,3.7
			c0.224,1.307,0.351,3.439,0.379,6.332v16.311h-20.185V17.086c0-1.968,0.043-3.435,0.127-4.376
			c0.157-2.104,0.635-3.616,1.404-4.479c0.973-1.044,2.61-1.51,5.304-1.51l1.697,0.002V2.222h-39.001v4.499h3.407
			c1.714,0,3.026,0.112,3.911,0.334c1.794,0.435,2.802,1.613,3.174,3.698c0.222,1.307,0.349,3.439,0.379,6.332v14.603
			c0,1.854-1.202,2.739-1.486,2.968c-0.284,0.228-3.672,2.8-3.672,2.8s3.39,2.571,3.672,2.802c0.284,0.228,1.486,1.118,1.486,2.968
			v14.883c0,2.009-0.043,3.495-0.127,4.423c-0.183,2.106-0.661,3.603-1.406,4.432c-0.935,1.001-2.828,1.508-5.625,1.51l-3.713-0.002
			v4.501h39.001v-4.501h-1.24c-1.667,0-2.821-0.101-3.743-0.332c-1.747-0.431-2.787-1.645-3.179-3.719
			c-0.25-1.299-0.375-3.422-0.375-6.312V37.952h20.185v20.155c0,1.971-0.043,3.459-0.127,4.421
			c-0.185,2.076-0.665,3.575-1.415,4.443c-0.917,1.01-2.685,1.501-5.403,1.501l-1.589-0.002v4.501h39.001v-4.501h-3.407
			c-1.712,0-3.026-0.112-3.909-0.332c-1.77-0.435-2.78-1.617-3.181-3.724c-0.248-1.256-0.375-3.379-0.375-6.308V43.224
			c0-1.852,1.202-2.739,1.486-2.968c0.284-0.228,3.674-2.8,3.674-2.8s-3.39-2.571-3.674-2.802c-0.284-0.228-1.486-1.116-1.486-2.968
			V17.086c0-2.046,0.043-3.51,0.127-4.376c0.157-2.102,0.635-3.616,1.404-4.479c0.935-1.001,2.832-1.51,5.638-1.51l3.698,0.002
			V2.222h-39.001v4.499H539.042z M518.133,38.958c-0.015,2.899-0.032,6.183-0.105,9.194c-0.034,2.106-0.112,4.079-0.187,5.987
			c-0.041,1.032-0.078,1.99-0.108,2.899c-0.211,4.891-0.491,8.302-0.523,8.672l-0.138,1.594c-0.011,0.125-0.114,0.22-0.239,0.22
			s-0.228-0.095-0.239-0.22l-0.136-1.585c-0.002-0.017-0.302-3.497-0.523-8.681c-0.026-0.818-0.06-1.678-0.095-2.571l-0.013-0.301
			c-0.075-1.934-0.153-3.907-0.19-6.015c-0.073-3.009-0.091-6.293-0.106-9.191l-0.006-0.993l0.004-0.79
			c0.015-2.963,0.034-6.325,0.108-9.398c0.039-2.106,0.114-4.077,0.19-5.983c0.041-1.036,0.078-1.996,0.105-2.903
			c0.211-4.874,0.489-8.298,0.521-8.672l0.138-1.609c0.011-0.125,0.114-0.22,0.239-0.22c0.125,0,0.228,0.095,0.239,0.22l0.138,1.598
			c0.032,0.385,0.312,3.812,0.523,8.681c0.028,0.909,0.067,1.867,0.106,2.869c0.075,1.936,0.151,3.909,0.189,6.017
			c0.071,2.961,0.091,6.161,0.108,9.254l0.006,0.932L518.133,38.958z M555.922,37.138c0.015-2.953,0.034-6.299,0.108-9.362
			c0.037-2.065,0.112-4.001,0.185-5.875l0.006-0.144c0.039-1.001,0.075-1.96,0.103-2.866c0.192-4.458,0.446-7.731,0.517-8.627
			l0.142-1.652c0.011-0.125,0.116-0.22,0.241-0.22s0.228,0.097,0.241,0.22l0.136,1.598c0.002,0.019,0.299,3.545,0.521,8.681
			c0.028,0.909,0.065,1.871,0.103,2.875l0.006,0.14c0.073,1.871,0.146,3.808,0.185,5.873c0.075,3.052,0.093,6.385,0.108,9.327
			l0.006,0.859l-0.006,1.075c-0.017,3.047-0.034,6.198-0.103,9.114c-0.037,2.065-0.112,3.999-0.185,5.873l-0.024,0.612
			c-0.034,0.833-0.062,1.637-0.088,2.401c-0.224,5.199-0.521,8.664-0.525,8.688l-0.134,1.581c-0.011,0.123-0.116,0.22-0.241,0.22
			s-0.228-0.095-0.241-0.22l-0.138-1.585c-0.075-0.945-0.332-4.212-0.523-8.681c-0.024-0.765-0.054-1.563-0.088-2.395l-0.024-0.62
			c-0.073-1.874-0.146-3.81-0.183-5.875c-0.073-2.916-0.09-6.069-0.106-9.116V37.138z"/>
		<path class="st0" d="M651.898,46.248c-1.51,2.716-3.375,5.571-5.541,8.485c-4.699,6.297-8.711,10.285-11.955,11.868
			c-2.343,1.245-5.154,1.874-8.347,1.874h-4.854V38.138h0.896c1.505,0,2.761,0.233,3.73,0.691c1.484,0.709,3.028,1.912,4.583,3.571
			c1.917,2.113,3.439,4.546,4.523,7.232l0.235,0.581h3.469V21.684h-3.446l-0.246,0.549c-3.375,7.57-7.589,11.407-12.529,11.407
			l-1.217-0.004V6.721h6.767c1.566,0,2.912,0.134,4.049,0.405c2.197,0.403,4.82,2.21,7.785,5.358
			c4.477,4.927,8.324,10.38,11.433,16.21l0.263,0.491h3.226V2.222H590.73v4.499h3.407c1.712,0,3.026,0.112,3.911,0.334
			c1.794,0.437,2.804,1.613,3.174,3.7c0.224,1.307,0.351,3.439,0.379,6.332V31.69c0,1.854-1.202,2.739-1.486,2.968
			c-0.284,0.228-3.674,2.8-3.674,2.8s3.39,2.571,3.674,2.802c0.284,0.228,1.486,1.118,1.486,2.968V58.11
			c0,2.009-0.043,3.495-0.127,4.423c-0.183,2.106-0.661,3.603-1.406,4.432c-0.935,1.001-2.828,1.507-5.623,1.51l-3.713-0.002v4.501
			h64.685V45.77h-3.258L651.898,46.248z M612.574,38.95c-0.015,2.901-0.034,6.189-0.106,9.202c-0.034,2.149-0.118,4.204-0.19,6.015
			c-0.039,1.004-0.075,1.962-0.106,2.871c-0.222,5.171-0.521,8.664-0.525,8.688l-0.134,1.581c-0.011,0.125-0.116,0.22-0.241,0.22
			s-0.228-0.095-0.241-0.22l-0.136-1.585c-0.002-0.017-0.302-3.512-0.523-8.681c-0.03-0.911-0.067-1.874-0.106-2.879
			c-0.073-1.809-0.155-3.861-0.19-6.008c-0.075-3.019-0.09-6.316-0.103-9.226l-0.006-0.96l0.006-1.195
			c0.019-3.006,0.037-6.116,0.106-8.991c0.039-2.151,0.118-4.206,0.19-6.019c0.039-1.001,0.075-1.96,0.106-2.866
			c0.222-5.136,0.519-8.662,0.523-8.688l0.134-1.594c0.011-0.123,0.116-0.22,0.241-0.22s0.228,0.095,0.241,0.22l0.138,1.598
			c0.075,0.95,0.327,4.225,0.519,8.681c0.03,0.909,0.067,1.865,0.106,2.866c0.071,1.811,0.151,3.866,0.19,6.021
			c0.069,2.864,0.088,5.961,0.106,8.957l0.006,1.232L612.574,38.95z"/>
		<path class="st0" d="M702.415,68.143c-1.747-0.431-2.787-1.645-3.179-3.719c-0.25-1.299-0.375-3.422-0.375-6.312V40.539h2.332
			l14.082,32.435h25.369V68.51l-0.894-0.034c-1.88-0.073-3.385-0.401-4.441-0.954c-1.863-1.085-3.424-3.235-4.66-6.42l-9.291-21.094
			c3.82-1.044,6.831-2.963,8.959-5.709c2.729-3.476,4.111-7.912,4.111-13.188c0-4.277-0.982-8.076-2.918-11.296
			c-2.274-3.734-5.815-6.123-10.509-7.092c-1.557-0.336-4.893-0.5-10.197-0.5h-42.408v4.499h3.407c1.712,0,3.026,0.112,3.909,0.334
			c1.794,0.437,2.804,1.613,3.172,3.685c0.09,0.719,0.177,10.165,0.248,20.95c0,1.854-1.202,2.739-1.486,2.968
			c-0.284,0.228-3.672,2.8-3.672,2.8s3.39,2.571,3.672,2.802c0.284,0.228,1.486,1.118,1.486,2.968
			c0.024,4.94,0.116,10.527,0.131,14.883c0,2.007-0.043,3.495-0.127,4.426c-0.183,2.106-0.661,3.601-1.406,4.432
			c-0.935,1.001-2.828,1.507-5.623,1.51l-3.713-0.002v4.501h39.337v-4.501h-1.406C704.611,68.475,703.298,68.363,702.415,68.143z
			 M718.663,33.032l1.079-1.335c0.441-0.528,0.971-1.357,1.456-2.281c1.146-2.143,1.809-5.037,1.77-7.74
			c0.011-1.439-0.144-2.825-0.478-4.247c-0.274-1.165-0.711-2.343-1.296-3.504c-0.5-0.943-1.016-1.753-1.456-2.276l-1.072-1.333
			c-0.071-0.088-0.073-0.213-0.002-0.302c0.069-0.088,0.192-0.118,0.295-0.067l0.556,0.271c0.069,0.034,0.433,0.222,0.989,0.62
			c0.497,0.373,1.402,1.049,2.214,2.093c0.627,0.786,1.495,2.087,2.072,3.827c0.622,1.753,0.777,3.637,0.795,4.908
			c-0.028,1.841-0.297,3.491-0.799,4.912c-0.575,1.736-1.441,3.039-2.067,3.825c-0.758,0.971-1.542,1.591-2.216,2.095
			c-0.558,0.398-0.917,0.586-0.984,0.62l-0.558,0.276c-0.034,0.015-0.071,0.024-0.106,0.024c-0.071,0-0.142-0.032-0.187-0.09
			C718.59,33.245,718.592,33.118,718.663,33.032z M719.131,53.622c1.415,2.968,2.759,6.084,3.685,8.55l0,0
			c0.762,2.052,1.243,3.592,1.37,4.014l0.25,0.846c0.034,0.114-0.022,0.235-0.127,0.284c-0.034,0.015-0.069,0.024-0.103,0.024
			c-0.075,0-0.151-0.037-0.198-0.103l-0.487-0.702c-0.028-0.034-1.027-1.492-2.287-3.605c-1.355-2.289-2.94-5.289-4.354-8.229
			c-1.402-2.94-2.744-6.056-3.683-8.55c-0.9-2.418-1.383-4.047-1.383-4.055l-0.241-0.81c-0.034-0.114,0.022-0.235,0.127-0.286
			c0.106-0.05,0.233-0.017,0.302,0.08l0.489,0.709c0.263,0.385,1.163,1.723,2.285,3.607
			C716.131,47.693,717.718,50.691,719.131,53.622z M698.861,6.721h2.985c3.513,0,6.151,0.913,7.839,2.705
			c2.375,2.574,3.579,6.665,3.579,12.163c0,9.721-3.521,14.448-10.766,14.448h-3.637V6.721z M689.594,39.059
			c-0.017,3.039-0.034,6.183-0.106,9.092c-0.034,2.151-0.116,4.208-0.19,6.021c-0.039,0.999-0.075,1.958-0.103,2.864
			c-0.192,4.469-0.448,7.736-0.519,8.632l-0.142,1.635c-0.011,0.125-0.116,0.22-0.241,0.22s-0.228-0.097-0.241-0.22l-0.136-1.585
			c-0.002-0.017-0.299-3.482-0.523-8.681c-0.024-0.769-0.054-1.57-0.088-2.406l-0.019-0.476c-0.082-2.065-0.153-3.943-0.19-6.006
			c-0.071-2.925-0.088-6.084-0.103-9.138v-1.955c0.017-3.103,0.034-6.312,0.108-9.28c0.037-2.065,0.108-3.95,0.19-6.021
			c0.039-1.001,0.075-1.958,0.103-2.864c0.222-5.136,0.519-8.662,0.523-8.688l0.134-1.594c0.011-0.123,0.116-0.22,0.241-0.22
			s0.228,0.095,0.241,0.22l0.138,1.598c0.075,0.952,0.33,4.225,0.521,8.681c0.028,0.911,0.065,1.871,0.103,2.877l0.006,0.14
			c0.073,1.869,0.146,3.805,0.185,5.868c0.075,3.071,0.093,6.424,0.108,9.385l0.006,0.801L689.594,39.059z"/>
		<path class="st0" d="M751.656,6.721h3.409c1.714,0,3.028,0.112,3.909,0.334c1.794,0.437,2.804,1.613,3.174,3.698
			c0.222,1.303,0.349,3.435,0.377,6.332v14.603c0,1.854-1.202,2.739-1.486,2.968c-0.284,0.228-3.672,2.8-3.672,2.8
			s3.39,2.571,3.672,2.802c0.284,0.228,1.486,1.118,1.486,2.968v14.883c0,2.005-0.041,3.493-0.125,4.423
			c-0.185,2.108-0.663,3.605-1.406,4.434c-0.935,1.001-2.828,1.51-5.625,1.51l-3.715-0.002v4.501h41.34v-4.501h-3.409
			c-1.712,0-3.026-0.112-3.909-0.332c-1.747-0.431-2.787-1.645-3.179-3.724c-0.248-1.253-0.373-3.375-0.373-6.308V43.227
			c0-1.852,1.202-2.739,1.486-2.968c0.284-0.228,3.674-2.8,3.674-2.8s-3.39-2.571-3.674-2.802c-0.284-0.228-1.486-1.116-1.486-2.968
			V17.086c0-1.966,0.041-3.433,0.125-4.376c0.159-2.106,0.637-3.618,1.406-4.479c0.937-1.001,2.832-1.51,5.64-1.51l3.7,0.002V2.222
			h-41.34L751.656,6.721L751.656,6.721z M771.025,37.067c0.017-3.105,0.034-6.319,0.106-9.291c0.039-2.147,0.118-4.197,0.19-6.006
			l0.019-0.472c0.034-0.836,0.062-1.639,0.088-2.408c0.222-5.136,0.519-8.662,0.523-8.688l0.134-1.594
			c0.011-0.123,0.116-0.22,0.241-0.22s0.228,0.095,0.241,0.22l0.138,1.598c0.075,0.952,0.33,4.225,0.521,8.681
			c0.028,0.909,0.065,1.871,0.103,2.875l0.006,0.14c0.073,1.871,0.146,3.808,0.185,5.871c0.075,3.067,0.093,6.416,0.108,9.372
			l0.006,0.814l-0.006,1.047c-0.017,3.056-0.034,6.215-0.106,9.142c-0.034,2.063-0.11,3.997-0.183,5.868l-0.006,0.138
			c-0.041,1.006-0.078,1.968-0.106,2.877c-0.192,4.469-0.448,7.736-0.519,8.632l-0.142,1.637c-0.011,0.125-0.116,0.22-0.241,0.22
			s-0.228-0.097-0.241-0.22l-0.136-1.585c-0.002-0.017-0.299-3.482-0.523-8.681c-0.024-0.765-0.054-1.566-0.088-2.395l-0.024-0.616
			c-0.073-1.874-0.146-3.81-0.185-5.875c-0.071-2.92-0.088-6.077-0.103-9.129L771.025,37.067L771.025,37.067z"/>
		<path class="st0" d="M804.899,34.593h3.51l0.185-0.685c2.869-10.525,7.299-18.895,13.141-24.865
			c1.579-1.525,3.39-2.285,5.526-2.322h0.157V31.69c0,1.854-1.202,2.739-1.486,2.968c-0.284,0.228-3.672,2.8-3.672,2.8
			s3.39,2.571,3.672,2.802c0.284,0.228,1.486,1.118,1.486,2.968V58.11c0,2.005-0.041,3.493-0.125,4.423
			c-0.185,2.108-0.661,3.605-1.406,4.434c-0.935,1.001-2.828,1.507-5.625,1.51l-3.715-0.002v4.501h41.34v-4.501h-3.409
			c-1.684,0-3-0.112-3.911-0.334c-1.794-0.435-2.804-1.613-3.179-3.717c-0.248-1.294-0.373-3.418-0.373-6.312V43.229
			c0-1.852,1.202-2.739,1.486-2.968c0.284-0.228,3.674-2.8,3.674-2.8s-3.39-2.571-3.674-2.802c-0.284-0.228-1.486-1.116-1.486-2.968
			V6.721h0.289c2.156,0,4.055,0.907,5.797,2.767c3.571,3.836,6.545,8.261,8.847,13.169c2.156,4.434,3.536,8.197,4.094,11.179
			l0.142,0.758h3.573V2.222h-64.859V34.593z M836.029,37.145c0.015-2.955,0.034-6.306,0.108-9.368
			c0.037-2.065,0.112-3.999,0.185-5.873l0.006-0.14c0.039-1.004,0.075-1.966,0.106-2.875c0.192-4.458,0.444-7.731,0.517-8.627
			l0.142-1.652c0.011-0.125,0.116-0.22,0.241-0.22s0.228,0.097,0.241,0.22l0.136,1.598c0.002,0.019,0.299,3.545,0.521,8.681
			c0.024,0.762,0.054,1.557,0.088,2.386l0.019,0.482c0.071,1.813,0.151,3.868,0.19,6.019c0.069,2.881,0.088,5.996,0.106,9.006
			l0.006,1.18l-0.006,1.049c-0.017,3.056-0.034,6.215-0.103,9.138c-0.034,2.149-0.118,4.204-0.19,6.017
			c-0.039,1.004-0.075,1.962-0.106,2.869c-0.224,5.199-0.521,8.664-0.525,8.688l-0.134,1.579c-0.011,0.123-0.116,0.22-0.241,0.22
			s-0.228-0.095-0.241-0.22l-0.138-1.585c-0.075-0.945-0.332-4.212-0.523-8.681c-0.028-0.909-0.065-1.869-0.103-2.873
			c-0.073-1.811-0.155-3.864-0.19-6.015c-0.073-2.922-0.09-6.082-0.106-9.138v-1.865H836.029z"/>
		<path class="st0" d="M940.994,68.314c-1.574-0.31-3.075-1.475-4.479-3.491c-0.818-1.096-1.891-3.269-3.189-6.461L909.978,0.937
			l-0.235-0.577h-3.121l-20.89,51.089c-4.581,11.078-9.207,16.807-13.751,17.026l-0.885,0.041v4.458h28.832V68.54l-0.861-0.062
			c-0.732-0.054-1.152-0.099-1.486-0.136l-0.364-0.034c-2.494-0.398-4.286-1.553-5.483-3.532c-1.467-2.401-2.212-5.169-2.212-8.225
			c0-0.857,0.084-1.734,0.252-2.614h19.188l3.026,7.641c0.506,1.288,0.762,2.386,0.762,3.263c0,1.021-0.297,1.865-0.889,2.558
			c-0.661,0.726-1.574,1.079-2.791,1.079h-4.55v4.501h40.918v-4.501h-2.061C942.446,68.475,941.634,68.419,940.994,68.314z
			 M891.049,49.435l7.945-20.155l8.018,20.155H891.049z M926.628,65.075c-0.03,0.013-0.062,0.017-0.09,0.017
			c-0.086,0-0.17-0.047-0.213-0.127l-0.633-1.182c-0.366-0.693-1.639-3.125-3.267-6.571c-0.317-0.7-0.659-1.434-1.019-2.201
			c-0.691-1.484-1.393-2.987-2.1-4.613c-0.993-2.229-2.009-4.66-2.993-7.014l-0.627-1.52c-0.991-2.459-2.009-4.988-2.901-7.346
			c-0.62-1.611-1.167-3.133-1.697-4.609l-0.114-0.317c-0.265-0.737-0.517-1.443-0.765-2.113c-1.26-3.573-2.07-6.211-2.289-6.932
			l-0.394-1.335c-0.034-0.118,0.026-0.243,0.14-0.291c0.116-0.047,0.246,0,0.304,0.11l0.637,1.191
			c0.006,0.011,1.408,2.636,3.267,6.573c0.317,0.702,0.659,1.436,1.019,2.205c0.642,1.378,1.37,2.94,2.1,4.611
			c1.066,2.395,2.197,5.102,3.108,7.277l0.562,1.37c0.915,2.268,1.953,4.837,2.858,7.234c0.627,1.615,1.174,3.144,1.701,4.626
			l0.047,0.134c0.284,0.797,0.558,1.559,0.823,2.278l0.002,0.002c1.458,4.141,2.294,6.958,2.298,6.978l0.379,1.277
			C926.8,64.902,926.74,65.027,926.628,65.075z"/>
		<path class="st0" d="M982.731,42.221h3.799c3.297,0,5.248,0.853,5.961,2.599c0.592,1.486,0.892,4.342,0.892,8.487
			c0,4.268-0.297,7.585-0.885,9.866c-1.167,4.66-3.945,6.926-8.492,6.926c-3.919,0-6.685-1.979-8.455-6.049
			c-1.902-4.367-3.14-10.186-3.68-17.321l-0.032-0.209c-0.31-3.388-0.515-10.074-0.123-15.855l0.013,0.015l0.157-2.011
			c0.556-7.122,1.803-12.954,3.711-17.338c1.768-4.07,4.391-6.049,8.02-6.049c5.018,0,12.026,2.757,16.371,8.92l0.306,0.429
			c2.978,4.187,6.355,8.933,8.414,14.321l0.299,0.78l3.562-0.943l-0.831-26.924h-2.899l-0.278,0.334
			c-2.388,2.856-5.477,4.352-7.294,4.352c-1.161,0-3.375-0.562-5.494-1.796c-1.525-0.889-3.157-1.775-4.262-2.315
			C988.401,0.911,983.919,0,979.528,0c-8.716,0-15.876,3.327-21.284,9.889c-4.376,5.339-7.46,11.998-8.358,21.251
			c-0.276,2.664-1.598,3.517-1.598,3.517l-3.672,2.8l3.332,2.541c0.775,0.724,1.729,1.523,1.981,3.7
			c0.586,4.477,1.594,8.276,3.133,11.952c2.759,6.515,6.786,11.487,11.963,14.776c4.943,3.166,10.07,4.772,15.241,4.772
			c4.072,0,7.393-0.508,9.868-1.508c6.062-2.427,10.204-3.659,12.308-3.659c3.306,0,5.978,1.088,8.162,3.323l0.65,0.665l2.046-2.005
			l-0.071-0.472c-0.482-3.177-0.726-8.565-0.726-16.018c0-5.539,0.558-9.325,1.66-11.255c0.784-1.38,2.427-2.052,5.018-2.052h4.581
			v-4.501h-41.034v4.503H982.731z M962.244,48.313c0.7,3.616,1.551,6.665,2.528,9.067c0.954,2.401,1.983,4.551,2.901,6.054
			c0.745,1.275,1.268,2.033,1.367,2.173l1.492,2.104c0.075,0.103,0.054,0.248-0.047,0.327c-0.045,0.034-0.097,0.052-0.149,0.052
			c-0.067,0-0.131-0.028-0.181-0.082l-2.263-2.567c-0.276-0.308-0.696-0.775-1.15-1.406c-0.497-0.633-1.081-1.477-1.727-2.505
			c-0.793-1.253-1.398-2.354-1.906-3.469c-1.471-3.125-2.546-6.254-3.192-9.297c-0.747-3.325-1.178-7.186-1.243-11.166
			c0.071-4.044,0.489-7.798,1.245-11.168c0.655-3.058,1.727-6.187,3.194-9.297c0.646-1.426,1.396-2.662,1.902-3.465
			c0.653-1.034,1.219-1.856,1.727-2.509c0.448-0.612,0.849-1.066,1.146-1.398l2.289-2.599c0.088-0.095,0.228-0.11,0.33-0.03
			c0.101,0.08,0.121,0.224,0.047,0.327l-1.514,2.13c-0.006,0.009-0.562,0.795-1.37,2.175c-0.926,1.514-1.955,3.661-2.901,6.052
			v0.002c-0.989,2.429-1.841,5.479-2.53,9.067c-0.65,3.237-0.971,6.84-0.952,10.714C961.277,41.491,961.597,45.096,962.244,48.313z
			 M1001.861,47.921c0.248-1.751,0.541-2.94,0.545-2.948l0.129-0.525c0.026-0.108,0.121-0.183,0.233-0.183
			c0.11,0,0.207,0.075,0.233,0.183l0.134,0.538c0.032,0.131,0.306,1.284,0.541,2.933c0.248,1.835,0.392,4.174,0.401,6.422
			c-0.006,2.255-0.151,4.596-0.398,6.422c-0.254,1.787-0.545,2.946-0.547,2.953L1003,64.233c-0.026,0.108-0.123,0.181-0.233,0.181
			c-0.11,0-0.207-0.075-0.233-0.183l-0.131-0.534c0,0-0.295-1.165-0.543-2.933c-0.248-1.826-0.392-4.165-0.398-6.422
			C1001.469,52.095,1001.613,49.754,1001.861,47.921z"/>
		<path class="st0" d="M1089.74,45.77l-0.265,0.478c-1.505,2.709-3.37,5.565-5.541,8.485c-4.701,6.297-8.711,10.285-11.952,11.868
			c-2.345,1.245-5.156,1.874-8.347,1.874h-4.852V38.138h0.896c1.505,0,2.763,0.233,3.73,0.691c1.482,0.709,3.028,1.912,4.583,3.571
			c1.917,2.111,3.437,4.544,4.52,7.232l0.233,0.581h3.472V21.684h-3.448l-0.245,0.551c-3.373,7.568-7.587,11.405-12.527,11.405
			l-1.215-0.004V6.721h6.764c1.568,0,2.912,0.134,4.051,0.405c2.197,0.403,4.822,2.21,7.785,5.358
			c4.479,4.927,8.326,10.38,11.435,16.21l0.261,0.491h3.228V2.222h-63.994v4.499h3.409c1.712,0,3.028,0.112,3.913,0.334
			c1.794,0.437,2.8,1.613,3.172,3.698c0.222,1.312,0.351,3.446,0.379,6.332v14.603c0,1.854-1.202,2.739-1.486,2.968
			c-0.284,0.228-3.674,2.8-3.674,2.8s3.39,2.571,3.674,2.802c0.284,0.228,1.486,1.118,1.486,2.968v14.883
			c0,1.988-0.043,3.476-0.127,4.423c-0.183,2.106-0.659,3.603-1.404,4.432c-0.937,1.001-2.83,1.51-5.627,1.51l-3.715-0.002v4.501
			H1093V45.77H1089.74z M1050.125,39.027c-0.017,3.049-0.034,6.204-0.103,9.125c-0.034,2.147-0.118,4.199-0.189,6.008
			c-0.039,1.006-0.075,1.966-0.106,2.875c-0.224,5.199-0.521,8.664-0.526,8.688l-0.134,1.579c-0.011,0.123-0.116,0.22-0.241,0.22
			c-0.125,0-0.228-0.095-0.241-0.22l-0.138-1.585c-0.075-0.945-0.332-4.212-0.523-8.681c-0.028-0.913-0.065-1.874-0.105-2.879
			l-0.006-0.138c-0.073-1.871-0.146-3.805-0.183-5.871c-0.073-2.929-0.09-6.095-0.105-9.155v-1.8
			c0.015-2.97,0.034-6.336,0.108-9.413c0.037-2.063,0.112-3.999,0.185-5.871l0.006-0.144c0.039-1.004,0.075-1.964,0.105-2.873
			c0.192-4.458,0.444-7.731,0.517-8.627l0.142-1.652c0.011-0.125,0.116-0.22,0.241-0.22c0.125,0,0.228,0.097,0.241,0.22l0.136,1.598
			c0.002,0.019,0.299,3.545,0.521,8.681c0.024,0.769,0.054,1.57,0.088,2.406l0.019,0.476c0.071,1.809,0.151,3.859,0.19,6.006
			c0.069,2.871,0.088,5.974,0.106,8.976l0.002,0.392l0,0l0.004,0.818L1050.125,39.027z"/>
	</g>
	<g>
		<path class="st1" d="M347.006,132.221h-18.344v-22.727h18.006v4.307h-13.716v4.137h7.938v4.411h-7.938v5.563h14.052v4.309H347.006
			z"/>
		<path class="st1" d="M376.833,125.437c-0.022,2.216-0.896,3.969-2.619,5.257c-1.723,1.29-4.161,1.934-7.314,1.934
			c-4.346,0-8.095-1.141-11.248-3.426l2.466-3.528c2.5,1.719,5.382,2.589,8.649,2.61c2.005-0.067,3.484-0.351,4.441-0.849
			c0.956-0.497,1.447-1.176,1.471-2.035c0.067-0.838-0.405-1.52-1.419-2.052c-1.014-0.532-2.602-0.909-4.764-1.137
			c-3.808-0.407-6.351-1.18-7.634-2.324c-1.284-1.144-1.915-2.617-1.891-4.426c0.045-1.945,0.967-3.478,2.769-4.596
			c1.8-1.12,4.008-1.701,6.62-1.747c3.062,0,6.082,0.894,9.054,2.679l-2.365,3.459c-2.005-1.176-4.335-1.764-6.993-1.764
			c-1.148-0.022-2.235,0.114-3.261,0.407c-1.025,0.293-1.514,0.814-1.469,1.561c-0.045,0.678,0.394,1.215,1.318,1.611
			c0.924,0.396,2.5,0.706,4.729,0.932c3.512,0.317,5.968,1.21,7.363,2.679C376.133,122.153,376.833,123.74,376.833,125.437z"/>
		<path class="st1" d="M404.028,113.804h-7.6v18.417h-4.29v-18.417h-7.568v-4.307h19.458V113.804z"/>
		<path class="st1" d="M433.752,132.221h-4.762l-2.298-4.951h-11.519l-2.365,4.951h-4.764l10.71-22.727h4.29L433.752,132.221z
			 M424.633,122.894l-3.717-7.904l-3.749,7.904C417.167,122.894,424.633,122.894,424.633,122.894z"/>
		<path class="st1" d="M457.198,113.804h-7.6v18.417h-4.29v-18.417h-7.568v-4.307h19.458V113.804z"/>
		<path class="st1" d="M484.12,132.221h-18.344v-22.727h18.006v4.307h-13.716v4.137h7.938v4.411h-7.938v5.563h14.052v4.309H484.12z"
			/>
		<path class="st1" d="M530.363,120.824c0,3.142-1.109,5.83-3.327,8.057c-2.218,2.227-4.893,3.34-8.024,3.34h-9.93v-22.727h9.93
			c3.131,0,5.804,1.109,8.024,3.325C529.254,115.035,530.363,117.704,530.363,120.824z M526.007,120.824
			c0-1.923-0.681-3.573-2.044-4.951c-1.363-1.38-3.013-2.07-4.949-2.07h-5.64v14.11h5.64c1.936,0,3.588-0.689,4.949-2.067
			C525.324,124.464,526.007,122.79,526.007,120.824z"/>
		<path class="st1" d="M540.261,132.221v-22.727h4.29v22.727H540.261z"/>
		<path class="st1" d="M575.022,125.437c-0.024,2.216-0.896,3.969-2.619,5.257c-1.723,1.29-4.161,1.934-7.314,1.934
			c-4.346,0-8.095-1.141-11.248-3.426l2.466-3.528c2.5,1.719,5.382,2.589,8.649,2.61c2.005-0.067,3.484-0.351,4.441-0.849
			s1.447-1.176,1.471-2.035c0.067-0.838-0.405-1.52-1.417-2.052c-1.014-0.532-2.602-0.909-4.764-1.137
			c-3.807-0.407-6.351-1.18-7.634-2.324c-1.286-1.141-1.917-2.617-1.893-4.426c0.045-1.945,0.967-3.478,2.77-4.596
			c1.803-1.12,4.008-1.701,6.62-1.747c3.065,0,6.082,0.894,9.054,2.679l-2.365,3.459c-2.005-1.176-4.337-1.764-6.993-1.764
			c-1.148-0.022-2.235,0.114-3.261,0.407c-1.025,0.293-1.514,0.814-1.471,1.561c-0.045,0.678,0.394,1.215,1.318,1.611
			c0.924,0.396,2.498,0.706,4.727,0.932c3.515,0.317,5.968,1.21,7.365,2.679C574.322,122.153,575.022,123.74,575.022,125.437z"/>
		<path class="st1" d="M602.351,113.804h-7.6v18.417h-4.29v-18.417h-7.568v-4.307h19.458V113.804z"/>
		<path class="st1" d="M611.267,132.221v-22.727h4.29v22.727H611.267z"/>
		<path class="st1" d="M644.27,132.221h-18.344v-22.727h4.29v18.417h14.052v4.309H644.27z"/>
		<path class="st1" d="M671.7,132.221h-18.344v-22.727h4.29v18.417h14.052v4.309H671.7z"/>
		<path class="st1" d="M699.029,132.221h-18.344v-22.727h18.004v4.307h-13.714v4.137h7.938v4.411h-7.938v5.563h14.052v4.309H699.029
			z"/>
		<path class="st1" d="M730.004,132.221h-4.998l-4.998-8.513h-6.993v8.513h-4.29v-22.727h13.817c1.981,0,3.663,0.696,5.05,2.087
			c1.385,1.391,2.078,3.058,2.078,5.003c0,1.516-0.439,2.884-1.318,4.105c-0.877,1.221-2.048,2.091-3.513,2.612L730.004,132.221z
			 M725.378,116.584c0-0.747-0.276-1.396-0.829-1.951c-0.551-0.553-1.221-0.831-2.009-0.831h-9.527v5.597h9.527
			c0.786,0,1.458-0.276,2.009-0.831C725.103,118.014,725.378,117.353,725.378,116.584z"/>
		<path class="st1" d="M761.927,109.494l-10.71,13.568v9.157h-4.29v-9.157l-10.708-13.568h5.472l7.398,9.329l7.365-9.329H761.927z"
			/>
	</g>
</g>
</svg>
