<?xml version="1.0" encoding="utf-8"?>
<!-- Generator: Adobe Illustrator 24.1.3, SVG Export Plug-In . SVG Version: 6.00 Build 0)  -->
<svg version="1.1" id="Layer_1" xmlns="http://www.w3.org/2000/svg" xmlns:xlink="http://www.w3.org/1999/xlink" x="0px" y="0px"
	 viewBox="0 0 507.528 61.585" style="enable-background:new 0 0 507.528 61.585;" xml:space="preserve">
<style type="text/css">
	.st0{fill-rule:evenodd;clip-rule:evenodd;fill:#96694C;}
	.st1{fill:#96694C;}
</style>
<g>
	<g>
		<path class="st0" d="M64.509,21.475c-0.701,1.261-1.568,2.587-2.573,3.94c-2.182,2.924-4.045,4.776-5.551,5.511
			c-1.088,0.578-2.393,0.87-3.876,0.87h-2.254V17.709h0.417c0.699,0,1.282,0.108,1.732,0.321c0.689,0.329,1.406,0.888,2.128,1.658
			c0.89,0.981,1.597,2.111,2.1,3.358l0.109,0.27h1.611V10.069h-1.599l-0.114,0.255c-1.567,3.515-3.524,5.297-5.818,5.297
			l-0.565-0.002V3.121h3.142c0.727,0,1.352,0.062,1.88,0.188c1.02,0.187,2.238,1.026,3.615,2.488
			c2.079,2.288,3.865,4.82,5.309,7.527l0.122,0.228h1.498V1.032H36.109v2.089h1.582c0.795,0,1.405,0.052,1.815,0.155
			c0.833,0.203,1.302,0.749,1.474,1.717c0.104,0.61,0.163,1.601,0.176,2.94v6.781c0,0.861-0.558,1.272-0.69,1.378
			c-0.132,0.106-1.705,1.3-1.705,1.3s1.574,1.194,1.705,1.301c0.132,0.106,0.69,0.519,0.69,1.378v6.911
			c0,0.933-0.02,1.623-0.059,2.054c-0.085,0.978-0.307,1.673-0.653,2.058c-0.434,0.465-1.313,0.7-2.611,0.701l-1.724-0.001v2.09
			h30.036V21.253h-1.513L64.509,21.475z M46.024,18.104c-0.008,1.422-0.016,2.893-0.049,4.254c-0.017,0.987-0.053,1.91-0.088,2.803
			c-0.018,0.462-0.036,0.903-0.049,1.321c-0.103,2.39-0.242,4.013-0.243,4.029c-0.005,0.058-0.053,0.102-0.111,0.102
			s-0.106-0.044-0.111-0.102c-0.001-0.016-0.14-1.639-0.243-4.027c-0.013-0.425-0.031-0.875-0.049-1.345
			c-0.035-0.886-0.071-1.803-0.088-2.782c-0.034-1.377-0.042-2.867-0.049-4.307l-0.002-0.421l0.002-0.376
			c0.008-1.456,0.016-2.961,0.05-4.354c0.018-0.984,0.054-1.905,0.089-2.796c0.018-0.464,0.035-0.908,0.048-1.328
			c0.103-2.39,0.241-4.013,0.242-4.029c0.005-0.058,0.053-0.102,0.111-0.102s0.106,0.045,0.111,0.102
			c0.001,0.016,0.139,1.639,0.242,4.027v0.001c0.013,0.42,0.031,0.864,0.048,1.328c0.035,0.891,0.071,1.812,0.089,2.796
			c0.034,1.407,0.042,2.93,0.051,4.403l0.002,0.325L46.024,18.104z"/>
		<path class="st0" d="M26.449,17.403c2.529-1.71,3.81-4.198,3.81-7.405c0-1.95-0.47-3.697-1.399-5.196
			c-1.009-1.589-2.564-2.71-4.624-3.334c-0.991-0.293-2.385-0.435-4.261-0.435H0v2.089h1.582c0.796,0,1.405,0.052,1.816,0.155
			c0.833,0.203,1.301,0.749,1.474,1.717c0.103,0.605,0.162,1.595,0.175,2.94v6.781c0,0.861-0.558,1.272-0.69,1.378
			c-0.132,0.106-1.706,1.3-1.706,1.3s1.574,1.194,1.706,1.301c0.132,0.106,0.69,0.519,0.69,1.378v6.911
			c0,0.932-0.02,1.623-0.059,2.055c-0.085,0.978-0.307,1.672-0.652,2.057c-0.435,0.465-1.314,0.701-2.612,0.701L0,31.796v2.09
			h20.439c1.92,0,3.397-0.106,4.39-0.316c1.833-0.392,3.303-1.3,4.37-2.696c1.132-1.466,1.705-3.319,1.705-5.507
			C30.905,21.688,29.407,19.012,26.449,17.403z M25.305,8.078c-0.128-0.546-0.333-1.098-0.607-1.641
			c-0.233-0.442-0.476-0.822-0.683-1.068l-0.319-0.396c-0.033-0.041-0.033-0.099,0-0.14c0.033-0.042,0.089-0.054,0.137-0.031
			c0.007,0.004,0.179,0.089,0.449,0.282c0.226,0.168,0.642,0.479,1.017,0.961c0.287,0.36,0.685,0.956,0.95,1.758
			c0.287,0.806,0.358,1.673,0.366,2.257c-0.013,0.847-0.137,1.608-0.367,2.262c-0.265,0.8-0.663,1.397-0.95,1.757
			c-0.345,0.442-0.705,0.727-1.015,0.96c-0.272,0.194-0.442,0.279-0.45,0.283c-0.016,0.007-0.032,0.011-0.049,0.011
			c-0.033,0-0.065-0.015-0.087-0.042c-0.032-0.041-0.032-0.099,0-0.14l0.319-0.395c0.208-0.249,0.457-0.638,0.684-1.07
			c0.537-1.004,0.847-2.359,0.83-3.624C25.534,9.394,25.46,8.745,25.305,8.078z M14.147,3.121h0.942c0.82,0,1.547,0.045,2.164,0.136
			c0.745,0.1,1.383,0.424,1.954,0.995c1.055,1.045,1.589,2.903,1.589,5.523c0,3.384-0.918,5.493-2.727,6.271
			c-0.59,0.254-1.592,0.383-2.979,0.383h-0.942V3.121z M9.901,18.004c-0.007,1.456-0.015,2.962-0.049,4.354
			c-0.017,0.978-0.053,1.895-0.088,2.781c-0.019,0.47-0.036,0.919-0.049,1.343c-0.103,2.39-0.242,4.013-0.243,4.029
			c-0.005,0.058-0.053,0.102-0.111,0.102s-0.106-0.044-0.111-0.102c-0.001-0.016-0.14-1.639-0.243-4.027
			c-0.013-0.421-0.031-0.865-0.049-1.329c-0.035-0.891-0.072-1.812-0.089-2.797c-0.034-1.391-0.042-2.897-0.049-4.353l-0.002-0.375
			l0.002-0.376c0.008-1.456,0.016-2.961,0.05-4.354c0.018-0.984,0.054-1.905,0.089-2.796c0.018-0.464,0.035-0.908,0.048-1.328
			c0.103-2.39,0.241-4.013,0.242-4.029C9.254,4.689,9.302,4.645,9.36,4.645s0.106,0.044,0.111,0.102
			C9.472,4.763,9.61,6.385,9.713,8.774v0.001c0.013,0.419,0.031,0.863,0.049,1.327c0.035,0.891,0.071,1.813,0.088,2.798
			c0.034,1.392,0.042,2.897,0.05,4.353l0.002,0.375L9.901,18.004z M18.034,31.542c-0.327,0.116-1.104,0.254-2.945,0.254h-0.942
			V18.518h0.942c0.874,0,1.593,0.027,2.142,0.082c0.751,0.067,1.392,0.335,1.956,0.817c1.161,1.007,1.75,2.943,1.75,5.755
			C20.937,28.741,19.962,30.885,18.034,31.542z M26.247,27.602c-0.265,0.8-0.663,1.397-0.95,1.757
			c-0.345,0.442-0.705,0.727-1.015,0.96c-0.272,0.195-0.443,0.279-0.45,0.283c-0.016,0.008-0.032,0.011-0.049,0.011
			c-0.033,0-0.065-0.015-0.087-0.042c-0.032-0.041-0.032-0.099,0-0.14l0.319-0.395c0.208-0.247,0.457-0.636,0.684-1.07
			c0.537-1.004,0.847-2.359,0.83-3.624c0.005-0.671-0.069-1.32-0.224-1.987c-0.128-0.546-0.333-1.098-0.607-1.641
			c-0.234-0.443-0.476-0.823-0.683-1.068l-0.319-0.396c-0.033-0.041-0.033-0.099,0-0.14c0.033-0.042,0.088-0.052,0.136-0.031
			c0.007,0.003,0.179,0.089,0.449,0.282c0.313,0.234,0.673,0.518,1.017,0.961c0.287,0.36,0.685,0.957,0.95,1.759
			c0.287,0.806,0.358,1.672,0.366,2.257C26.602,26.187,26.478,26.947,26.247,27.602z"/>
		<path class="st0" d="M112.273,16.063h1.629l0.086-0.318c1.333-4.888,3.389-8.776,6.102-11.546
			c0.733-0.708,1.575-1.061,2.567-1.078h0.073c-0.003,3.179-0.006,7.59-0.012,11.594c0,0.861-0.558,1.272-0.69,1.378
			c-0.132,0.106-1.705,1.3-1.705,1.3s1.574,1.194,1.705,1.301c0.132,0.106,0.69,0.519,0.69,1.378
			c-0.01,4.759-0.032,8.732-0.046,8.966c-0.085,0.978-0.307,1.673-0.653,2.058c-0.434,0.465-1.312,0.7-2.611,0.701l-1.724-0.001
			v2.09h19.195v-2.09h-1.582c-0.782,0-1.394-0.052-1.816-0.155c-0.832-0.202-1.3-0.749-1.475-1.726
			c-0.116-0.603-0.174-1.589-0.174-2.931v-6.911c0-0.86,0.558-1.272,0.69-1.378c0.132-0.106,1.705-1.301,1.705-1.301
			s-1.574-1.194-1.705-1.3c-0.132-0.106-0.69-0.518-0.69-1.378V3.121h0.134c1.001,0,1.882,0.421,2.692,1.285
			c1.657,1.781,3.039,3.836,4.107,6.115c1.002,2.058,1.641,3.804,1.902,5.191l0.066,0.352h1.658V1.032h-30.117V16.063z
			 M126.791,17.253c0.008-1.456,0.016-2.961,0.05-4.354c0.018-0.984,0.054-1.905,0.089-2.796c0.018-0.464,0.035-0.908,0.048-1.328
			c0.103-2.39,0.241-4.013,0.242-4.029c0.005-0.057,0.053-0.102,0.111-0.102s0.106,0.044,0.111,0.102
			c0.001,0.016,0.139,1.639,0.242,4.027v0.001c0.013,0.419,0.031,0.863,0.049,1.327c0.035,0.891,0.071,1.813,0.088,2.798
			c0.034,1.392,0.042,2.897,0.05,4.353l0.002,0.375l-0.002,0.422c-0.007,1.44-0.015,2.93-0.049,4.308
			c-0.017,0.978-0.053,1.895-0.088,2.781c-0.019,0.47-0.036,0.919-0.049,1.343c-0.103,2.39-0.242,4.013-0.243,4.029
			c-0.005,0.058-0.053,0.102-0.111,0.102s-0.106-0.044-0.111-0.102c-0.001-0.016-0.14-1.639-0.243-4.027
			c-0.013-0.419-0.031-0.86-0.049-1.322c-0.035-0.893-0.071-1.817-0.088-2.804c-0.033-1.36-0.041-2.831-0.049-4.253l-0.003-0.475
			L126.791,17.253z"/>
		<path class="st0" d="M94.175,2.69l0.071,0.431h0.432c0.975,0,1.849,0.357,2.66,1.081c1.292,1.231,1.953,3.594,1.966,7.023v6.415
			L86.358,1.032H72.391v2.089h0.613c0.325,0,0.664,0.043,1.013,0.128c0.338,0.078,0.776,0.332,1.295,0.749
			c0.842,0.698,1.422,1.263,1.736,1.695l0.712,0.886v8.135c0,0.86-0.558,1.272-0.69,1.378c-0.132,0.106-1.706,1.3-1.706,1.3
			s1.574,1.194,1.706,1.301c0.132,0.106,0.69,0.519,0.69,1.378v3.618c-0.013,2.97-0.639,5.224-1.853,6.692
			c-0.812,0.934-1.896,1.396-3.314,1.413l-0.426,0.005v2.085h12.694v-1.659l-0.073-0.431h-0.431c-0.972,0-1.843-0.364-2.66-1.111
			c-1.29-1.211-1.951-3.565-1.964-6.993V8.947l20.071,25.971h1.471V20.073c0-0.86,0.558-1.272,0.69-1.378
			c0.132-0.106,1.706-1.3,1.706-1.3s-1.574-1.194-1.706-1.301c-0.132-0.106-0.69-0.518-0.69-1.378v-3.488
			c0.013-2.97,0.638-5.224,1.852-6.692c0.811-0.933,1.895-1.396,3.314-1.414l0.426-0.005V1.032H94.175V2.69z M97.708,23.772
			c-0.021,0.017-0.045,0.025-0.07,0.025c-0.029,0-0.058-0.011-0.08-0.034c-0.01-0.01-1.055-1.079-2.515-2.713
			c-0.256-0.294-0.528-0.601-0.814-0.922c-0.54-0.609-1.099-1.239-1.68-1.925c-0.824-0.959-1.695-2.014-2.537-3.034l-0.435-0.532
			c-0.846-1.049-1.72-2.132-2.509-3.15c-0.555-0.707-1.06-1.38-1.549-2.03c-0.258-0.344-0.505-0.672-0.74-0.981
			c-1.308-1.76-2.147-2.996-2.155-3.008c-0.032-0.048-0.023-0.112,0.022-0.149c0.045-0.036,0.11-0.033,0.15,0.009
			c0.01,0.01,1.053,1.08,2.513,2.713c0.255,0.292,0.526,0.598,0.809,0.917c0.541,0.611,1.101,1.243,1.685,1.93
			c0.839,0.977,1.726,2.05,2.583,3.089l0.446,0.547c0.826,1.024,1.681,2.083,2.452,3.078c0.557,0.708,1.064,1.384,1.553,2.036
			c0.256,0.342,0.502,0.669,0.736,0.975c1.309,1.76,2.147,2.996,2.155,3.008C97.762,23.671,97.753,23.735,97.708,23.772z"/>
		<path class="st0" d="M176.315,21.473c-0.727,1.297-1.586,2.624-2.553,3.941c-2.182,2.906-4.059,4.758-5.591,5.512
			c-1.088,0.578-2.386,0.87-3.856,0.87h-2.254V7.934c0-0.908,0.02-1.59,0.06-2.032c0.074-0.977,0.295-1.68,0.653-2.08
			c0.434-0.465,1.315-0.701,2.618-0.701l1.717,0.001V1.032h-19.195v2.089h1.582c0.795,0,1.405,0.052,1.816,0.155
			c0.833,0.202,1.301,0.749,1.474,1.717c0.103,0.607,0.162,1.597,0.176,2.94v6.781c0,0.861-0.558,1.272-0.69,1.378
			c-0.132,0.106-1.705,1.3-1.705,1.3s1.574,1.194,1.705,1.301c0.132,0.106,0.69,0.519,0.69,1.378v6.911
			c0,0.927-0.02,1.618-0.059,2.054c-0.085,0.978-0.307,1.673-0.653,2.058c-0.434,0.465-1.313,0.7-2.612,0.701l-1.724-0.001v2.09
			h30.037V21.253h-1.512L176.315,21.473z M158.036,18.05c-0.007,1.44-0.015,2.93-0.049,4.308c-0.016,0.979-0.053,1.896-0.088,2.783
			c-0.019,0.469-0.036,0.917-0.049,1.341c-0.103,2.39-0.242,4.013-0.243,4.029c-0.005,0.058-0.053,0.102-0.111,0.102
			s-0.106-0.044-0.111-0.102c-0.001-0.016-0.141-1.639-0.243-4.027c-0.013-0.425-0.031-0.873-0.049-1.343
			c-0.035-0.887-0.071-1.804-0.088-2.784c-0.033-1.36-0.041-2.831-0.049-4.253l-0.003-0.475l0.003-0.438
			c0.008-1.435,0.017-2.919,0.05-4.292c0.018-0.976,0.053-1.89,0.088-2.774c0.019-0.472,0.036-0.924,0.049-1.35
			c0.103-2.39,0.241-4.013,0.243-4.029c0.005-0.058,0.053-0.102,0.111-0.102s0.106,0.045,0.111,0.102
			c0.001,0.016,0.139,1.639,0.242,4.027v0.001c0.013,0.426,0.031,0.878,0.049,1.35c0.035,0.884,0.07,1.798,0.088,2.774
			c0.034,1.426,0.042,2.971,0.051,4.464l0.001,0.264L158.036,18.05z"/>
		<path class="st0" d="M182.981,6.178l7.867,15.36v5.446c0,0.927-0.02,1.618-0.06,2.059c-0.073,0.975-0.293,1.665-0.652,2.053
			c-0.434,0.465-1.313,0.7-2.612,0.701l-1.724-0.001v2.09h19.194v-2.09h-1.582c-0.794,0-1.405-0.052-1.815-0.154
			c-0.811-0.2-1.294-0.764-1.475-1.72c-0.103-0.588-0.162-1.578-0.175-2.938v-7.817l3.365-6.574
			c1.945-3.802,3.747-6.463,5.344-7.898c1.185-0.993,2.335-1.523,3.418-1.574l0.411-0.019v-2.07h-13.628v2.089h1.002
			c1.105,0,1.924,0.438,2.508,1.342c0.408,0.613,0.614,1.481,0.614,2.578c0,1.429-0.419,2.967-1.243,4.57l-2.565,4.901
			l-5.332-10.256c-0.383-0.733-0.577-1.361-0.577-1.865c0-0.347,0-1.27,2.194-1.27h1.588V1.032h-19.18v2.089h1.301
			C180.706,3.121,181.953,4.12,182.981,6.178z M187.544,4.658c0.052-0.026,0.115-0.01,0.146,0.039
			c0.01,0.015,0.943,1.494,2.229,3.717c0.221,0.393,0.458,0.806,0.706,1.237c0.478,0.832,0.973,1.693,1.476,2.627l2.416,4.469
			c0,0.001,0.001,0.002,0.001,0.003l1.182,2.321c0.2,0.456,0.306,0.95,0.307,1.436l-0.013,1.242
			c-0.009,1.055-0.046,2.042-0.082,2.997c-0.019,0.502-0.037,0.983-0.049,1.437c-0.103,2.568-0.242,4.312-0.243,4.329
			c-0.005,0.058-0.053,0.102-0.111,0.102c-0.058,0-0.106-0.045-0.111-0.102c-0.001-0.017-0.14-1.761-0.243-4.328
			c-0.012-0.452-0.03-0.929-0.049-1.428c-0.036-0.958-0.073-1.948-0.083-3.008l-0.015-1.228c-0.009-0.346-0.093-0.7-0.242-1.02
			l-1.208-2.246l-2.316-4.524c-0.481-0.938-0.908-1.829-1.321-2.69c-0.217-0.454-0.425-0.887-0.626-1.295
			c-1.104-2.321-1.794-3.928-1.801-3.944C187.471,4.747,187.493,4.684,187.544,4.658z"/>
		<path class="st0" d="M250.301,3.121h0.596c0.761,0,1.29,0.048,1.718,0.155c0.833,0.203,1.302,0.749,1.474,1.718
			c0.104,0.607,0.163,1.597,0.176,2.94v7.574h-9.373V7.934c0-0.914,0.02-1.595,0.059-2.032c0.073-0.977,0.295-1.679,0.652-2.08
			c0.452-0.485,1.212-0.701,2.463-0.701l0.788,0.001V1.032h-18.11v2.089h1.582c0.796,0,1.405,0.052,1.816,0.155
			c0.833,0.202,1.301,0.749,1.474,1.717c0.103,0.607,0.162,1.597,0.176,2.94v6.781c0,0.861-0.558,1.272-0.69,1.378
			c-0.132,0.106-1.705,1.3-1.705,1.3s1.574,1.194,1.705,1.301c0.132,0.106,0.69,0.519,0.69,1.378v6.911
			c0,0.933-0.02,1.623-0.059,2.054c-0.085,0.978-0.307,1.673-0.653,2.058c-0.434,0.465-1.313,0.7-2.612,0.701l-1.724-0.001v2.09
			h18.11v-2.09h-0.576c-0.774,0-1.31-0.047-1.738-0.154c-0.811-0.2-1.294-0.764-1.476-1.727c-0.116-0.603-0.174-1.589-0.174-2.931
			v-9.359h9.373v9.359c0,0.915-0.02,1.606-0.059,2.053c-0.086,0.964-0.309,1.66-0.657,2.063c-0.426,0.469-1.247,0.697-2.509,0.697
			l-0.738-0.001v2.09h18.11v-2.09h-1.582c-0.795,0-1.405-0.052-1.815-0.154c-0.822-0.202-1.291-0.751-1.477-1.729
			c-0.115-0.583-0.174-1.569-0.174-2.929v-6.911c0-0.86,0.558-1.272,0.69-1.378c0.132-0.106,1.706-1.3,1.706-1.3
			s-1.574-1.194-1.706-1.301c-0.132-0.106-0.69-0.518-0.69-1.378V7.934c0-0.95,0.02-1.63,0.059-2.032
			c0.073-0.976,0.295-1.679,0.652-2.08c0.434-0.465,1.315-0.701,2.618-0.701l1.717,0.001V1.032h-18.11V3.121z M240.592,18.09
			c-0.007,1.346-0.015,2.871-0.049,4.269c-0.016,0.978-0.052,1.894-0.087,2.78c-0.019,0.479-0.036,0.924-0.05,1.346
			c-0.098,2.271-0.228,3.855-0.243,4.027l-0.064,0.74c-0.005,0.058-0.053,0.102-0.111,0.102c-0.058,0-0.106-0.044-0.111-0.102
			l-0.063-0.736c-0.001-0.008-0.14-1.624-0.243-4.031c-0.012-0.38-0.028-0.779-0.044-1.194l-0.006-0.14
			c-0.035-0.898-0.071-1.814-0.088-2.793c-0.034-1.397-0.042-2.922-0.049-4.268l-0.003-0.461l0.002-0.367
			c0.007-1.376,0.016-2.937,0.05-4.364c0.018-0.978,0.053-1.893,0.088-2.778c0.019-0.481,0.036-0.927,0.049-1.348
			c0.098-2.263,0.227-3.853,0.242-4.027l0.064-0.747c0.005-0.058,0.053-0.102,0.111-0.102c0.058,0,0.106,0.044,0.111,0.102
			l0.064,0.742c0.015,0.179,0.145,1.77,0.243,4.031c0.013,0.422,0.031,0.867,0.049,1.332c0.035,0.899,0.07,1.815,0.088,2.794
			c0.033,1.375,0.042,2.861,0.05,4.297l0.003,0.433L240.592,18.09z M258.139,17.245c0.007-1.371,0.016-2.925,0.05-4.347
			c0.017-0.959,0.052-1.858,0.086-2.728l0.003-0.067c0.018-0.465,0.035-0.91,0.048-1.331c0.089-2.07,0.207-3.59,0.24-4.006
			l0.066-0.767c0.005-0.058,0.054-0.102,0.112-0.102c0.058,0,0.106,0.045,0.112,0.102l0.063,0.742
			c0.001,0.009,0.139,1.646,0.242,4.031c0.013,0.422,0.03,0.869,0.048,1.335l0.003,0.065c0.034,0.869,0.068,1.768,0.086,2.727
			c0.035,1.417,0.043,2.965,0.05,4.331l0.003,0.399l-0.003,0.499c-0.008,1.415-0.016,2.878-0.048,4.232
			c-0.017,0.959-0.052,1.857-0.086,2.727l-0.011,0.284c-0.016,0.387-0.029,0.76-0.041,1.115c-0.104,2.414-0.242,4.023-0.244,4.034
			l-0.062,0.734c-0.005,0.057-0.054,0.102-0.112,0.102c-0.058,0-0.106-0.044-0.112-0.102l-0.064-0.736
			c-0.035-0.439-0.154-1.956-0.243-4.031c-0.011-0.355-0.025-0.726-0.041-1.112l-0.011-0.288c-0.034-0.87-0.068-1.769-0.085-2.728
			c-0.034-1.354-0.042-2.818-0.049-4.233V17.245z"/>
		<path class="st0" d="M302.705,21.475c-0.701,1.261-1.567,2.587-2.573,3.94c-2.182,2.924-4.045,4.776-5.551,5.511
			c-1.088,0.578-2.393,0.87-3.876,0.87h-2.254V17.709h0.416c0.699,0,1.282,0.108,1.732,0.321c0.689,0.329,1.406,0.888,2.128,1.658
			c0.89,0.981,1.597,2.111,2.1,3.358l0.109,0.27h1.611V10.069h-1.6l-0.114,0.255c-1.567,3.515-3.524,5.297-5.818,5.297l-0.565-0.002
			V3.121h3.142c0.727,0,1.352,0.062,1.88,0.188c1.02,0.187,2.238,1.026,3.615,2.488c2.079,2.288,3.865,4.82,5.309,7.527l0.122,0.228
			h1.498V1.032h-29.714v2.089h1.582c0.795,0,1.405,0.052,1.816,0.155c0.833,0.203,1.302,0.749,1.474,1.718
			c0.104,0.607,0.163,1.597,0.176,2.94v6.781c0,0.861-0.558,1.272-0.69,1.378c-0.132,0.106-1.706,1.3-1.706,1.3
			s1.574,1.194,1.706,1.301c0.132,0.106,0.69,0.519,0.69,1.378v6.911c0,0.933-0.02,1.623-0.059,2.054
			c-0.085,0.978-0.307,1.673-0.653,2.058c-0.434,0.465-1.313,0.7-2.611,0.701l-1.724-0.001v2.09h30.036V21.253h-1.513
			L302.705,21.475z M284.445,18.086c-0.007,1.347-0.016,2.874-0.049,4.273c-0.016,0.998-0.055,1.952-0.088,2.793
			c-0.018,0.466-0.035,0.911-0.049,1.333c-0.103,2.401-0.242,4.023-0.244,4.034l-0.062,0.734c-0.005,0.058-0.054,0.102-0.112,0.102
			s-0.106-0.044-0.112-0.102l-0.063-0.736c-0.001-0.008-0.14-1.631-0.243-4.031c-0.014-0.423-0.031-0.87-0.049-1.337
			c-0.034-0.84-0.072-1.793-0.088-2.79c-0.035-1.402-0.042-2.933-0.048-4.284l-0.003-0.446l0.003-0.555
			c0.009-1.396,0.017-2.84,0.049-4.175c0.018-0.999,0.055-1.953,0.088-2.795c0.018-0.465,0.035-0.91,0.049-1.331
			c0.103-2.385,0.241-4.022,0.243-4.034l0.062-0.74c0.005-0.057,0.054-0.102,0.112-0.102s0.106,0.044,0.112,0.102l0.064,0.742
			c0.035,0.441,0.152,1.962,0.241,4.031c0.014,0.422,0.031,0.866,0.049,1.331c0.033,0.841,0.07,1.795,0.088,2.796
			c0.032,1.33,0.041,2.768,0.049,4.159l0.003,0.572L284.445,18.086z"/>
		<path class="st0" d="M326.162,31.642c-0.811-0.2-1.294-0.764-1.476-1.727c-0.116-0.603-0.174-1.589-0.174-2.931v-8.16h1.083
			l6.539,15.061h11.78v-2.073l-0.415-0.016c-0.873-0.034-1.572-0.186-2.062-0.443c-0.865-0.504-1.59-1.502-2.164-2.981l-4.314-9.795
			c1.774-0.485,3.172-1.376,4.16-2.651c1.267-1.614,1.909-3.674,1.909-6.124c0-1.986-0.456-3.75-1.355-5.245
			c-1.056-1.734-2.7-2.843-4.88-3.293c-0.723-0.156-2.272-0.232-4.735-0.232h-19.692v2.089h1.582c0.795,0,1.405,0.052,1.815,0.155
			c0.833,0.203,1.302,0.749,1.473,1.711c0.042,0.334,0.082,4.72,0.115,9.728c0,0.861-0.558,1.272-0.69,1.378
			c-0.132,0.106-1.705,1.3-1.705,1.3s1.574,1.194,1.705,1.301c0.132,0.106,0.69,0.519,0.69,1.378
			c0.011,2.294,0.054,4.888,0.061,6.911c0,0.932-0.02,1.623-0.059,2.055c-0.085,0.978-0.307,1.672-0.653,2.058
			c-0.434,0.465-1.313,0.7-2.611,0.701l-1.724-0.001v2.09h18.266v-2.09h-0.653C327.182,31.796,326.572,31.744,326.162,31.642z
			 M333.707,15.338l0.501-0.62c0.205-0.245,0.451-0.63,0.676-1.059c0.532-0.995,0.84-2.339,0.822-3.594
			c0.005-0.668-0.067-1.312-0.222-1.972c-0.127-0.541-0.33-1.088-0.602-1.627c-0.232-0.438-0.472-0.814-0.676-1.057l-0.498-0.619
			c-0.033-0.041-0.034-0.099-0.001-0.14c0.032-0.041,0.089-0.055,0.137-0.031l0.258,0.126c0.032,0.016,0.201,0.103,0.459,0.288
			c0.231,0.173,0.651,0.487,1.028,0.972c0.291,0.365,0.694,0.969,0.962,1.777c0.289,0.814,0.361,1.689,0.369,2.279
			c-0.013,0.855-0.138,1.621-0.371,2.281c-0.267,0.806-0.669,1.411-0.96,1.776c-0.352,0.451-0.716,0.739-1.029,0.973
			c-0.259,0.185-0.426,0.272-0.457,0.288l-0.259,0.128c-0.016,0.007-0.033,0.011-0.049,0.011c-0.033,0-0.066-0.015-0.087-0.042
			C333.673,15.437,333.674,15.378,333.707,15.338z M333.924,24.899c0.657,1.378,1.281,2.825,1.711,3.97v0
			c0.354,0.953,0.577,1.668,0.636,1.864l0.116,0.393c0.016,0.053-0.01,0.109-0.059,0.132c-0.016,0.007-0.032,0.011-0.048,0.011
			c-0.035,0-0.07-0.017-0.092-0.048l-0.226-0.326c-0.013-0.016-0.477-0.693-1.062-1.674c-0.629-1.063-1.365-2.456-2.022-3.821
			c-0.651-1.365-1.274-2.812-1.71-3.97c-0.418-1.123-0.642-1.879-0.642-1.883l-0.112-0.376c-0.016-0.053,0.01-0.109,0.059-0.133
			c0.049-0.023,0.108-0.008,0.14,0.037l0.227,0.329c0.122,0.179,0.54,0.8,1.061,1.675C332.531,22.146,333.268,23.538,333.924,24.899
			z M324.512,3.121h1.386c1.631,0,2.856,0.424,3.64,1.256c1.103,1.195,1.662,3.095,1.662,5.648c0,4.514-1.635,6.709-4.999,6.709
			h-1.689V3.121z M320.209,18.137c-0.008,1.411-0.016,2.871-0.049,4.222c-0.016,0.999-0.054,1.954-0.088,2.796
			c-0.018,0.464-0.035,0.909-0.048,1.33c-0.089,2.075-0.208,3.592-0.241,4.008l-0.066,0.759c-0.005,0.058-0.054,0.102-0.112,0.102
			c-0.058,0-0.106-0.045-0.112-0.102l-0.063-0.736c-0.001-0.008-0.139-1.617-0.243-4.031c-0.011-0.357-0.025-0.729-0.041-1.117
			l-0.009-0.221c-0.038-0.959-0.071-1.831-0.088-2.789c-0.033-1.358-0.041-2.825-0.048-4.243v-0.908
			c0.008-1.441,0.016-2.931,0.05-4.309c0.017-0.959,0.05-1.834,0.088-2.796c0.018-0.465,0.035-0.909,0.048-1.33
			c0.103-2.385,0.241-4.022,0.243-4.034l0.062-0.74c0.005-0.057,0.054-0.102,0.112-0.102c0.058,0,0.106,0.044,0.112,0.102
			l0.064,0.742c0.035,0.442,0.153,1.962,0.242,4.031c0.013,0.423,0.03,0.869,0.048,1.336l0.003,0.065
			c0.034,0.868,0.068,1.767,0.086,2.725c0.035,1.426,0.043,2.983,0.05,4.358l0.003,0.372L320.209,18.137z"/>
		<path class="st0" d="M349.027,3.121h1.583c0.796,0,1.406,0.052,1.815,0.155c0.833,0.203,1.302,0.749,1.474,1.717
			c0.103,0.605,0.162,1.595,0.175,2.94v6.781c0,0.861-0.558,1.272-0.69,1.378c-0.132,0.106-1.705,1.3-1.705,1.3
			s1.574,1.194,1.705,1.301c0.132,0.106,0.69,0.519,0.69,1.378v6.911c0,0.931-0.019,1.622-0.058,2.054
			c-0.086,0.979-0.308,1.674-0.653,2.059c-0.434,0.465-1.313,0.701-2.612,0.701l-1.725-0.001v2.09h19.196v-2.09h-1.583
			c-0.795,0-1.405-0.052-1.815-0.154c-0.811-0.2-1.294-0.764-1.476-1.729c-0.115-0.582-0.173-1.567-0.173-2.929v-6.911
			c0-0.86,0.558-1.272,0.69-1.378c0.132-0.106,1.706-1.3,1.706-1.3s-1.574-1.194-1.706-1.301c-0.132-0.106-0.69-0.518-0.69-1.378
			V7.934c0-0.913,0.019-1.594,0.058-2.032c0.074-0.978,0.296-1.68,0.653-2.08c0.435-0.465,1.315-0.701,2.619-0.701l1.718,0.001
			V1.032h-19.196V3.121z M358.021,17.212c0.008-1.442,0.016-2.934,0.049-4.314c0.018-0.997,0.055-1.949,0.088-2.789l0.009-0.219
			c0.016-0.388,0.029-0.761,0.041-1.118c0.103-2.385,0.241-4.022,0.243-4.034l0.062-0.74c0.005-0.057,0.054-0.102,0.112-0.102
			s0.106,0.044,0.112,0.102l0.064,0.742c0.035,0.442,0.153,1.962,0.242,4.031c0.013,0.422,0.03,0.869,0.048,1.335l0.003,0.065
			c0.034,0.869,0.068,1.768,0.086,2.726c0.035,1.424,0.043,2.979,0.05,4.352l0.003,0.378l-0.003,0.486
			c-0.008,1.419-0.016,2.886-0.049,4.245c-0.016,0.958-0.051,1.856-0.085,2.725l-0.003,0.064c-0.019,0.467-0.036,0.914-0.049,1.336
			c-0.089,2.075-0.208,3.592-0.241,4.008l-0.066,0.76c-0.005,0.058-0.054,0.102-0.112,0.102s-0.106-0.045-0.112-0.102l-0.063-0.736
			c-0.001-0.008-0.139-1.617-0.243-4.031c-0.011-0.355-0.025-0.727-0.041-1.112l-0.011-0.286c-0.034-0.87-0.068-1.769-0.086-2.728
			c-0.033-1.356-0.041-2.822-0.048-4.239V17.212z"/>
		<path class="st0" d="M373.75,16.063h1.63l0.086-0.318c1.332-4.887,3.389-8.774,6.102-11.546c0.733-0.708,1.574-1.061,2.566-1.078
			h0.073v11.594c0,0.861-0.558,1.272-0.69,1.378c-0.132,0.106-1.705,1.3-1.705,1.3s1.574,1.194,1.705,1.301
			c0.132,0.106,0.69,0.519,0.69,1.378v6.911c0,0.931-0.019,1.622-0.058,2.054c-0.086,0.979-0.307,1.674-0.653,2.059
			c-0.434,0.465-1.313,0.7-2.612,0.701l-1.725-0.001v2.09h19.196v-2.09h-1.583c-0.782,0-1.393-0.052-1.816-0.155
			c-0.833-0.202-1.302-0.749-1.476-1.726c-0.115-0.601-0.173-1.587-0.173-2.931v-6.911c0-0.86,0.558-1.272,0.69-1.378
			c0.132-0.106,1.706-1.3,1.706-1.3s-1.574-1.194-1.706-1.301c-0.132-0.106-0.69-0.518-0.69-1.378V3.121h0.134
			c1.001,0,1.883,0.421,2.692,1.285c1.658,1.781,3.039,3.836,4.108,6.115c1.001,2.059,1.642,3.806,1.901,5.191l0.066,0.352h1.659
			V1.032H373.75V16.063z M388.205,17.248c0.007-1.372,0.016-2.928,0.05-4.35c0.017-0.959,0.052-1.857,0.086-2.727l0.003-0.065
			c0.018-0.466,0.035-0.913,0.049-1.335c0.089-2.07,0.206-3.59,0.24-4.006l0.066-0.767c0.005-0.058,0.054-0.102,0.112-0.102
			s0.106,0.045,0.112,0.102l0.063,0.742c0.001,0.009,0.139,1.646,0.242,4.031c0.011,0.354,0.025,0.723,0.041,1.108l0.009,0.224
			c0.033,0.842,0.07,1.796,0.088,2.795c0.032,1.338,0.041,2.784,0.049,4.182l0.003,0.548l-0.003,0.487
			c-0.008,1.419-0.016,2.886-0.048,4.243c-0.016,0.998-0.055,1.952-0.088,2.794c-0.018,0.466-0.035,0.911-0.049,1.332
			c-0.104,2.414-0.242,4.023-0.244,4.034l-0.062,0.733c-0.005,0.057-0.054,0.102-0.112,0.102s-0.106-0.044-0.112-0.102l-0.064-0.736
			c-0.035-0.439-0.154-1.956-0.243-4.031c-0.013-0.422-0.03-0.868-0.048-1.334c-0.034-0.841-0.072-1.794-0.088-2.793
			c-0.034-1.357-0.042-2.824-0.049-4.243V17.248z"/>
		<path class="st0" d="M436.945,31.721c-0.731-0.144-1.428-0.685-2.08-1.621c-0.38-0.509-0.878-1.518-1.481-3L422.543,0.435
			l-0.109-0.268h-1.449l-9.7,23.723c-2.127,5.144-4.275,7.804-6.385,7.906l-0.411,0.019v2.07h13.388v-2.059l-0.4-0.029
			c-0.34-0.025-0.535-0.046-0.69-0.063l-0.169-0.016c-1.158-0.185-1.99-0.721-2.546-1.64c-0.681-1.115-1.027-2.4-1.027-3.819
			c0-0.398,0.039-0.805,0.117-1.214h8.91l1.405,3.548c0.235,0.598,0.354,1.108,0.354,1.515c0,0.474-0.138,0.866-0.413,1.188
			c-0.307,0.337-0.731,0.501-1.296,0.501h-2.113v2.09h19v-2.09h-0.957C437.619,31.796,437.242,31.77,436.945,31.721z
			 M413.753,22.955l3.689-9.359l3.723,9.359H413.753z M430.274,30.217c-0.014,0.006-0.029,0.008-0.042,0.008
			c-0.04,0-0.079-0.022-0.099-0.059l-0.294-0.549c-0.17-0.322-0.761-1.451-1.517-3.051c-0.147-0.325-0.306-0.666-0.473-1.022
			c-0.321-0.689-0.647-1.387-0.975-2.142c-0.461-1.035-0.933-2.164-1.39-3.257l-0.291-0.706c-0.46-1.142-0.933-2.316-1.347-3.411
			c-0.288-0.748-0.542-1.455-0.788-2.14l-0.053-0.147c-0.123-0.342-0.24-0.67-0.355-0.981c-0.585-1.659-0.961-2.884-1.063-3.219
			l-0.183-0.62c-0.016-0.055,0.012-0.113,0.065-0.135c0.054-0.022,0.114,0,0.141,0.051l0.296,0.553
			c0.003,0.005,0.654,1.224,1.517,3.052c0.147,0.326,0.306,0.667,0.473,1.024c0.298,0.64,0.636,1.365,0.975,2.141
			c0.495,1.112,1.02,2.369,1.443,3.379l0.261,0.636c0.425,1.053,0.907,2.246,1.327,3.359c0.291,0.75,0.545,1.46,0.79,2.148
			l0.022,0.062c0.132,0.37,0.259,0.724,0.382,1.058l0.001,0.001c0.677,1.923,1.065,3.231,1.067,3.24l0.176,0.593
			C430.354,30.137,430.326,30.195,430.274,30.217z"/>
		<path class="st0" d="M456.325,19.605h1.764c1.531,0,2.437,0.396,2.768,1.207c0.275,0.69,0.414,2.016,0.414,3.941
			c0,1.982-0.138,3.522-0.411,4.581c-0.542,2.164-1.832,3.216-3.943,3.216c-1.82,0-3.104-0.919-3.926-2.809
			c-0.883-2.028-1.458-4.73-1.709-8.043l-0.015-0.097c-0.144-1.573-0.239-4.678-0.057-7.362l0.006,0.007l0.073-0.934
			c0.258-3.307,0.837-6.015,1.723-8.051c0.821-1.89,2.039-2.809,3.724-2.809c2.33,0,5.584,1.28,7.602,4.142l0.142,0.199
			c1.383,1.944,2.951,4.148,3.907,6.65l0.139,0.362l1.654-0.438l-0.386-12.502h-1.346l-0.129,0.155
			c-1.109,1.326-2.543,2.021-3.387,2.021c-0.539,0-1.567-0.261-2.551-0.834c-0.708-0.413-1.466-0.824-1.979-1.075
			C458.958,0.423,456.877,0,454.838,0c-4.047,0-7.372,1.545-9.883,4.592c-2.032,2.479-3.464,5.571-3.881,9.868
			c-0.128,1.237-0.742,1.633-0.742,1.633l-1.705,1.3l1.547,1.18c0.36,0.336,0.803,0.707,0.92,1.718
			c0.272,2.079,0.74,3.843,1.455,5.55c1.281,3.025,3.151,5.334,5.555,6.861c2.295,1.47,4.676,2.216,7.077,2.216
			c1.891,0,3.433-0.236,4.582-0.7c2.815-1.127,4.738-1.699,5.715-1.699c1.535,0,2.776,0.505,3.79,1.543l0.302,0.309l0.95-0.931
			l-0.033-0.219c-0.224-1.475-0.337-3.977-0.337-7.438c0-2.572,0.259-4.33,0.771-5.226c0.364-0.641,1.127-0.953,2.33-0.953h2.127
			v-2.09h-19.054V19.605z M446.812,22.434c0.325,1.679,0.72,3.095,1.174,4.21c0.443,1.115,0.921,2.113,1.347,2.811
			c0.346,0.592,0.589,0.944,0.635,1.009l0.693,0.977c0.035,0.048,0.025,0.115-0.022,0.152c-0.021,0.016-0.045,0.024-0.069,0.024
			c-0.031,0-0.061-0.013-0.084-0.038l-1.051-1.192c-0.128-0.143-0.323-0.36-0.534-0.653c-0.231-0.294-0.502-0.686-0.802-1.163
			c-0.368-0.582-0.649-1.093-0.885-1.611c-0.683-1.451-1.182-2.904-1.482-4.317c-0.347-1.544-0.547-3.337-0.577-5.185
			c0.033-1.878,0.227-3.621,0.578-5.186c0.304-1.42,0.802-2.873,1.483-4.317c0.3-0.662,0.648-1.236,0.883-1.609
			c0.303-0.48,0.566-0.862,0.802-1.165c0.208-0.284,0.394-0.495,0.532-0.649l1.063-1.207c0.041-0.044,0.106-0.051,0.153-0.014
			c0.047,0.037,0.056,0.104,0.022,0.152l-0.703,0.989c-0.003,0.004-0.261,0.369-0.636,1.01c-0.43,0.703-0.908,1.7-1.347,2.81v0.001
			c-0.459,1.128-0.855,2.544-1.175,4.21c-0.302,1.503-0.451,3.176-0.442,4.975C446.363,19.266,446.512,20.94,446.812,22.434z
			 M465.208,22.252c0.115-0.813,0.251-1.365,0.253-1.369l0.06-0.244c0.012-0.05,0.056-0.085,0.108-0.085
			c0.051,0,0.096,0.035,0.108,0.085l0.062,0.25c0.015,0.061,0.142,0.596,0.251,1.362c0.115,0.852,0.182,1.938,0.186,2.982
			c-0.003,1.047-0.07,2.134-0.185,2.982c-0.118,0.83-0.253,1.368-0.254,1.371l-0.06,0.24c-0.012,0.05-0.057,0.084-0.108,0.084
			s-0.096-0.035-0.108-0.085l-0.061-0.248c0,0-0.137-0.541-0.252-1.362c-0.115-0.848-0.182-1.934-0.185-2.982
			C465.026,24.19,465.093,23.103,465.208,22.252z"/>
		<path class="st0" d="M506.014,21.253l-0.123,0.222c-0.699,1.258-1.565,2.584-2.573,3.94c-2.183,2.924-4.045,4.776-5.55,5.511
			c-1.089,0.578-2.394,0.87-3.876,0.87h-2.253V17.709h0.416c0.699,0,1.283,0.108,1.732,0.321c0.688,0.329,1.406,0.888,2.128,1.658
			c0.89,0.98,1.596,2.11,2.099,3.358l0.108,0.27h1.612V10.069h-1.601l-0.114,0.256c-1.566,3.514-3.523,5.296-5.817,5.296
			l-0.564-0.002V3.121h3.141c0.728,0,1.352,0.062,1.881,0.188c1.02,0.187,2.239,1.026,3.615,2.488c2.08,2.288,3.866,4.82,5.31,7.527
			l0.121,0.228h1.499V1.032H477.49v2.089h1.583c0.795,0,1.406,0.052,1.817,0.155c0.833,0.203,1.3,0.749,1.473,1.717
			c0.103,0.609,0.163,1.6,0.176,2.94v6.781c0,0.861-0.558,1.272-0.69,1.378c-0.132,0.106-1.706,1.3-1.706,1.3
			s1.574,1.194,1.706,1.301c0.132,0.106,0.69,0.519,0.69,1.378v6.911c0,0.923-0.02,1.614-0.059,2.054
			c-0.085,0.978-0.306,1.673-0.652,2.058c-0.435,0.465-1.314,0.701-2.613,0.701l-1.725-0.001v2.09h30.038V21.253H506.014z
			 M487.619,18.122c-0.008,1.416-0.016,2.881-0.048,4.237c-0.016,0.997-0.055,1.95-0.088,2.79c-0.018,0.467-0.035,0.913-0.049,1.335
			c-0.104,2.414-0.242,4.023-0.244,4.034l-0.062,0.733c-0.005,0.057-0.054,0.102-0.112,0.102s-0.106-0.044-0.112-0.102l-0.064-0.736
			c-0.035-0.439-0.154-1.956-0.243-4.031c-0.013-0.424-0.03-0.87-0.049-1.337l-0.003-0.064c-0.034-0.869-0.068-1.767-0.085-2.726
			c-0.034-1.36-0.042-2.83-0.049-4.251V17.27c0.007-1.379,0.016-2.942,0.05-4.371c0.017-0.958,0.052-1.857,0.086-2.726l0.003-0.067
			c0.018-0.466,0.035-0.912,0.049-1.334c0.089-2.07,0.206-3.59,0.24-4.006l0.066-0.767c0.005-0.058,0.054-0.102,0.112-0.102
			s0.106,0.045,0.112,0.102l0.063,0.742c0.001,0.009,0.139,1.646,0.242,4.031c0.011,0.357,0.025,0.729,0.041,1.117l0.009,0.221
			c0.033,0.84,0.07,1.792,0.088,2.789c0.032,1.333,0.041,2.774,0.049,4.168l0.001,0.182v0l0.002,0.38L487.619,18.122z"/>
	</g>
	<g>
		<path class="st1" d="M161.13,61.396h-8.518V50.843h8.361v2h-6.369v1.921h3.686v2.048h-3.686v2.583h6.525V61.396z"/>
		<path class="st1" d="M174.98,58.246c-0.01,1.029-0.416,1.843-1.216,2.441c-0.8,0.599-1.932,0.898-3.396,0.898
			c-2.018,0-3.759-0.53-5.223-1.591l1.145-1.638c1.161,0.798,2.499,1.202,4.016,1.212c0.931-0.031,1.618-0.163,2.062-0.394
			s0.672-0.546,0.683-0.945c0.031-0.389-0.188-0.706-0.659-0.953c-0.471-0.247-1.208-0.422-2.212-0.528
			c-1.768-0.189-2.949-0.548-3.545-1.079s-0.889-1.215-0.878-2.055c0.021-0.903,0.449-1.615,1.286-2.134
			c0.836-0.52,1.861-0.79,3.074-0.811c1.422,0,2.824,0.415,4.204,1.244l-1.098,1.606c-0.931-0.546-2.013-0.819-3.247-0.819
			c-0.533-0.01-1.038,0.053-1.514,0.189c-0.476,0.136-0.703,0.378-0.682,0.725c-0.021,0.315,0.183,0.564,0.612,0.748
			c0.429,0.184,1.161,0.328,2.196,0.433c1.631,0.147,2.771,0.562,3.419,1.244S174.98,57.458,174.98,58.246z"/>
		<path class="st1" d="M187.608,52.844h-3.529v8.552h-1.992v-8.552h-3.514v-2h9.035V52.844z"/>
		<path class="st1" d="M201.41,61.396h-2.211l-1.067-2.299h-5.349l-1.098,2.299h-2.212l4.973-10.553h1.992L201.41,61.396z
			 M197.176,57.065l-1.726-3.67l-1.741,3.67H197.176z"/>
		<path class="st1" d="M212.297,52.844h-3.529v8.552h-1.992v-8.552h-3.514v-2h9.035V52.844z"/>
		<path class="st1" d="M224.798,61.396h-8.518V50.843h8.361v2h-6.369v1.921h3.686v2.048h-3.686v2.583h6.525V61.396z"/>
		<path class="st1" d="M246.271,56.104c0,1.459-0.515,2.707-1.545,3.741c-1.03,1.034-2.272,1.551-3.726,1.551h-4.611V50.843h4.611
			c1.454,0,2.695,0.515,3.726,1.544C245.756,53.416,246.271,54.655,246.271,56.104z M244.248,56.104
			c0-0.893-0.316-1.659-0.949-2.299c-0.633-0.641-1.399-0.961-2.298-0.961h-2.619v6.552h2.619c0.899,0,1.666-0.32,2.298-0.96
			C243.931,57.794,244.248,57.017,244.248,56.104z"/>
		<path class="st1" d="M250.867,61.396V50.843h1.992v10.553H250.867z"/>
		<path class="st1" d="M267.008,58.246c-0.011,1.029-0.416,1.843-1.216,2.441c-0.8,0.599-1.932,0.898-3.396,0.898
			c-2.018,0-3.759-0.53-5.223-1.591l1.145-1.638c1.161,0.798,2.499,1.202,4.016,1.212c0.931-0.031,1.618-0.163,2.062-0.394
			s0.672-0.546,0.683-0.945c0.031-0.389-0.188-0.706-0.658-0.953c-0.471-0.247-1.208-0.422-2.212-0.528
			c-1.768-0.189-2.949-0.548-3.545-1.079c-0.597-0.53-0.89-1.215-0.879-2.055c0.021-0.903,0.449-1.615,1.286-2.134
			c0.837-0.52,1.861-0.79,3.074-0.811c1.423,0,2.824,0.415,4.204,1.244l-1.098,1.606c-0.931-0.546-2.014-0.819-3.247-0.819
			c-0.533-0.01-1.038,0.053-1.514,0.189s-0.703,0.378-0.683,0.725c-0.021,0.315,0.183,0.564,0.612,0.748
			c0.429,0.184,1.16,0.328,2.195,0.433c1.632,0.147,2.771,0.562,3.42,1.244S267.008,57.458,267.008,58.246z"/>
		<path class="st1" d="M279.698,52.844h-3.529v8.552h-1.992v-8.552h-3.514v-2h9.035V52.844z"/>
		<path class="st1" d="M283.838,61.396V50.843h1.992v10.553H283.838z"/>
		<path class="st1" d="M299.163,61.396h-8.518V50.843h1.992v8.552h6.525V61.396z"/>
		<path class="st1" d="M311.9,61.396h-8.518V50.843h1.992v8.552h6.525V61.396z"/>
		<path class="st1" d="M324.59,61.396h-8.518V50.843h8.36v2h-6.368v1.921h3.686v2.048h-3.686v2.583h6.525V61.396z"/>
		<path class="st1" d="M338.973,61.396h-2.321l-2.321-3.953h-3.247v3.953h-1.992V50.843h6.416c0.92,0,1.701,0.323,2.345,0.969
			c0.643,0.646,0.965,1.42,0.965,2.323c0,0.704-0.204,1.339-0.612,1.906c-0.407,0.567-0.951,0.971-1.631,1.213L338.973,61.396z
			 M336.825,54.135c0-0.347-0.128-0.648-0.385-0.906c-0.256-0.257-0.567-0.386-0.933-0.386h-4.424v2.599h4.424
			c0.365,0,0.677-0.128,0.933-0.386C336.697,54.799,336.825,54.492,336.825,54.135z"/>
		<path class="st1" d="M353.796,50.843l-4.973,6.3v4.252h-1.992v-4.252l-4.972-6.3h2.541l3.435,4.332l3.42-4.332H353.796z"/>
	</g>
</g>
</svg>
