<?xml version="1.0" encoding="utf-8"?>
<!-- Generator: Adobe Illustrator 22.1.0, SVG Export Plug-In . SVG Version: 6.00 Build 0)  -->
<svg version="1.1" id="Layer_1" xmlns="http://www.w3.org/2000/svg" xmlns:xlink="http://www.w3.org/1999/xlink" x="0px" y="0px"
	 viewBox="0 0 671.65 196.09" style="enable-background:new 0 0 671.65 196.09;" xml:space="preserve">
<style type="text/css">
	.st0{fill:#336C6A;}
	.st1{fill:#FFF5EA;}
</style>
<title>logo</title>
<path class="st0" d="M556.86,11c0.006,2.708,1.019,5.316,2.84,7.32h-8.14c-1.98-0.966-3.17-3.043-3-5.24
	c0.03-0.563-0.24-1.099-0.71-1.41c-0.475-0.318-1.083-0.363-1.6-0.12l-0.17,0.11c-0.07,0.06-6.2,5.21-18.08,6.66H152.46
	c-11.88-1.45-16.81-6.6-16.87-6.66c-0.055-0.045-0.115-0.082-0.18-0.11c-0.517-0.243-1.125-0.198-1.6,0.12
	c-0.467,0.314-0.736,0.848-0.71,1.41c0.17,2.197-1.02,4.274-3,5.24h-8.15c1.824-2.003,2.84-4.611,2.85-7.32c0-6.075-4.925-11-11-11
	c-4,0-7,1.82-9.66,5.73l-0.51,0.76c-2.09,3.16-4.47,6.74-8.3,6.74c-1.172,0.047-2.293-0.484-3-1.42
	c-0.325-0.384-0.493-0.877-0.47-1.38c0.326-0.98-0.205-2.039-1.185-2.365S88.636,8.27,88.31,9.25l0,0
	c-0.429,1.656-0.059,3.417,1,4.76c1.412,1.926,3.672,3.045,6.06,3c4.09,0,6.89-2.4,9-5.05c0,0,0,0.05,0,0.08
	c1.076,2.509,3.54,4.14,6.27,4.15h0.35c1.033-0.052,1.828-0.932,1.775-1.965c-0.052-1.033-0.932-1.827-1.965-1.775
	c-1.299,0.046-2.492-0.714-3-1.91c-0.663-1.663-0.197-3.563,1.16-4.73l0,0c1.26-1.3,3-2.023,4.81-2
	c4.021,0.002,7.278,3.264,7.276,7.284c-0.002,4.017-3.258,7.273-7.276,7.276c-0.073-0.005-0.147-0.005-0.22,0H61.09
	c-1.038,0.035-1.851,0.904-1.816,1.942c0.032,0.943,0.757,1.716,1.696,1.808h559.57c1.054,0.05,1.948-0.764,1.998-1.818
	c0.001-0.021,0.002-0.042,0.002-0.062c0-1.033-0.837-1.87-1.87-1.87h-52.56c-0.077-0.005-0.153-0.005-0.23,0
	c-4.021-0.002-7.278-3.264-7.276-7.284c0.002-4.017,3.258-7.273,7.276-7.276c1.81-0.023,3.55,0.7,4.81,2l0,0
	c1.363,1.164,1.83,3.068,1.16,4.73c-0.504,1.2-1.699,1.961-3,1.91c-1.033-0.055-1.915,0.737-1.97,1.77
	c-0.055,1.033,0.737,1.915,1.77,1.97h0.36c2.727-0.012,5.187-1.642,6.26-4.15v-0.08c2.13,2.65,4.92,5.05,9,5.05
	c2.367,0.029,4.603-1.089,6-3c1.053-1.346,1.423-3.104,1-4.76c-0.256-1.006-1.279-1.615-2.285-1.359
	c-1.006,0.256-1.615,1.279-1.359,2.285c0.022,0.086,0.05,0.171,0.084,0.253c0.023,0.503-0.145,0.996-0.47,1.38
	c-0.702,0.942-1.826,1.474-3,1.42c-3.83,0-6.21-3.58-8.31-6.74l-0.5-0.76C574.79,1.82,571.72,0,567.76,0
	C561.724,0.055,556.86,4.964,556.86,11z"/>
<path class="st0" d="M124.78,185.07c-0.01-2.709-1.026-5.317-2.85-7.32h8.15c1.98,0.966,3.17,3.043,3,5.24
	c-0.036,0.894,0.66,1.648,1.554,1.684c0.261,0.01,0.52-0.042,0.756-0.154c0.067-0.028,0.128-0.069,0.18-0.12
	c0.06-0.05,5-5.2,16.87-6.65h375.52c11.88,1.45,18,6.6,18.08,6.65c0.05,0.049,0.107,0.089,0.17,0.12
	c0.517,0.243,1.125,0.198,1.6-0.12c0.468-0.312,0.738-0.848,0.71-1.41c-0.17-2.197,1.02-4.274,3-5.24h8.14
	c-4.054,4.525-3.672,11.479,0.853,15.533c2.014,1.805,4.623,2.804,7.327,2.807c4,0,7-1.82,9.67-5.72l0.5-0.77
	c2.1-3.16,4.48-6.73,8.31-6.73c1.172-0.056,2.295,0.472,3,1.41c0.327,0.387,0.495,0.884,0.47,1.39
	c-0.396,0.96,0.062,2.059,1.021,2.455c0.96,0.396,2.059-0.061,2.455-1.021c0.034-0.082,0.062-0.167,0.084-0.253
	c0.424-1.656,0.055-3.415-1-4.76c-1.397-1.911-3.633-3.029-6-3c-4.1,0-6.89,2.39-9,5v-0.08c-1.07-2.512-3.53-4.147-6.26-4.16h-0.36
	c-1.033,0.055-1.825,0.937-1.77,1.97s0.937,1.825,1.97,1.77l0,0c1.302-0.047,2.497,0.718,3,1.92c0.67,1.662,0.203,3.566-1.16,4.73
	c0,0,0,0,0,0.05c-1.259,1.301-3,2.025-4.81,2c-4.018-0.149-7.154-3.527-7.005-7.545c0.141-3.809,3.196-6.864,7.005-7.005
	c0.077,0.005,0.153,0.005,0.23,0h52.56c1.034-0.005,1.87-0.846,1.87-1.88c-0.021-1.055-0.893-1.893-1.948-1.872
	c-0.017,0-0.035,0.001-0.052,0.002H60.97c-0.99,0.054-1.762,0.878-1.75,1.87c0,1.034,0.836,1.875,1.87,1.88h52.44
	c0.073,0.005,0.147,0.005,0.22,0c4.018-0.149,7.396,2.987,7.545,7.005c0.149,4.018-2.987,7.396-7.005,7.545
	c-0.18,0.007-0.36,0.007-0.54,0c-1.81,0.025-3.551-0.699-4.81-2v-0.05c-1.357-1.167-1.823-3.067-1.16-4.73
	c0.505-1.2,1.699-1.964,3-1.92c1.033,0.052,1.912-0.742,1.965-1.775s-0.742-1.913-1.775-1.965h-0.35
	c-2.734,0.009-5.199,1.645-6.27,4.16c0,0,0,0.05,0,0.08c-2.13-2.66-4.93-5-9-5c-2.388-0.045-4.648,1.074-6.06,3
	c-1.061,1.342-1.431,3.104-1,4.76c0.326,0.98,1.385,1.511,2.365,1.185s1.511-1.385,1.185-2.365l0,0
	c-0.02-0.505,0.147-1.001,0.47-1.39c0.709-0.933,1.83-1.459,3-1.41c3.83,0,6.21,3.57,8.3,6.73l0.51,0.77
	c2.63,3.9,5.7,5.72,9.66,5.72c6.075,0,11-4.925,11-11C124.78,185.083,124.78,185.077,124.78,185.07z"/>
<path class="st1" d="M193.99,50.19c0.093-0.801-0.482-1.525-1.283-1.618c-0.105-0.012-0.212-0.013-0.317-0.002h-15
	c-0.802-0.083-1.519,0.501-1.602,1.303c-0.011,0.106-0.01,0.212,0.002,0.317c0,0.79,0.77,1.74,1.84,3.06c1.42,1.74,1.09,3.9,1.09,6
	v77.36c0,2.14,0.34,4.3-1.07,6c-1.09,1.34-1.86,2.28-1.86,3.07c-0.099,0.795,0.465,1.519,1.26,1.618
	c0.113,0.014,0.227,0.015,0.34,0.002h15c0.796,0.089,1.513-0.484,1.602-1.28c0.013-0.113,0.012-0.227-0.002-0.34
	c0-0.79-0.77-1.73-1.84-3.05c-1.43-1.75-1.09-3.9-1.09-6.05V59.29c0-2.14-0.33-4.3,1.08-6C193.22,51.89,193.99,50.98,193.99,50.19z
	 M239.99,48.57h-32.63c-0.802-0.088-1.523,0.49-1.611,1.291c-0.012,0.109-0.012,0.219,0.001,0.329c0,0.79,0.78,1.74,1.85,3.06
	c1.42,1.74,1.08,3.9,1.08,6v77.36c0,2.14,0.34,4.3-1.07,6c-1.08,1.32-1.86,2.27-1.86,3.06c-0.099,0.795,0.464,1.519,1.259,1.619
	c0.117,0.015,0.235,0.015,0.351,0.001h15c0.795,0.095,1.516-0.473,1.611-1.269c0.014-0.117,0.014-0.235-0.001-0.351
	c0-0.78-0.77-1.73-1.84-3c-1.43-1.76-1.09-3.92-1.09-6.06V123c-0.13-1.188,0.347-2.361,1.27-3.12l24.61-18.37
	c2.76-2.35,4.17-4.84,4.17-7.37V59.68c-0.03-7.47-3.63-11.11-11.11-11.11L239.99,48.57z M238.73,89.89c0,2-0.94,3.52-3.48,5.57
	l-12,8.88c-0.421,0.371-0.896,0.675-1.41,0.9l-0.63,0.2l-0.17-0.64c-0.041-0.157-0.061-0.318-0.06-0.48V61.89
	c0-1.42,0.85-2.28,1.67-2.28h12.81c2.51,0,3.31,0.91,3.31,3.71L238.73,89.89z M163.05,48.61h-14.4
	c-0.802-0.088-1.523,0.49-1.611,1.291c-0.012,0.109-0.012,0.219,0.001,0.329c0,0.79,0.78,1.74,1.85,3.06c1.42,1.74,1.08,3.9,1.08,6
	v57.47l-26.14-64.09c-1-2.46-2.08-4.1-4.15-4.1h-11.22c-0.802-0.083-1.519,0.501-1.602,1.303c-0.011,0.106-0.01,0.212,0.002,0.317
	c0,0.79,0.77,1.74,1.84,3.06c1.42,1.74,1.09,3.9,1.09,6v77.36c0,2.15,0.33,4.31-1.08,6.05c-1.08,1.32-1.85,2.27-1.85,3.05
	c-0.099,0.795,0.465,1.519,1.26,1.618c0.113,0.014,0.227,0.015,0.34,0.002h14.4c0.795,0.095,1.516-0.473,1.611-1.269
	c0.014-0.117,0.014-0.235-0.001-0.351c0-0.79-0.77-1.73-1.84-3.05c-1.43-1.75-1.09-3.91-1.09-6.05V82.37l26.18,61
	c1.41,2.84,2.3,4,4.14,4h7.36c2.21,0,2.54-1.83,2.54-2.92V59.29c0-2.14-0.33-4.3,1.09-6c1.07-1.32,1.84-2.27,1.84-3.06
	c0.118-0.798-0.433-1.54-1.231-1.658c-0.135-0.02-0.273-0.021-0.409-0.002V48.61z M94.66,48.61h-15
	c-0.802-0.088-1.523,0.49-1.611,1.291c-0.012,0.109-0.012,0.219,0.001,0.329c0,0.79,0.77,1.74,1.85,3.06c1.42,1.74,1.08,3.9,1.08,6
	v74.6c0.13,1.187-0.716,2.259-1.9,2.41H65.46c-1.28,0-2.14-0.43-2.14-2.54V59.29c0-2.14-0.33-4.3,1.08-6
	c1.08-1.32,1.85-2.27,1.85-3.06c0.093-0.801-0.482-1.525-1.283-1.618c-0.105-0.012-0.212-0.013-0.317-0.002h-15
	c-0.802-0.083-1.519,0.501-1.602,1.303c-0.011,0.106-0.01,0.212,0.002,0.317c0,0.79,0.77,1.74,1.85,3.06c1.41,1.74,1.08,3.9,1.08,6
	v79.44c0,5.33,3.62,8.64,9.44,8.64h23c5.297,0.163,9.726-3.993,9.9-9.29V59.29c0-2.14-0.33-4.3,1.09-6
	c1.07-1.32,1.85-2.27,1.85-3.06c0.115-0.798-0.439-1.538-1.237-1.653c-0.12-0.017-0.242-0.02-0.363-0.007V48.61z M36.25,48.61h-15
	c-0.802-0.088-1.523,0.49-1.611,1.291c-0.012,0.109-0.012,0.219,0.001,0.329c0,0.79,0.77,1.74,1.84,3c1.43,1.75,1.09,3.91,1.09,6.05
	v74.5c0,2.11-0.85,2.54-2.13,2.54h-6.2c-1.184-0.151-2.03-1.223-1.9-2.41v-17.67c0-0.8-0.24-2.14-1.84-2.14
	c-0.3,0-1.86,0.46-9.2,6.31c-0.82,0.65-1.3,1.51-1.3,4v13.65c0.179,5.298,4.611,9.453,9.91,9.29h15.55c5.83,0,9.45-3.31,9.45-8.64
	V59.29c0-2.14-0.34-4.3,1.07-6c1.08-1.32,1.86-2.27,1.86-3.06c0.114-0.798-0.44-1.538-1.238-1.652
	c-0.117-0.017-0.235-0.019-0.352-0.008V48.61z M428.38,48.61h-23c-5.82,0-9.44,3.31-9.44,8.64v81.52c0,5.33,3.62,8.64,9.44,8.64h23
	c5.299,0.163,9.731-3.992,9.91-9.29V97.89c0-0.8-0.24-2.14-1.84-2.14c-0.65,0-4.82,1.8-14.41,6.86c-1.49,1.07-2.52,1.81-2.52,3.6
	v10.4c0,0.93,0.36,2,1.37,2c0.995-0.195,1.941-0.59,2.78-1.16c0.451-0.26,0.915-0.497,1.39-0.71l0.71-0.27l0.14,0.74
	c0.017,0.186,0.017,0.374,0,0.56v16.12c0.13,1.187-0.716,2.259-1.9,2.41h-13.68c-1.28,0-2.14-0.43-2.14-2.54V62.15
	c0-2.11,0.86-2.54,2.14-2.54h13.68c1.184,0.151,2.03,1.223,1.9,2.41v16.77c0,0.8,0.24,2.15,1.84,2.15c0.3,0,1.86-0.46,9.2-6.31
	c0.82-0.65,1.3-1.52,1.3-4V57.89c-0.163-5.294-4.575-9.46-9.87-9.32L428.38,48.61z M541.78,48.61h-23c-5.82,0-9.44,3.31-9.44,8.64
	v81.52c0,5.33,3.62,8.64,9.44,8.64h23c5.299,0.163,9.731-3.992,9.91-9.29V57.89c-0.163-5.31-4.6-9.483-9.91-9.32V48.61z
	 M539.35,133.89c0.13,1.187-0.716,2.259-1.9,2.41h-13.68c-1.28,0-2.14-0.43-2.14-2.54V62.15c0-2.11,0.86-2.54,2.14-2.54h13.69
	c1.184,0.151,2.03,1.223,1.9,2.41L539.35,133.89z M495.76,138.13c-1.18-3-11.33-33.85-11.33-33.85l7.78-6.05
	c2.13-1.575,3.382-4.071,3.37-6.72V59.68c0-7.47-3.63-11.11-11.08-11.11h-33.8c-0.802-0.088-1.523,0.49-1.611,1.291
	c-0.012,0.109-0.012,0.219,0.001,0.329c0,0.79,0.77,1.74,1.83,3c1.43,1.76,1.1,3.91,1.1,6.06v77.36c0,2.15,0.34,4.31-1.08,6
	c-1.08,1.33-1.85,2.28-1.85,3.06c-0.099,0.795,0.464,1.519,1.259,1.619c0.117,0.015,0.235,0.015,0.351,0.001h15
	c0.795,0.095,1.516-0.473,1.611-1.269c0.014-0.117,0.014-0.235-0.001-0.351c0-0.79-0.78-1.74-1.85-3.05
	c-1.42-1.74-1.08-3.9-1.08-6.05V120.4c-0.129-1.185,0.344-2.357,1.26-3.12l7.14-5.2l0.27,0.81c4.17,12.32,6.9,20.95,8.11,25.65
	l0.3,1.16c0.133,0.448,0.227,0.906,0.28,1.37c-0.091,0.964-0.571,1.849-1.33,2.45c-0.686,0.555-1.131,1.354-1.24,2.23
	c-0.099,0.795,0.464,1.519,1.259,1.619c0.117,0.015,0.235,0.015,0.351,0.001h18c0.795,0.095,1.516-0.473,1.611-1.269
	c0.014-0.117,0.014-0.235-0.001-0.351c0-0.93-0.6-1.61-1.77-2.85c-1.334-1.317-2.317-2.946-2.86-4.74V138.13z M483.24,86.57
	c0,2-0.94,3.52-3.46,5.57l-13.48,9.77c-0.314,0.231-0.648,0.432-1,0.6l-0.69,0.31l-0.18-0.74c-0.017-0.186-0.017-0.374,0-0.56V61.89
	c0-1.42,0.84-2.28,1.66-2.28h13.92c2.5,0,3.3,0.91,3.3,3.71L483.24,86.57z M661.15,72.57c0.3,0,1.85-0.45,9.21-6.31
	c0.81-0.65,1.29-1.51,1.29-4V52.01c0-2.18-1.44-3.44-4-3.44h-38.83c-0.802-0.088-1.523,0.49-1.611,1.291
	c-0.012,0.109-0.012,0.219,0.001,0.329c0,0.79,0.78,1.74,1.85,3c1.42,1.75,1.08,3.9,1.08,6.05v47.71l-0.27,0.18
	c-1.837,1.316-3.784,2.47-5.82,3.45c-0.109,0.046-0.193,0.137-0.23,0.25c-0.045,0.105-0.045,0.225,0,0.33
	c1.334,2.119,3.414,3.661,5.83,4.32l0.45,0.13v21c0,2.15,0.34,4.31-1.08,6c-1.07,1.33-1.85,2.27-1.85,3.06
	c-0.093,0.801,0.48,1.526,1.281,1.619c0.109,0.013,0.219,0.013,0.328,0.001h38.95c2.54,0,3.83-1.33,3.83-4v-21.02
	c0-0.8-0.24-2.14-1.85-2.14c-0.21,0-1.65,0.28-9.23,5.68c-0.79,0.63-1.26,1.5-1.26,4v4.08c0.13,1.187-0.716,2.259-1.9,2.41h-13.36
	c-0.69,0-1.43-0.46-1.43-1.76v-22l0.52-0.38c0.111-0.074,0.218-0.154,0.32-0.24c4-3.38,15.47-12.65,20.81-15
	c0.107-0.046,0.188-0.138,0.22-0.25c0.045-0.105,0.045-0.225,0-0.33c-1.423-2.404-3.794-4.096-6.53-4.66
	c-1.006-0.206-2.035-0.277-3.06-0.21c-3.638,0.38-7.082,1.828-9.9,4.16l-1.31,1.1l-1,0.86V61.37c0-1.2,0.42-1.76,1.32-1.76h13.8
	c0.81,0,1.66,0.86,1.66,2.28v8.53c-0.07,0.8,0.17,2.14,1.77,2.14L661.15,72.57z M361.55,138.17c-1.18-3-11.33-33.85-11.33-33.85
	l7.78-6.05c2.134-1.572,3.387-4.07,3.37-6.72V59.68c0-7.47-3.62-11.11-11.08-11.11h-33.83c-0.802-0.088-1.523,0.49-1.611,1.291
	c-0.012,0.109-0.012,0.219,0.001,0.329c0,0.79,0.77,1.74,1.84,3c1.43,1.76,1.09,3.91,1.09,6.06v77.36c0,2.15,0.34,4.31-1.08,6
	c-1.08,1.33-1.85,2.28-1.85,3.06c-0.099,0.795,0.464,1.519,1.259,1.619c0.117,0.015,0.235,0.015,0.351,0.001h15
	c0.795,0.095,1.516-0.473,1.611-1.269c0.014-0.117,0.014-0.235-0.001-0.351c0-0.79-0.77-1.74-1.85-3.05
	c-1.42-1.74-1.08-3.9-1.08-6.05V120.4c-0.129-1.185,0.344-2.357,1.26-3.12l7.14-5.2l0.27,0.81c4.17,12.32,6.9,20.95,8.12,25.65
	l0.29,1.16c0.139,0.446,0.233,0.905,0.28,1.37c-0.09,0.962-0.567,1.846-1.32,2.45c-0.692,0.552-1.14,1.352-1.25,2.23
	c-0.099,0.795,0.464,1.519,1.259,1.619c0.117,0.015,0.235,0.015,0.351,0.001h18c0.796,0.089,1.513-0.484,1.602-1.28
	c0.013-0.113,0.012-0.227-0.002-0.34c0-0.93-0.6-1.61-1.76-2.85c-1.323-1.32-2.296-2.949-2.83-4.74L361.55,138.17z M349.03,86.61
	c0,2-0.94,3.52-3.46,5.57l-15.42,11.17V61.89c0-1.42,0.84-2.28,1.66-2.28h13.92c2.5,0,3.3,0.91,3.3,3.71L349.03,86.61z
	 M300.81,48.61h-38.83c-0.802-0.088-1.523,0.49-1.611,1.291c-0.012,0.109-0.012,0.219,0.001,0.329c0,0.79,0.78,1.74,1.85,3.06
	c1.42,1.74,1.08,3.89,1.08,6v47.67l-0.27,0.19c-1.86,1.322-3.827,2.486-5.88,3.48c-0.108,0.048-0.191,0.139-0.23,0.25
	c-0.044,0.106-0.044,0.224,0,0.33c1.342,2.137,3.443,3.687,5.88,4.34l0.45,0.13v21c0,2.15,0.34,4.31-1.08,6
	c-1.07,1.32-1.85,2.27-1.85,3.06c-0.099,0.795,0.464,1.519,1.259,1.619c0.117,0.015,0.235,0.015,0.351,0.001h39
	c2.54,0,3.83-1.33,3.83-4v-21.09c0-0.8-0.24-2.14-1.85-2.14c-0.29,0-1.84,0.41-9.23,5.68c-0.79,0.63-1.26,1.5-1.26,4v4.08
	c0.13,1.187-0.716,2.259-1.9,2.41h-13.45c-0.69,0-1.43-0.46-1.43-1.76v-22l0.5-0.38c0.101-0.063,0.198-0.134,0.29-0.21
	c4-3.38,15.46-12.65,20.8-15c0.108-0.048,0.191-0.139,0.23-0.25c0.045-0.105,0.045-0.225,0-0.33c-1.424-2.403-3.795-4.094-6.53-4.66
	c-1.009-0.207-2.042-0.277-3.07-0.21c-3.638,0.38-7.082,1.828-9.9,4.16l-1.25,1.05l-1,0.86v-36.2c0-1.2,0.42-1.76,1.32-1.76h13.79
	c0.81,0,1.67,0.8,1.67,2.28v8.53c0,0.8,0.24,2.14,1.84,2.14c0.3,0,1.85-0.45,9.2-6.31c0.82-0.64,1.3-1.51,1.3-4V52.01
	c-0.07-2.18-1.51-3.44-4.02-3.44L300.81,48.61z M616.71,48.61h-16.4c-0.802-0.083-1.519,0.501-1.602,1.303
	c-0.011,0.106-0.01,0.212,0.002,0.317c0.265,0.935,0.706,1.811,1.3,2.58c1.202,2.188,1.608,4.726,1.15,7.18
	c-1.4,6.48-12.76,60.76-12.76,60.76s-11.36-54.28-12.77-60.76c-0.458-2.454-0.052-4.992,1.15-7.18c0.594-0.769,1.035-1.645,1.3-2.58
	c0.093-0.801-0.482-1.525-1.283-1.618c-0.105-0.012-0.212-0.013-0.317-0.002h-16.39c-0.802-0.088-1.523,0.49-1.611,1.291
	c-0.012,0.109-0.012,0.219,0.001,0.329c0,0.79,0.71,1.61,1.68,2.75c1.37,1.6,1.74,3.79,2.43,6.95l17.32,76.9
	c0.43,2.103,0.13,4.29-0.85,6.2c-0.544,0.836-0.909,1.776-1.07,2.76c-0.099,0.795,0.464,1.519,1.259,1.619
	c0.117,0.015,0.235,0.015,0.351,0.001h17.59c0.795,0.095,1.516-0.473,1.611-1.269c0.014-0.117,0.014-0.235-0.001-0.351
	c-0.161-0.984-0.526-1.924-1.07-2.76c-0.98-1.91-1.28-4.097-0.85-6.2l17.32-76.9c0.69-3.16,1.06-5.35,2.43-6.95
	c1-1.14,1.68-2,1.68-2.75c0.115-0.798-0.439-1.538-1.237-1.653c-0.12-0.017-0.243-0.02-0.364-0.007L616.71,48.61z"/>
</svg>
