<svg id="Layer_1" data-name="Layer 1" xmlns="http://www.w3.org/2000/svg" viewBox="0 0 671.63 385.06"><defs><style>.cls-1{fill:#fff5ea;}.cls-2{fill:#336c6a;}</style></defs><title>logo</title><path class="cls-1" d="M1091.71,164.77l.13-.14h4.94c3.09,0,5.94.9,5.94,4.64a3.87,3.87,0,0,1-2.52,3.83,4.39,4.39,0,0,1,3,4.45c0,3.77-2.88,5.4-5.94,5.4h-5.43l-.13-.14Zm5.26,16.09c2,0,3.88-.84,3.88-3.31s-1.9-3.34-3.88-3.34h-3v6.65Zm-.16-8.74c1.87,0,3.63-.51,3.63-2.71s-1.76-2.69-3.63-2.69H1094v5.4Z" transform="translate(-936.56 -163.62)"/><path class="cls-1" d="M1118.94,164.77l.13-.14h9.42l.14.14v1.9l-.14.13h-7.27v5.43h6.32l.11.14-.49,1.9-.16.13h-5.78v6.38h7.3l.11.13-.28,1.9-.16.14h-9.12l-.13-.14Z" transform="translate(-936.56 -163.62)"/><path class="cls-1" d="M1144.33,164.9l.13-.16,2-.27.19.11,8.79,13.24.71,1.3V164.9l.13-.16,2-.27.14.11v18.23l-.14.14h-1.92l-.22-.14-8.85-13.35-.71-1.3v14.65l-.13.14h-2l-.13-.14Z" transform="translate(-936.56 -163.62)"/><path class="cls-1" d="M1178.07,166.8h-5l-.13-.13v-1.9l.13-.14h12.73l.11.14-.49,1.9-.16.13h-4.86v16l-.14.14h-2l-.14-.14Z" transform="translate(-936.56 -163.62)"/><path class="cls-1" d="M1200,164.9l.13-.16,2-.27.14.11v16.2h7.81l.11.13-.49,1.9-.16.14h-9.42l-.13-.14Z" transform="translate(-936.56 -163.62)"/><path class="cls-1" d="M1226.54,174.92,1221,165l.14-.19,2.28-.3.16.11,3.64,7.22.43,1,.46-1,3.45-6.84.13-.17,2.47-.32.17.11-5.54,10.34v7.89l-.14.14h-2l-.14-.14Z" transform="translate(-936.56 -163.62)"/><path class="cls-1" d="M1267.69,164.9l.13-.16,2-.27.14.11v7.68h9.66V164.9l.13-.16,2-.27.14.11v18.23l-.14.14h-2l-.13-.14v-8.38H1270v8.38l-.14.14h-2l-.13-.14Z" transform="translate(-936.56 -163.62)"/><path class="cls-1" d="M1298.45,164.77l.13-.14H1308l.14.14v1.9l-.14.13h-7.27v5.43h6.32l.11.14-.49,1.9-.16.13h-5.78v6.38h7.3l.11.13-.28,1.9-.16.14h-9.12l-.13-.14Z" transform="translate(-936.56 -163.62)"/><path class="cls-1" d="M1323.84,164.77l.13-.14h4.83a7.61,7.61,0,0,1,4,1A4.94,4.94,0,0,1,1335,170c0,5.05-5.29,5.29-5.29,5.29l.6.6,3.18,3.83a2.8,2.8,0,0,0,2.17,1.14c.1,0,.19,0,.29,0l.11.14-.3,1.84-.16.14a3.66,3.66,0,0,1-.57.05c-1.87,0-3.12-1.63-3.61-2.25l-4.23-5.27-.19-.1h-.93v7.4l-.13.14h-2l-.13-.14Zm4.94,8.55c2,0,4-.76,4-3.29s-2-3.31-4-3.31h-2.67v6.6Z" transform="translate(-936.56 -163.62)"/><path class="cls-1" d="M1351.12,164.9l.14-.16,2-.27.14.11v18.23l-.14.14h-2l-.14-.14Z" transform="translate(-936.56 -163.62)"/><path class="cls-1" d="M1373,166.8h-5l-.13-.13v-1.9l.13-.14h12.73l.11.14-.49,1.9-.16.13h-4.86v16l-.14.14h-2l-.14-.14Z" transform="translate(-936.56 -163.62)"/><path class="cls-1" d="M1398.18,164.9l.17-.13,2.28-.3.16.11,6.43,18.23-.08.14H1405l-.16-.14-1.5-4.37h-7.57l-1.46,4.37-.14.14h-2.2l-.08-.14Zm4.46,11.48-2.83-8.36-.27-1.16-.27,1.16-2.82,8.36Z" transform="translate(-936.56 -163.62)"/><path class="cls-1" d="M1420.94,171.09c0-4.4,2.85-6.73,7.11-6.73,3,0,5.37,1.36,6.35,3.75l-.08.16-1.82.76-.19-.06a4.58,4.58,0,0,0-4.26-2.44c-2.77,0-4.78,1.6-4.78,4.75v5.1c0,3.23,2,4.73,4.78,4.73s4.83-1.5,4.83-4.73v-.62h-3.12l-.16-.14-.27-1.9.1-.13H1435l.14.13v2.91c0,4.37-2.71,6.65-7.11,6.65s-7.11-2.28-7.11-6.65Z" transform="translate(-936.56 -163.62)"/><path class="cls-1" d="M1450.72,164.77l.14-.14h9.42l.13.14v1.9l-.13.13H1453v5.43h6.32l.11.14-.49,1.9-.16.13H1453v6.38h7.3l.11.13-.27,1.9-.16.14h-9.12l-.14-.14Z" transform="translate(-936.56 -163.62)"/><path class="cls-1" d="M1104,177.55c0,4.53-3.6,6.14-6.68,6.14h-5.43a.73.73,0,0,1-.52-.22l-.14-.13a.75.75,0,0,1-.22-.53v-18a.75.75,0,0,1,.22-.53l.14-.13a.73.73,0,0,1,.52-.22h4.94c5.52,0,6.68,2.93,6.68,5.38a4.72,4.72,0,0,1-1.69,3.79A5.24,5.24,0,0,1,1104,177.55Zm-11.5,4.66h4.82c2.51,0,5.2-1.22,5.2-4.66a3.66,3.66,0,0,0-2.5-3.75.73.73,0,0,1-.51-.69h0a.74.74,0,0,1,.49-.7,3.1,3.1,0,0,0,2-3.13c0-2.7-1.6-3.9-5.2-3.9h-4.33Zm9.14-4.66c0,2.5-1.77,4-4.62,4h-3a.74.74,0,0,1-.74-.74v-6.65a.74.74,0,0,1,.74-.74h3C1099.82,173.47,1101.59,175,1101.59,177.55Zm-6.87,2.57H1097c1.17,0,3.14-.33,3.14-2.57s-2-2.6-3.14-2.6h-2.25Zm6.46-10.71c0,1.57-.76,3.45-4.37,3.45H1094a.74.74,0,0,1-.74-.74v-5.4a.74.74,0,0,1,.74-.74h2.83C1099.71,166,1101.18,167.14,1101.18,169.41Zm-6.46,2h2.09c2.55,0,2.89-1,2.89-2,0-1.2-.48-1.95-2.89-1.95h-2.09Z" transform="translate(-936.56 -163.62)"/><path class="cls-1" d="M1129.37,164.77v1.9a.74.74,0,0,1-.22.52l-.14.14a.76.76,0,0,1-.52.21H1122v4h5.58a.74.74,0,0,1,.58.28,1.13,1.13,0,0,1,.24.78l-.48,1.9a.8.8,0,0,1-.24.38l-.17.14a.73.73,0,0,1-.47.17h-5V180h6.56a.74.74,0,0,1,.57.27,1.38,1.38,0,0,1,.27.71l-.27,1.9a.74.74,0,0,1-.26.46l-.17.14a.73.73,0,0,1-.47.17h-9.12a.74.74,0,0,1-.52-.22l-.14-.13a.78.78,0,0,1-.21-.53v-18a.78.78,0,0,1,.21-.53l.14-.13a.74.74,0,0,1,.52-.22h9.42a.73.73,0,0,1,.52.22l.14.13A.75.75,0,0,1,1129.37,164.77Zm-1.48,1.29v-.69h-8.21v16.84h8l.1-.69h-6.57a.74.74,0,0,1-.74-.74V174.4a.74.74,0,0,1,.74-.74h5.33l.18-.69h-5.51a.74.74,0,0,1-.74-.74V166.8a.74.74,0,0,1,.74-.74Z" transform="translate(-936.56 -163.62)"/><path class="cls-1" d="M1159.18,164.58v18.23a.75.75,0,0,1-.22.53l-.13.13a.75.75,0,0,1-.53.22h-1.92a.74.74,0,0,1-.39-.11l-.22-.14a.69.69,0,0,1-.23-.22l-8.2-12.37v12a.74.74,0,0,1-.21.53l-.14.13a.74.74,0,0,1-.52.22h-2a.73.73,0,0,1-.52-.22l-.14-.13a.74.74,0,0,1-.21-.53V164.9a.73.73,0,0,1,.17-.47l.13-.17a.73.73,0,0,1,.47-.25l2-.27a.73.73,0,0,1,.46.08l.19.11a.75.75,0,0,1,.26.24l8.14,12.26V164.9a.73.73,0,0,1,.17-.47l.14-.17a.71.71,0,0,1,.46-.25l2-.27a.71.71,0,0,1,.56.15A1.12,1.12,0,0,1,1159.18,164.58Zm-1.48,17.63V165.3l-.8.11v13.71a.74.74,0,0,1-.56.72.77.77,0,0,1-.84-.36l-.7-1.31-8.58-12.92-1.15.16v16.8h.79V168.16a.75.75,0,0,1,.56-.72.74.74,0,0,1,.83.37l.71,1.3,8.68,13.1Z" transform="translate(-936.56 -163.62)"/><path class="cls-1" d="M1186.59,164.85s0,.07,0,.1l-.49,1.9a.78.78,0,0,1-.25.39l-.16.13a.73.73,0,0,1-.47.17h-4.12v15.27a.75.75,0,0,1-.22.53l-.13.13a.75.75,0,0,1-.53.22h-2a.75.75,0,0,1-.53-.22l-.13-.13a.75.75,0,0,1-.22-.53V167.54H1173a.76.76,0,0,1-.52-.21l-.14-.14a.73.73,0,0,1-.21-.52v-1.9a.74.74,0,0,1,.21-.53l.14-.13a.73.73,0,0,1,.52-.22h12.73a.72.72,0,0,1,.58.28A1.31,1.31,0,0,1,1186.59,164.85Zm-1.83,1.21.18-.69h-11.31v.69h4.44a.74.74,0,0,1,.74.74v15.41h.8V166.8a.74.74,0,0,1,.74-.74Z" transform="translate(-936.56 -163.62)"/><path class="cls-1" d="M1210.89,181a.37.37,0,0,1,0,.11l-.49,1.9a.73.73,0,0,1-.24.38l-.16.14a.76.76,0,0,1-.48.17h-9.42a.74.74,0,0,1-.52-.22l-.14-.13a.78.78,0,0,1-.21-.53V164.9a.73.73,0,0,1,.17-.47l.14-.17a.71.71,0,0,1,.47-.25l2-.27a.71.71,0,0,1,.56.15,1.12,1.12,0,0,1,.42.69V180h7.07a.72.72,0,0,1,.58.28A1.2,1.2,0,0,1,1210.89,181Zm-1.83,1.22.18-.69h-7a.74.74,0,0,1-.74-.74V165.3l-.8.11v16.8Z" transform="translate(-936.56 -163.62)"/><path class="cls-1" d="M1235.1,164.58a.73.73,0,0,1-.09.35l-5.45,10.17v7.71a.75.75,0,0,1-.22.53l-.13.13a.75.75,0,0,1-.53.22h-2a.75.75,0,0,1-.53-.22l-.13-.13a.75.75,0,0,1-.22-.53v-7.7l-5.42-9.79a.77.77,0,0,1,0-.79l.14-.19a.75.75,0,0,1,.5-.31l2.28-.3a.76.76,0,0,1,.51.12l.16.11a.75.75,0,0,1,.25.28l3.43,6.8,3.46-6.72a.72.72,0,0,1,.47-.26l2.47-.33a.75.75,0,0,1,.5.12l.17.11A.75.75,0,0,1,1235.1,164.58Zm-7,17.63v-7.29a.73.73,0,0,1,.09-.35l4.93-9.21-1,.13-3.77,7.66a.74.74,0,0,1-1.36,0l-.44-1.06-3.44-6.82-1,.13,5.07,9.17a.74.74,0,0,1,.09.36v7.29Z" transform="translate(-936.56 -163.62)"/><path class="cls-1" d="M1282.65,164.58v18.23a.75.75,0,0,1-.22.53l-.13.13a.75.75,0,0,1-.53.22h-2a.74.74,0,0,1-.52-.22l-.14-.13a.78.78,0,0,1-.21-.53v-7.64h-8.18v7.64a.75.75,0,0,1-.22.53l-.14.13a.73.73,0,0,1-.52.22h-2a.74.74,0,0,1-.52-.22l-.14-.13a.78.78,0,0,1-.21-.53V164.9a.73.73,0,0,1,.17-.47l.14-.17a.71.71,0,0,1,.46-.25l2-.27a.71.71,0,0,1,.56.15,1.12,1.12,0,0,1,.42.69v6.94h8.18V164.9a.73.73,0,0,1,.17-.47l.14-.17a.71.71,0,0,1,.46-.25l2-.27a.71.71,0,0,1,.56.15A1.12,1.12,0,0,1,1282.65,164.58Zm-1.48,17.63V165.3l-.8.11v6.85a.74.74,0,0,1-.74.74H1270a.74.74,0,0,1-.74-.74v-7l-.8.11v16.8h.8v-7.78a.74.74,0,0,1,.74-.74h9.66a.74.74,0,0,1,.74.74v7.78Z" transform="translate(-936.56 -163.62)"/><path class="cls-1" d="M1308.88,164.77v1.9a.74.74,0,0,1-.22.52l-.14.14a.76.76,0,0,1-.52.21h-6.53v4h5.58a.74.74,0,0,1,.58.28,1.13,1.13,0,0,1,.24.78l-.48,1.9a.8.8,0,0,1-.24.38l-.17.14a.73.73,0,0,1-.47.17h-5V180H1308a.74.74,0,0,1,.57.27,1.3,1.3,0,0,1,.27.71l-.27,1.9a.74.74,0,0,1-.26.46l-.17.14a.73.73,0,0,1-.47.17h-9.12a.74.74,0,0,1-.52-.22l-.14-.13a.78.78,0,0,1-.21-.53v-18a.78.78,0,0,1,.21-.53l.14-.13a.74.74,0,0,1,.52-.22H1308a.73.73,0,0,1,.52.22l.14.13A.75.75,0,0,1,1308.88,164.77Zm-1.48,1.29v-.69h-8.21v16.84h8l.1-.69h-6.57a.75.75,0,0,1-.75-.74V174.4a.75.75,0,0,1,.75-.74h5.33l.18-.69h-5.51a.75.75,0,0,1-.75-.74V166.8a.75.75,0,0,1,.75-.74Z" transform="translate(-936.56 -163.62)"/><path class="cls-1" d="M1336.84,181.06a.07.07,0,0,1,0,.05l-.3,1.85a.75.75,0,0,1-.25.45l-.17.14a.78.78,0,0,1-.36.16,5.2,5.2,0,0,1-.68.06c-2.21,0-3.63-1.82-4.17-2.51l-4-5v6.58a.75.75,0,0,1-.22.53l-.14.13a.73.73,0,0,1-.52.22h-2a.74.74,0,0,1-.52-.22l-.14-.13a.74.74,0,0,1-.21-.53v-18a.74.74,0,0,1,.21-.53l.14-.13a.74.74,0,0,1,.52-.22h4.83a8.28,8.28,0,0,1,4.38,1.06,5.63,5.63,0,0,1,2.6,5.08,5.76,5.76,0,0,1-4.55,5.8l2.86,3.45a2.07,2.07,0,0,0,1.61.87l.29,0a.72.72,0,0,1,.58.28A1.29,1.29,0,0,1,1336.84,181.06Zm-1.7,1.23.12-.69a3.69,3.69,0,0,1-2.3-1.37l-3.73-4.38a.75.75,0,0,1-.17-.79.76.76,0,0,1,.66-.48c.18,0,4.58-.28,4.58-4.55a4.19,4.19,0,0,0-1.91-3.82,6.72,6.72,0,0,0-3.59-.84h-4.22v16.84h.79v-6.8a.74.74,0,0,1,.74-.74h.93a.81.81,0,0,1,.37.09l.19.11a.86.86,0,0,1,.2.18l4.24,5.26c.48.62,1.54,2,3,2ZM1333.51,170c0,2.52-1.77,4-4.73,4h-2.67a.74.74,0,0,1-.74-.74v-6.6a.74.74,0,0,1,.74-.74h2.67C1331.69,166,1333.51,167.53,1333.51,170Zm-6.65,2.55h1.92c2.15,0,3.24-.86,3.24-2.55,0-2.24-2-2.57-3.24-2.57h-1.92Z" transform="translate(-936.56 -163.62)"/><path class="cls-1" d="M1354.14,164.58v18.23a.75.75,0,0,1-.22.53l-.13.13a.75.75,0,0,1-.53.22h-2a.75.75,0,0,1-.53-.22l-.13-.13a.75.75,0,0,1-.22-.53V164.9a.69.69,0,0,1,.18-.47l.13-.17a.73.73,0,0,1,.47-.25l2-.27a.71.71,0,0,1,.56.15A1.15,1.15,0,0,1,1354.14,164.58Zm-1.48,17.63V165.3l-.8.11v16.8Z" transform="translate(-936.56 -163.62)"/><path class="cls-1" d="M1381.56,164.85s0,.07,0,.1l-.49,1.9a.78.78,0,0,1-.25.39l-.16.13a.73.73,0,0,1-.47.17h-4.12v15.27a.75.75,0,0,1-.22.53l-.13.13a.75.75,0,0,1-.53.22h-2a.75.75,0,0,1-.53-.22l-.13-.13a.75.75,0,0,1-.22-.53V167.54H1368a.75.75,0,0,1-.53-.22l-.13-.13a.73.73,0,0,1-.21-.52v-1.9a.72.72,0,0,1,.21-.52l.13-.14a.75.75,0,0,1,.53-.22h12.73a.74.74,0,0,1,.58.28A1.31,1.31,0,0,1,1381.56,164.85Zm-1.83,1.21.18-.69H1368.6v.69H1373a.74.74,0,0,1,.74.74v15.41h.8V166.8a.74.74,0,0,1,.74-.74Z" transform="translate(-936.56 -163.62)"/><path class="cls-1" d="M1408,182.81a.68.68,0,0,1-.11.39,1,1,0,0,1-.71.49H1405a.73.73,0,0,1-.47-.17l-.17-.14a.69.69,0,0,1-.22-.33l-1.33-3.86h-6.51l-1.29,3.86a.79.79,0,0,1-.18.29l-.14.13a.73.73,0,0,1-.52.22h-2.2a.73.73,0,0,1-.63-.36,1,1,0,0,1-.15-.76l6.33-17.91a.74.74,0,0,1,.22-.33l.17-.13a.7.7,0,0,1,.37-.17l2.28-.3a.76.76,0,0,1,.51.12l.16.11a.82.82,0,0,1,.29.37l6.43,18.24A.67.67,0,0,1,1408,182.81Zm-2.58-.6h.84l-6-17-1.48.2-5.91,16.75h.84l1.34-4a.74.74,0,0,1,.7-.51h7.57a.74.74,0,0,1,.7.51Zm-2-5.83a.71.71,0,0,1-.14.43.74.74,0,0,1-.6.31h-6.19a.71.71,0,0,1-.6-.31.68.68,0,0,1-.1-.66l2.82-8.36.25-1.1a.75.75,0,0,1,.72-.57.74.74,0,0,1,.72.57l.27,1.17,2.81,8.29A.85.85,0,0,1,1403.38,176.38Zm-5.9-.74h4.12l-2.06-6.11Z" transform="translate(-936.56 -163.62)"/><path class="cls-1" d="M1435.9,173.72v2.91c0,4.62-2.94,7.39-7.85,7.39s-7.85-2.84-7.85-7.39v-5.54c0-4.61,3-7.47,7.85-7.47,3.33,0,6,1.57,7,4.21a.81.81,0,0,1,0,.61,1.26,1.26,0,0,1-.46.51l-1.81.76a.75.75,0,0,1-.49,0l-.19-.05a.74.74,0,0,1-.46-.39,3.86,3.86,0,0,0-3.6-2,3.67,3.67,0,0,0-4,4v5.1c0,3.47,2.53,4,4,4,1.84,0,4-.67,4.09-3.86h-2.38a.76.76,0,0,1-.48-.17l-.16-.14a.77.77,0,0,1-.26-.46l-.27-1.9a.73.73,0,0,1,.16-.57,1.11,1.11,0,0,1,.68-.41H1435a.74.74,0,0,1,.53.21l.13.14A.74.74,0,0,1,1435.9,173.72Zm-14.22,2.91c0,3.75,2.32,5.9,6.37,5.9s6.37-2.09,6.37-5.9v-2.3h-4.26l.1.69h2.62a.74.74,0,0,1,.74.74v.62c0,3.42-2.08,5.47-5.57,5.47s-5.52-2-5.52-5.47v-5.1c0-3.39,2.12-5.49,5.52-5.49a5.36,5.36,0,0,1,4.64,2.36l.75-.32a5.91,5.91,0,0,0-5.39-2.73c-4,0-6.37,2.18-6.37,6Z" transform="translate(-936.56 -163.62)"/><path class="cls-1" d="M1461.15,164.77v1.9a.78.78,0,0,1-.21.52l-.14.14a.78.78,0,0,1-.52.21h-6.54v4h5.58a.72.72,0,0,1,.58.28,1.14,1.14,0,0,1,.25.78l-.49,1.9a.73.73,0,0,1-.24.38l-.16.14a.74.74,0,0,1-.48.17h-5V180h6.56a.78.78,0,0,1,.58.27,1.22,1.22,0,0,1,.26.71l-.27,1.9a.7.7,0,0,1-.26.46l-.16.14a.73.73,0,0,1-.47.17h-9.12a.71.71,0,0,1-.52-.22l-.14-.13a.75.75,0,0,1-.22-.53v-18a.75.75,0,0,1,.22-.53l.14-.13a.71.71,0,0,1,.52-.22h9.42a.74.74,0,0,1,.52.22l.14.13A.78.78,0,0,1,1461.15,164.77Zm-1.48,1.29v-.69h-8.21v16.84h8l.1-.69H1453a.74.74,0,0,1-.74-.74V174.4a.74.74,0,0,1,.74-.74h5.34l.17-.69H1453a.74.74,0,0,1-.74-.74V166.8a.74.74,0,0,1,.74-.74Z" transform="translate(-936.56 -163.62)"/><path class="cls-1" d="M1092.59,378.8l.13-.13h9.42l.13.13v1.9l-.13.14h-7.28v5.42h6.33l.11.14-.49,1.9-.16.14h-5.79v6.37h7.3l.11.14-.27,1.9-.16.13h-9.12l-.13-.13Z" transform="translate(-936.56 -163.62)"/><path class="cls-1" d="M1114.75,395.49l1.11-1.52.24,0a6.8,6.8,0,0,0,3.72,1.19c1.93,0,3.55-.84,3.55-3.12,0-4.37-8.11-2.44-8.11-8.41a5.14,5.14,0,0,1,5.43-5.22,7.73,7.73,0,0,1,4.67,1.36l0,.19-1,1.58-.22,0a5.58,5.58,0,0,0-3.33-1c-2.18,0-3.21,1.25-3.21,3,0,4.07,8.12,2.2,8.12,8.47,0,4.07-3.23,5.32-6,5.32a9,9,0,0,1-4.94-1.63Z" transform="translate(-936.56 -163.62)"/><path class="cls-1" d="M1142.3,380.84h-5l-.14-.14v-1.9l.14-.13H1150l.1.13-.48,1.9-.17.14h-4.86v16l-.13.13h-2l-.14-.13Z" transform="translate(-936.56 -163.62)"/><path class="cls-1" d="M1165.44,378.94l.17-.14,2.28-.3.16.11,6.43,18.24-.08.13h-2.17l-.17-.13-1.49-4.37H1163l-1.47,4.37-.13.13h-2.2l-.08-.13Zm4.45,11.48-2.82-8.36-.27-1.17-.27,1.17-2.83,8.36Z" transform="translate(-936.56 -163.62)"/><path class="cls-1" d="M1189.07,380.84h-5l-.13-.14v-1.9l.13-.13h12.73l.11.13-.49,1.9-.16.14h-4.86v16l-.14.13h-2l-.13-.13Z" transform="translate(-936.56 -163.62)"/><path class="cls-1" d="M1209,378.8l.13-.13h9.42l.14.13v1.9l-.14.14h-7.27v5.42h6.32l.11.14-.49,1.9-.16.14h-5.78v6.37h7.3l.11.14-.27,1.9-.17.13h-9.12l-.13-.13Z" transform="translate(-936.56 -163.62)"/><path class="cls-1" d="M1249.36,378.8l.14-.13h6.08c4.26,0,7.13,2.33,7.13,6.73v4.94c0,4.36-2.87,6.64-7.13,6.64h-6.08l-.14-.13Zm6.22,16c2.77,0,4.8-1.49,4.8-4.72v-4.5c0-3.15-2-4.75-4.8-4.75h-3.94v14Z" transform="translate(-936.56 -163.62)"/><path class="cls-1" d="M1276.62,378.94l.14-.17,2-.27.13.11v18.24l-.13.13h-2l-.14-.13Z" transform="translate(-936.56 -163.62)"/><path class="cls-1" d="M1292.22,395.49l1.11-1.52.25,0a6.76,6.76,0,0,0,3.71,1.19c1.93,0,3.56-.84,3.56-3.12,0-4.37-8.12-2.44-8.12-8.41a5.14,5.14,0,0,1,5.43-5.22,7.67,7.67,0,0,1,4.67,1.36l0,.19-1,1.58-.22,0a5.62,5.62,0,0,0-3.34-1c-2.17,0-3.2,1.25-3.2,3,0,4.07,8.11,2.2,8.11,8.47,0,4.07-3.23,5.32-6,5.32a9,9,0,0,1-4.94-1.63Z" transform="translate(-936.56 -163.62)"/><path class="cls-1" d="M1319.78,380.84h-5l-.13-.14v-1.9l.13-.13h12.73l.11.13-.49,1.9-.16.14h-4.86v16l-.14.13h-2l-.14-.13Z" transform="translate(-936.56 -163.62)"/><path class="cls-1" d="M1339.66,378.94l.14-.17,2-.27.14.11v18.24l-.14.13h-2l-.14-.13Z" transform="translate(-936.56 -163.62)"/><path class="cls-1" d="M1356.48,378.94l.13-.17,2-.27.14.11v16.2h7.81l.11.14-.49,1.9-.16.13h-9.42l-.13-.13Z" transform="translate(-936.56 -163.62)"/><path class="cls-1" d="M1378.8,378.94l.14-.17,2-.27.14.11v16.2h7.81l.11.14-.49,1.9-.16.13h-9.41l-.14-.13Z" transform="translate(-936.56 -163.62)"/><path class="cls-1" d="M1401.13,378.8l.13-.13h9.42l.13.13v1.9l-.13.14h-7.28v5.42h6.33l.11.14-.49,1.9-.16.14h-5.79v6.37h7.3l.11.14-.27,1.9-.16.13h-9.12l-.13-.13Z" transform="translate(-936.56 -163.62)"/><path class="cls-1" d="M1424.51,378.8l.13-.13h4.83a7.52,7.52,0,0,1,4,.95,4.94,4.94,0,0,1,2.25,4.45c0,5-5.29,5.29-5.29,5.29l.6.6,3.18,3.82a2.8,2.8,0,0,0,2.17,1.14c.1,0,.19,0,.29,0l.11.14-.3,1.85-.16.13a3.66,3.66,0,0,1-.57.05c-1.87,0-3.12-1.62-3.61-2.25l-4.23-5.26-.19-.11h-.93v7.41l-.13.13h-2l-.13-.13Zm4.94,8.55c2,0,4-.76,4-3.28s-2-3.31-4-3.31h-2.67v6.59Z" transform="translate(-936.56 -163.62)"/><path class="cls-1" d="M1453.12,389l-5.51-10,.14-.19,2.28-.3.16.11,3.64,7.22.43,1.06.46-1.06,3.45-6.84.14-.16,2.47-.33.16.11L1455.4,389v7.9l-.13.13h-2l-.14-.13Z" transform="translate(-936.56 -163.62)"/><path class="cls-1" d="M1103,378.8v1.9a.72.72,0,0,1-.21.52l-.14.14a.73.73,0,0,1-.52.22h-6.54v3.94h5.59a.77.77,0,0,1,.58.28,1.12,1.12,0,0,1,.24.78l-.49,1.9a.76.76,0,0,1-.24.39l-.16.13a.69.69,0,0,1-.47.18h-5.05v4.89h6.56a.72.72,0,0,1,.58.28,1.22,1.22,0,0,1,.27.7l-.28,1.9a.7.7,0,0,1-.26.47l-.16.13a.73.73,0,0,1-.47.17h-9.12a.72.72,0,0,1-.52-.21l-.14-.14a.73.73,0,0,1-.22-.52V378.8a.74.74,0,0,1,.22-.52l.14-.14a.72.72,0,0,1,.52-.21h9.42a.72.72,0,0,1,.52.21l.14.14A.73.73,0,0,1,1103,378.8Zm-1.48,1.3v-.69h-8.2v16.83h8l.1-.69h-6.58a.74.74,0,0,1-.74-.74v-6.37a.74.74,0,0,1,.74-.74h5.34l.18-.7h-5.52a.74.74,0,0,1-.74-.74v-5.42a.74.74,0,0,1,.74-.74Z" transform="translate(-936.56 -163.62)"/><path class="cls-1" d="M1126.45,392c0,4.47-3.47,6.06-6.71,6.06a9.76,9.76,0,0,1-5.4-1.79.71.71,0,0,1-.25-.38l-.06-.19a.74.74,0,0,1,.12-.64l1.11-1.52a.75.75,0,0,1,.52-.3l.25,0a.73.73,0,0,1,.55.17,6,6,0,0,0,3.24,1c1.87,0,2.81-.8,2.81-2.38s-1.12-1.95-3.11-2.73c-2.23-.88-5-2-5-5.68a5.87,5.87,0,0,1,6.17-6,8.19,8.19,0,0,1,5.19,1.58.81.81,0,0,1,.21.41l0,.19a.87.87,0,0,1-.12.52l-1,1.57a.78.78,0,0,1-.53.33l-.22,0a.72.72,0,0,1-.53-.15,5,5,0,0,0-2.89-.82c-1.61,0-2.46.76-2.46,2.21,0,1.25,1.05,1.73,2.93,2.47C1123.58,386.89,1126.45,388,1126.45,392Zm-10.74,3.43a8.77,8.77,0,0,0,4,1.15c1.57,0,5.23-.45,5.23-4.58,0-3-2.06-3.77-4.24-4.63-1.82-.71-3.88-1.51-3.88-3.84s1.51-3.7,4-3.7a6.69,6.69,0,0,1,3.26.79l.38-.58a7.64,7.64,0,0,0-3.75-.9,4.4,4.4,0,0,0-4.69,4.48c0,2.71,1.88,3.45,4.06,4.3,1.9.74,4.06,1.59,4.06,4.11s-1.61,3.86-4.3,3.86a8.14,8.14,0,0,1-3.7-1Z" transform="translate(-936.56 -163.62)"/><path class="cls-1" d="M1150.82,378.88a.41.41,0,0,1,0,.11l-.49,1.9a.73.73,0,0,1-.24.38l-.17.14a.73.73,0,0,1-.47.17h-4.12v15.27a.72.72,0,0,1-.21.52l-.14.14a.73.73,0,0,1-.52.21h-2a.72.72,0,0,1-.52-.21l-.14-.14a.73.73,0,0,1-.22-.52V381.58h-4.3a.75.75,0,0,1-.53-.22l-.13-.14a.73.73,0,0,1-.22-.52v-1.9a.74.74,0,0,1,.22-.52l.13-.14a.74.74,0,0,1,.53-.21H1150a.72.72,0,0,1,.57.28A1.2,1.2,0,0,1,1150.82,378.88ZM1149,380.1l.17-.69h-11.31v.69h4.44a.75.75,0,0,1,.75.74v15.4h.79v-15.4a.74.74,0,0,1,.74-.74Z" transform="translate(-936.56 -163.62)"/><path class="cls-1" d="M1175.22,396.85a.73.73,0,0,1-.11.38,1,1,0,0,1-.71.49h-2.17a.71.71,0,0,1-.47-.17l-.17-.13a.86.86,0,0,1-.23-.33l-1.32-3.87h-6.51l-1.29,3.86a.79.79,0,0,1-.18.29l-.14.14a.72.72,0,0,1-.52.21h-2.2a.73.73,0,0,1-.63-.35,1.06,1.06,0,0,1-.15-.77l6.32-17.91a.86.86,0,0,1,.23-.33l.17-.13a.69.69,0,0,1,.37-.16l2.28-.3a.76.76,0,0,1,.51.12l.16.11a.76.76,0,0,1,.28.36l6.44,18.24A.73.73,0,0,1,1175.22,396.85Zm-2.58-.61h.84l-6-16.94-1.48.19-5.91,16.75h.84l1.34-4a.73.73,0,0,1,.7-.5h7.57a.73.73,0,0,1,.7.5Zm-2-5.82a.69.69,0,0,1-.14.43.73.73,0,0,1-.6.31h-6.19a.74.74,0,0,1-.7-1l2.83-8.36.25-1.1a.73.73,0,0,1,.72-.57.75.75,0,0,1,.72.57l.27,1.17,2.81,8.29A1,1,0,0,1,1170.63,390.42Zm-5.9-.74h4.13l-2.06-6.12Z" transform="translate(-936.56 -163.62)"/><path class="cls-1" d="M1197.59,378.88a.43.43,0,0,1,0,.11l-.48,1.9a.75.75,0,0,1-.25.38l-.16.14a.73.73,0,0,1-.47.17h-4.12v15.27a.73.73,0,0,1-.22.52l-.13.14a.74.74,0,0,1-.53.21h-2a.73.73,0,0,1-.52-.21l-.14-.14a.76.76,0,0,1-.21-.52V381.58H1184a.75.75,0,0,1-.53-.22l-.13-.14a.72.72,0,0,1-.21-.52v-1.9a.73.73,0,0,1,.21-.52l.13-.13a.75.75,0,0,1,.53-.22h12.73a.74.74,0,0,1,.58.28A1.28,1.28,0,0,1,1197.59,378.88Zm-1.83,1.22.18-.69h-11.31v.69h4.44a.74.74,0,0,1,.74.74v15.4h.8v-15.4a.74.74,0,0,1,.74-.74Z" transform="translate(-936.56 -163.62)"/><path class="cls-1" d="M1219.38,378.8v1.9a.73.73,0,0,1-.22.52l-.13.14a.75.75,0,0,1-.53.22H1212v3.94h5.58a.77.77,0,0,1,.58.28,1.18,1.18,0,0,1,.25.78l-.49,1.9a.83.83,0,0,1-.24.39l-.16.13a.74.74,0,0,1-.48.18h-5v4.89h6.56a.72.72,0,0,1,.57.28,1.22,1.22,0,0,1,.27.7l-.27,1.9a.79.79,0,0,1-.26.47l-.17.13a.71.71,0,0,1-.47.17h-9.12a.73.73,0,0,1-.52-.21l-.14-.14a.76.76,0,0,1-.21-.52V378.8a.78.78,0,0,1,.21-.52l.14-.14a.73.73,0,0,1,.52-.21h9.42a.74.74,0,0,1,.53.21l.13.14A.74.74,0,0,1,1219.38,378.8Zm-1.48,1.3v-.69h-8.21v16.83h8l.1-.69h-6.57a.74.74,0,0,1-.74-.74v-6.37a.74.74,0,0,1,.74-.74h5.33l.18-.7h-5.51a.74.74,0,0,1-.74-.74v-5.42a.74.74,0,0,1,.74-.74Z" transform="translate(-936.56 -163.62)"/><path class="cls-1" d="M1263.46,385.4v4.94c0,4.55-3,7.38-7.88,7.38h-6.08a.72.72,0,0,1-.52-.21l-.14-.14a.73.73,0,0,1-.22-.52V378.8a.74.74,0,0,1,.22-.52l.14-.14a.72.72,0,0,1,.52-.21h6.08C1260.44,377.93,1263.46,380.79,1263.46,385.4Zm-13.36,10.84h5.48c4.06,0,6.39-2.15,6.39-5.9V385.4c0-3.81-2.33-6-6.39-6h-5.48Zm11-10.65v4.5c0,3.37-2.12,5.46-5.54,5.46h-3.94a.74.74,0,0,1-.74-.74v-14a.74.74,0,0,1,.74-.74h3.94A5.16,5.16,0,0,1,1261.12,385.59Zm-8.74,8.48h3.2c1.52,0,4.06-.51,4.06-4v-4.5c0-2.55-1.48-4-4.06-4h-3.2Z" transform="translate(-936.56 -163.62)"/><path class="cls-1" d="M1279.64,378.61v18.24a.76.76,0,0,1-.21.52l-.14.14a.73.73,0,0,1-.52.21h-2a.72.72,0,0,1-.52-.21l-.14-.14a.73.73,0,0,1-.22-.52V378.94a.7.7,0,0,1,.18-.48l.13-.16a.79.79,0,0,1,.47-.26l2-.27a.75.75,0,0,1,.56.15A1.18,1.18,0,0,1,1279.64,378.61Zm-1.48,17.63V379.33l-.8.11v16.8Z" transform="translate(-936.56 -163.62)"/><path class="cls-1" d="M1303.92,392c0,4.47-3.46,6.06-6.71,6.06a9.79,9.79,0,0,1-5.4-1.79.74.74,0,0,1-.25-.37l0-.19a.75.75,0,0,1,.11-.65l1.12-1.52a.75.75,0,0,1,.52-.3l.24,0a.75.75,0,0,1,.56.17,6,6,0,0,0,3.23,1c1.87,0,2.82-.8,2.82-2.38s-1.13-1.95-3.11-2.73c-2.23-.88-5-2-5-5.68a5.87,5.87,0,0,1,6.17-6,8.17,8.17,0,0,1,5.19,1.58.68.68,0,0,1,.21.41l0,.19a.8.8,0,0,1-.11.52l-1,1.57a.75.75,0,0,1-.53.33l-.21,0a.72.72,0,0,1-.53-.15,5,5,0,0,0-2.9-.82c-1.61,0-2.46.76-2.46,2.21,0,1.25,1.06,1.73,2.93,2.47C1301.05,386.89,1303.92,388,1303.92,392Zm-10.73,3.43a8.73,8.73,0,0,0,4,1.15c1.58,0,5.23-.45,5.23-4.58,0-3-2.06-3.77-4.24-4.63-1.81-.71-3.87-1.51-3.87-3.84s1.51-3.7,3.94-3.7a6.66,6.66,0,0,1,3.26.79l.39-.58a7.69,7.69,0,0,0-3.76-.9,4.4,4.4,0,0,0-4.69,4.48c0,2.71,1.89,3.45,4.07,4.3,1.9.74,4,1.59,4,4.11s-1.61,3.86-4.3,3.86a8.17,8.17,0,0,1-3.7-1Z" transform="translate(-936.56 -163.62)"/><path class="cls-1" d="M1328.3,378.88a.43.43,0,0,1,0,.11l-.48,1.9a.75.75,0,0,1-.25.38l-.16.14a.73.73,0,0,1-.47.17h-4.12v15.27a.73.73,0,0,1-.22.52l-.13.14a.74.74,0,0,1-.53.21h-2a.74.74,0,0,1-.53-.21l-.13-.14a.73.73,0,0,1-.22-.52V381.58h-4.31a.75.75,0,0,1-.53-.22l-.13-.14a.72.72,0,0,1-.21-.52v-1.9a.73.73,0,0,1,.21-.52l.13-.13a.75.75,0,0,1,.53-.22h12.73a.74.74,0,0,1,.58.28A1.28,1.28,0,0,1,1328.3,378.88Zm-1.83,1.22.18-.69h-11.31v.69h4.44a.74.74,0,0,1,.74.74v15.4h.8v-15.4a.74.74,0,0,1,.74-.74Z" transform="translate(-936.56 -163.62)"/><path class="cls-1" d="M1342.68,378.61v18.24a.73.73,0,0,1-.22.52l-.13.14a.74.74,0,0,1-.53.21h-2a.74.74,0,0,1-.53-.21l-.13-.14a.73.73,0,0,1-.22-.52V378.94a.74.74,0,0,1,.17-.48l.14-.16a.79.79,0,0,1,.47-.26l2-.27a.73.73,0,0,1,.55.15A1.15,1.15,0,0,1,1342.68,378.61Zm-1.48,17.63V379.33l-.8.11v16.8Z" transform="translate(-936.56 -163.62)"/><path class="cls-1" d="M1367.41,395s0,.07,0,.1l-.49,1.9a.76.76,0,0,1-.24.39l-.16.13a.78.78,0,0,1-.48.17h-9.42a.73.73,0,0,1-.52-.21l-.14-.14a.76.76,0,0,1-.21-.52V378.94a.74.74,0,0,1,.17-.48l.14-.16a.77.77,0,0,1,.46-.26l2-.27a.75.75,0,0,1,.56.15,1.15,1.15,0,0,1,.42.69v15.46h7.07a.72.72,0,0,1,.58.28A1.31,1.31,0,0,1,1367.41,395Zm-1.83,1.21.18-.69h-7a.75.75,0,0,1-.75-.74V379.33l-.79.11v16.8Z" transform="translate(-936.56 -163.62)"/><path class="cls-1" d="M1389.73,395a.34.34,0,0,1,0,.1l-.49,1.9a.76.76,0,0,1-.24.39l-.16.13a.74.74,0,0,1-.48.17h-9.41a.74.74,0,0,1-.53-.21l-.13-.14a.73.73,0,0,1-.22-.52V378.94a.74.74,0,0,1,.17-.48l.14-.16a.76.76,0,0,1,.47-.26l2-.27a.74.74,0,0,1,.56.15,1.15,1.15,0,0,1,.42.69v15.46h7.07a.72.72,0,0,1,.58.28A1.23,1.23,0,0,1,1389.73,395Zm-1.82,1.21.17-.69h-7a.74.74,0,0,1-.74-.74V379.33l-.8.11v16.8Z" transform="translate(-936.56 -163.62)"/><path class="cls-1" d="M1411.55,378.8v1.9a.72.72,0,0,1-.21.52l-.14.14a.73.73,0,0,1-.52.22h-6.54v3.94h5.59a.77.77,0,0,1,.58.28,1.12,1.12,0,0,1,.24.78l-.49,1.9a.76.76,0,0,1-.24.39l-.16.13a.69.69,0,0,1-.47.18h-5v4.89h6.56a.72.72,0,0,1,.58.28,1.29,1.29,0,0,1,.27.7l-.27,1.9a.79.79,0,0,1-.26.47l-.17.13a.73.73,0,0,1-.47.17h-9.12a.72.72,0,0,1-.52-.21l-.14-.14a.72.72,0,0,1-.21-.52V378.8a.73.73,0,0,1,.21-.52l.14-.14a.72.72,0,0,1,.52-.21h9.42a.72.72,0,0,1,.52.21l.14.14A.73.73,0,0,1,1411.55,378.8Zm-1.48,1.3v-.69h-8.2v16.83h8l.1-.69h-6.58a.74.74,0,0,1-.74-.74v-6.37a.74.74,0,0,1,.74-.74h5.34l.18-.7h-5.52a.74.74,0,0,1-.74-.74v-5.42a.74.74,0,0,1,.74-.74Z" transform="translate(-936.56 -163.62)"/><path class="cls-1" d="M1437.51,395.09a.13.13,0,0,1,0,.06l-.3,1.84a.66.66,0,0,1-.25.45l-.16.14a.76.76,0,0,1-.37.16,3.92,3.92,0,0,1-.68.07c-2.21,0-3.63-1.83-4.17-2.52l-4-5v6.58a.73.73,0,0,1-.22.52l-.14.14a.72.72,0,0,1-.52.21h-2a.73.73,0,0,1-.52-.21l-.14-.14a.72.72,0,0,1-.21-.52V378.8a.73.73,0,0,1,.21-.52l.14-.14a.73.73,0,0,1,.52-.21h4.83a8.19,8.19,0,0,1,4.38,1.06,5.63,5.63,0,0,1,2.6,5.08,5.75,5.75,0,0,1-4.55,5.79l2.86,3.45a2.07,2.07,0,0,0,1.61.87l.29,0a.76.76,0,0,1,.58.28A1.29,1.29,0,0,1,1437.51,395.09Zm-1.7,1.23.12-.69a3.69,3.69,0,0,1-2.3-1.37l-3.73-4.38a.74.74,0,0,1,.49-1.26c.18,0,4.58-.29,4.58-4.55a4.21,4.21,0,0,0-1.91-3.83,6.81,6.81,0,0,0-3.59-.83h-4.22v16.83h.79v-6.8a.74.74,0,0,1,.74-.74h.93a.71.71,0,0,1,.37.1l.19.11a.65.65,0,0,1,.2.17l4.24,5.27c.48.61,1.54,2,3,2Zm-1.63-12.25c0,2.52-1.77,4-4.73,4h-2.67a.74.74,0,0,1-.74-.74v-6.59a.74.74,0,0,1,.74-.74h2.67C1432.36,380,1434.18,381.57,1434.18,384.07Zm-6.65,2.54h1.92c2.15,0,3.24-.86,3.24-2.54,0-2.24-2-2.57-3.24-2.57h-1.92Z" transform="translate(-936.56 -163.62)"/><path class="cls-1" d="M1461.68,378.61a.73.73,0,0,1-.09.35l-5.45,10.18v7.71a.76.76,0,0,1-.21.52l-.14.14a.73.73,0,0,1-.52.21h-2a.72.72,0,0,1-.52-.21l-.14-.14a.73.73,0,0,1-.22-.52v-7.71l-5.41-9.79a.75.75,0,0,1,0-.79l.14-.19a.73.73,0,0,1,.5-.3l2.28-.3a.76.76,0,0,1,.51.12l.16.11a.62.62,0,0,1,.25.28l3.43,6.8,3.46-6.72a.76.76,0,0,1,.47-.27l2.47-.32a.76.76,0,0,1,.51.12l.16.1A.76.76,0,0,1,1461.68,378.61Zm-7,17.63V389a.73.73,0,0,1,.09-.35l4.93-9.21-1,.13-3.77,7.66a.75.75,0,0,1-.68.45.74.74,0,0,1-.68-.46l-.43-1.06-3.45-6.82-1,.13,5.07,9.17a.77.77,0,0,1,.09.36v7.29Z" transform="translate(-936.56 -163.62)"/><path class="cls-2" d="M1493.4,194.11a10.92,10.92,0,0,0,2.84,7.32h-8.14a5.37,5.37,0,0,1-3-5.24,1.59,1.59,0,0,0-.71-1.41,1.63,1.63,0,0,0-1.6-.12l-.17.11c-.07.06-6.2,5.21-18.08,6.66H1089c-11.88-1.45-16.81-6.6-16.87-6.66a.78.78,0,0,0-.18-.11,1.63,1.63,0,0,0-1.6.12,1.61,1.61,0,0,0-.71,1.41,5.37,5.37,0,0,1-3,5.24h-8.15a10.93,10.93,0,0,0,2.85-7.32,11,11,0,0,0-11-11c-4,0-7,1.82-9.66,5.73l-.51.76c-2.09,3.16-4.47,6.74-8.3,6.74a3.58,3.58,0,0,1-3-1.42,2,2,0,0,1-.47-1.38,1.87,1.87,0,1,0-3.55-1.18,5.47,5.47,0,0,0,1,4.76,7.34,7.34,0,0,0,6.06,3c4.09,0,6.89-2.4,9-5.05,0,0,0,.05,0,.08a6.85,6.85,0,0,0,6.27,4.15h.35a1.87,1.87,0,1,0-.19-3.74,3.14,3.14,0,0,1-3-1.91,4.19,4.19,0,0,1,1.16-4.73l0,0a6.58,6.58,0,0,1,4.81-2,7.28,7.28,0,0,1,0,14.56,1.7,1.7,0,0,0-.22,0H997.63a1.88,1.88,0,0,0-.12,3.75h559.57a1.91,1.91,0,0,0,2-1.88,1.87,1.87,0,0,0-1.87-1.87h-52.56a1.85,1.85,0,0,0-.23,0,7.28,7.28,0,0,1,0-14.56,6.58,6.58,0,0,1,4.81,2s0,0,0,0a4.17,4.17,0,0,1,1.16,4.73,3.12,3.12,0,0,1-3,1.91,1.87,1.87,0,0,0-.2,3.74h.36a6.84,6.84,0,0,0,6.26-4.15l0-.08c2.13,2.65,4.92,5.05,9,5.05a7.32,7.32,0,0,0,6-3,5.51,5.51,0,0,0,1-4.76,1.88,1.88,0,1,0-3.56,1.18,2,2,0,0,1-.47,1.38,3.54,3.54,0,0,1-3,1.42c-3.83,0-6.21-3.58-8.31-6.74l-.5-.76c-2.64-3.91-5.71-5.73-9.67-5.73A11,11,0,0,0,1493.4,194.11Z" transform="translate(-936.56 -163.62)"/><path class="cls-2" d="M1061.32,368.18a10.93,10.93,0,0,0-2.85-7.32h8.15a5.37,5.37,0,0,1,3,5.24,1.62,1.62,0,0,0,2.31,1.53.57.57,0,0,0,.18-.12c.06-.05,5-5.2,16.87-6.65H1464.5c11.88,1.45,18,6.6,18.08,6.65a.66.66,0,0,0,.17.12,1.63,1.63,0,0,0,1.6-.12,1.6,1.6,0,0,0,.71-1.41,5.37,5.37,0,0,1,3-5.24h8.14a11,11,0,0,0,8.18,18.34c4,0,7-1.82,9.67-5.72l.5-.77c2.1-3.16,4.48-6.73,8.31-6.73a3.54,3.54,0,0,1,3,1.41,2,2,0,0,1,.47,1.39,1.88,1.88,0,1,0,3.56,1.18,5.5,5.5,0,0,0-1-4.76,7.32,7.32,0,0,0-6-3c-4.1,0-6.89,2.39-9,5l0-.08a6.84,6.84,0,0,0-6.26-4.16h-.36a1.87,1.87,0,0,0,.2,3.74,3.13,3.13,0,0,1,3,1.92,4.17,4.17,0,0,1-1.16,4.73s0,0,0,.05a6.57,6.57,0,0,1-4.81,2,7.28,7.28,0,0,1,0-14.55,1.85,1.85,0,0,0,.23,0h52.56a1.88,1.88,0,0,0,1.87-1.88,1.91,1.91,0,0,0-2-1.87H997.51a1.85,1.85,0,0,0-1.75,1.87,1.88,1.88,0,0,0,1.87,1.88h52.44a1.7,1.7,0,0,0,.22,0,7.28,7.28,0,1,1,0,14.55,6.57,6.57,0,0,1-4.81-2l0-.05a4.19,4.19,0,0,1-1.16-4.73,3.14,3.14,0,0,1,3-1.92,1.87,1.87,0,1,0,.19-3.74h-.35a6.84,6.84,0,0,0-6.27,4.16s0,.05,0,.08c-2.13-2.66-4.93-5-9-5a7.34,7.34,0,0,0-6.06,3,5.46,5.46,0,0,0-1,4.76,1.87,1.87,0,1,0,3.55-1.18,2.05,2.05,0,0,1,.47-1.39,3.58,3.58,0,0,1,3-1.41c3.83,0,6.21,3.57,8.3,6.73l.51.77c2.63,3.9,5.7,5.72,9.66,5.72A11,11,0,0,0,1061.32,368.18Z" transform="translate(-936.56 -163.62)"/><path class="cls-1" d="M1130.53,233.3a1.46,1.46,0,0,0-1.6-1.62h-15a1.46,1.46,0,0,0-1.6,1.62c0,.79.77,1.74,1.84,3.06,1.42,1.74,1.09,3.9,1.09,6v77.36c0,2.14.34,4.3-1.07,6-1.09,1.34-1.86,2.28-1.86,3.07a1.45,1.45,0,0,0,1.6,1.62h15a1.45,1.45,0,0,0,1.6-1.62c0-.79-.77-1.73-1.84-3.05-1.43-1.75-1.09-3.9-1.09-6.05V242.4c0-2.14-.33-4.3,1.08-6C1129.76,235,1130.53,234.09,1130.53,233.3Zm46-1.62h-32.63a1.46,1.46,0,0,0-1.61,1.62c0,.79.78,1.74,1.85,3.06,1.42,1.74,1.08,3.9,1.08,6v77.36c0,2.14.34,4.3-1.07,6-1.08,1.32-1.86,2.27-1.86,3.06a1.45,1.45,0,0,0,1.61,1.62h15a1.45,1.45,0,0,0,1.61-1.62c0-.78-.77-1.73-1.84-3-1.43-1.76-1.09-3.92-1.09-6.06V306.11a3.54,3.54,0,0,1,1.27-3.12l24.61-18.37c2.76-2.35,4.17-4.84,4.17-7.37V242.79C1187.6,235.32,1184,231.68,1176.52,231.68ZM1175.27,273c0,2-.94,3.52-3.48,5.57l-12,8.88a5.42,5.42,0,0,1-1.41.9l-.63.2-.17-.64a1.86,1.86,0,0,1-.06-.48V245c0-1.42.85-2.28,1.67-2.28H1172c2.51,0,3.31.91,3.31,3.71Zm-75.68-41.28h-14.4a1.46,1.46,0,0,0-1.61,1.62c0,.79.78,1.74,1.85,3.06,1.42,1.74,1.08,3.9,1.08,6l0,57.47-26.14-64.09c-1-2.46-2.08-4.1-4.15-4.1H1045a1.46,1.46,0,0,0-1.6,1.62c0,.79.77,1.74,1.84,3.06,1.42,1.74,1.09,3.9,1.09,6v77.36c0,2.15.33,4.31-1.08,6.05-1.08,1.32-1.85,2.27-1.85,3.05a1.45,1.45,0,0,0,1.6,1.62h14.4a1.45,1.45,0,0,0,1.61-1.62c0-.79-.77-1.73-1.84-3.05-1.43-1.75-1.09-3.91-1.09-6.05V265.48l26.18,61c1.41,2.84,2.3,4,4.14,4h7.36c2.21,0,2.54-1.83,2.54-2.92V242.4c0-2.14-.33-4.3,1.09-6,1.07-1.32,1.84-2.27,1.84-3.06A1.46,1.46,0,0,0,1099.59,231.68Zm-68.39,0h-15a1.46,1.46,0,0,0-1.61,1.62c0,.79.77,1.74,1.85,3.06,1.42,1.74,1.08,3.9,1.08,6V317a2.19,2.19,0,0,1-1.9,2.41H1002c-1.28,0-2.14-.43-2.14-2.54V242.4c0-2.14-.33-4.3,1.08-6,1.08-1.32,1.85-2.27,1.85-3.06a1.46,1.46,0,0,0-1.6-1.62h-15a1.46,1.46,0,0,0-1.6,1.62c0,.79.77,1.74,1.85,3.06,1.41,1.74,1.08,3.9,1.08,6v79.44c0,5.33,3.62,8.64,9.44,8.64h23a9.61,9.61,0,0,0,9.9-9.29V242.4c0-2.14-.33-4.3,1.09-6,1.07-1.32,1.85-2.27,1.85-3.06A1.46,1.46,0,0,0,1031.2,231.68Zm-58.41,0h-15a1.46,1.46,0,0,0-1.61,1.62c0,.79.77,1.74,1.84,3,1.43,1.75,1.09,3.91,1.09,6.05v74.5c0,2.11-.85,2.54-2.13,2.54h-6.2a2.19,2.19,0,0,1-1.9-2.41V299.35c0-.8-.24-2.14-1.84-2.14-.3,0-1.86.46-9.2,6.31-.82.65-1.3,1.51-1.3,4v13.65a9.62,9.62,0,0,0,9.91,9.29H962c5.83,0,9.45-3.31,9.45-8.64V242.4c0-2.14-.34-4.3,1.07-6,1.08-1.32,1.86-2.27,1.86-3.06A1.46,1.46,0,0,0,972.79,231.68Zm392.13,0h-23c-5.82,0-9.44,3.31-9.44,8.64v81.52c0,5.33,3.62,8.64,9.44,8.64h23a9.62,9.62,0,0,0,9.91-9.29V281c0-.8-.24-2.14-1.84-2.14-.65,0-4.82,1.8-14.41,6.86-1.49,1.07-2.52,1.81-2.52,3.6v10.4c0,.93.36,2,1.37,2a7.52,7.52,0,0,0,2.78-1.16,15.5,15.5,0,0,1,1.39-.71l.71-.27.14.74a3.12,3.12,0,0,1,0,.56V317a2.19,2.19,0,0,1-1.9,2.41h-13.68c-1.28,0-2.14-.43-2.14-2.54V245.26c0-2.11.86-2.54,2.14-2.54h13.68a2.19,2.19,0,0,1,1.9,2.41V261.9c0,.8.24,2.15,1.84,2.15.3,0,1.86-.46,9.2-6.31.82-.65,1.3-1.52,1.3-4V241A9.62,9.62,0,0,0,1364.92,231.68Zm113.4,0h-23c-5.82,0-9.44,3.31-9.44,8.64v81.52c0,5.33,3.62,8.64,9.44,8.64h23a9.62,9.62,0,0,0,9.91-9.29V241A9.62,9.62,0,0,0,1478.32,231.68ZM1475.89,317a2.19,2.19,0,0,1-1.9,2.41h-13.68c-1.28,0-2.14-.43-2.14-2.54V245.26c0-2.11.86-2.54,2.14-2.54H1474a2.19,2.19,0,0,1,1.9,2.41Zm-43.59,4.24c-1.18-3-11.33-33.85-11.33-33.85l7.78-6.05a8.31,8.31,0,0,0,3.37-6.72V242.79c0-7.47-3.63-11.11-11.08-11.11h-33.8a1.46,1.46,0,0,0-1.61,1.62c0,.79.77,1.74,1.83,3,1.43,1.76,1.1,3.91,1.1,6.06v77.36c0,2.15.34,4.31-1.08,6-1.08,1.33-1.85,2.28-1.85,3.06a1.45,1.45,0,0,0,1.61,1.62h15a1.45,1.45,0,0,0,1.61-1.62c0-.79-.78-1.74-1.85-3.05-1.42-1.74-1.08-3.9-1.08-6.05V303.51a3.56,3.56,0,0,1,1.26-3.12l7.14-5.2.27.81c4.17,12.32,6.9,20.95,8.11,25.65l.3,1.16a8,8,0,0,1,.28,1.37,3.55,3.55,0,0,1-1.33,2.45,3.41,3.41,0,0,0-1.24,2.23,1.45,1.45,0,0,0,1.61,1.62h18a1.45,1.45,0,0,0,1.61-1.62c0-.93-.6-1.61-1.77-2.85A11.23,11.23,0,0,1,1432.3,321.27Zm-12.52-51.56c0,2-.94,3.52-3.46,5.57l-13.48,9.77a6.14,6.14,0,0,1-1,.6l-.69.31-.18-.74a3.06,3.06,0,0,1,0-.56V245c0-1.42.84-2.28,1.66-2.28h13.92c2.5,0,3.3.91,3.3,3.71Zm177.91-14c.3,0,1.85-.45,9.21-6.31.81-.65,1.29-1.51,1.29-4V235.12c0-2.18-1.44-3.44-4-3.44h-38.83a1.46,1.46,0,0,0-1.61,1.62c0,.79.78,1.74,1.85,3,1.42,1.75,1.08,3.9,1.08,6.05v47.71l-.27.18a39.19,39.19,0,0,1-5.82,3.45.41.41,0,0,0-.23.25.42.42,0,0,0,0,.33,10,10,0,0,0,5.83,4.32l.45.13v21c0,2.15.34,4.31-1.08,6-1.07,1.33-1.85,2.27-1.85,3.06a1.46,1.46,0,0,0,1.61,1.62h38.95c2.54,0,3.83-1.33,3.83-4V305.38c0-.8-.24-2.14-1.85-2.14-.21,0-1.65.28-9.23,5.68-.79.63-1.26,1.5-1.26,4V317a2.19,2.19,0,0,1-1.9,2.41H1580.5c-.69,0-1.43-.46-1.43-1.76v-22l.52-.38a3.81,3.81,0,0,0,.32-.24c4-3.38,15.47-12.65,20.81-15a.39.39,0,0,0,.22-.25.42.42,0,0,0,0-.33,9.91,9.91,0,0,0-6.53-4.66,11.49,11.49,0,0,0-3.06-.21,18.55,18.55,0,0,0-9.9,4.16l-1.31,1.1-1,.86V244.48c0-1.2.42-1.76,1.32-1.76h13.8c.81,0,1.66.86,1.66,2.28v8.53C1595.85,254.33,1596.09,255.67,1597.69,255.67Zm-299.6,65.6c-1.18-3-11.33-33.85-11.33-33.85l7.78-6.05a8.28,8.28,0,0,0,3.37-6.72V242.79c0-7.47-3.62-11.11-11.08-11.11H1253a1.46,1.46,0,0,0-1.61,1.62c0,.79.77,1.74,1.84,3,1.43,1.76,1.09,3.91,1.09,6.06v77.36c0,2.15.34,4.31-1.08,6-1.08,1.33-1.85,2.28-1.85,3.06a1.45,1.45,0,0,0,1.61,1.62h15a1.45,1.45,0,0,0,1.61-1.62c0-.79-.77-1.74-1.85-3.05-1.42-1.74-1.08-3.9-1.08-6.05V303.51a3.56,3.56,0,0,1,1.26-3.12l7.14-5.2.27.81c4.17,12.32,6.9,20.95,8.12,25.65l.29,1.16a7,7,0,0,1,.28,1.37,3.57,3.57,0,0,1-1.32,2.45,3.39,3.39,0,0,0-1.25,2.23,1.45,1.45,0,0,0,1.61,1.62h18a1.45,1.45,0,0,0,1.6-1.62c0-.93-.6-1.61-1.76-2.85A11.22,11.22,0,0,1,1298.09,321.27Zm-12.52-51.56c0,2-.94,3.52-3.46,5.57l-15.42,11.17V245c0-1.42.84-2.28,1.66-2.28h13.92c2.5,0,3.3.91,3.3,3.71Zm-48.22-38h-38.83a1.46,1.46,0,0,0-1.61,1.62c0,.79.78,1.74,1.85,3.06,1.42,1.74,1.08,3.89,1.08,6v47.67l-.27.19a41,41,0,0,1-5.88,3.48.43.43,0,0,0-.23.25.43.43,0,0,0,0,.33,10,10,0,0,0,5.88,4.34l.45.13v21c0,2.15.34,4.31-1.08,6-1.07,1.32-1.85,2.27-1.85,3.06a1.45,1.45,0,0,0,1.61,1.62h39c2.54,0,3.83-1.33,3.83-4V305.38c0-.8-.24-2.14-1.85-2.14-.29,0-1.84.41-9.23,5.68-.79.63-1.26,1.5-1.26,4V317a2.19,2.19,0,0,1-1.9,2.41h-13.45c-.69,0-1.43-.46-1.43-1.76v-22l.5-.38a2.64,2.64,0,0,0,.29-.21c4-3.38,15.46-12.65,20.8-15a.43.43,0,0,0,.23-.25.42.42,0,0,0,0-.33,9.93,9.93,0,0,0-6.53-4.66,11.53,11.53,0,0,0-3.07-.21,18.55,18.55,0,0,0-9.9,4.16l-1.25,1.05-1,.86V244.48c0-1.2.42-1.76,1.32-1.76h13.79c.81,0,1.67.8,1.67,2.28v8.53c0,.8.24,2.14,1.84,2.14.3,0,1.85-.45,9.2-6.31.82-.64,1.3-1.51,1.3-4V235.12C1241.3,232.94,1239.86,231.68,1237.35,231.68Zm315.9,0h-16.4a1.46,1.46,0,0,0-1.6,1.62,7.61,7.61,0,0,0,1.3,2.58,10.8,10.8,0,0,1,1.15,7.18c-1.4,6.48-12.76,60.76-12.76,60.76s-11.36-54.28-12.77-60.76a10.8,10.8,0,0,1,1.15-7.18,7.61,7.61,0,0,0,1.3-2.58,1.46,1.46,0,0,0-1.6-1.62h-16.39a1.46,1.46,0,0,0-1.61,1.62c0,.79.71,1.61,1.68,2.75,1.37,1.6,1.74,3.79,2.43,6.95l17.32,76.9a9.44,9.44,0,0,1-.85,6.2,7.19,7.19,0,0,0-1.07,2.76,1.45,1.45,0,0,0,1.61,1.62h17.59a1.45,1.45,0,0,0,1.61-1.62,7.19,7.19,0,0,0-1.07-2.76,9.44,9.44,0,0,1-.85-6.2l17.32-76.9c.69-3.16,1.06-5.35,2.43-6.95,1-1.14,1.68-2,1.68-2.75A1.46,1.46,0,0,0,1553.25,231.68Z" transform="translate(-936.56 -163.62)"/><path class="cls-1" d="M1282.79,485.15c.29.55.59,1.15.9,1.84.24.54.46,1.06.65,1.59a23.37,23.37,0,0,1,7.62-3.21c4.14-8.42,2.36-15,1.72-16.83a.4.4,0,0,0-.37-.26,19.57,19.57,0,0,0-8.16,3.54c-.37.27-.75.56-1.13.87s-.74.63-1.12,1a28,28,0,0,0-4.61,5.64A23.23,23.23,0,0,1,1282.79,485.15Zm.84,22.26c.21.5.41,1,.61,1.64a29.24,29.24,0,0,1,7.64-3.32c4.24-8.49,2.45-15.15,1.8-17a.4.4,0,0,0-.14-.16.35.35,0,0,0-.23-.1c-.3,0-.63.11-1,.2a16.43,16.43,0,0,0-1.89.56,21,21,0,0,0-5.26,2.79c-.37.27-.75.56-1.13.86s-.74.63-1.12,1a27.23,27.23,0,0,0-3.54,4l-.66,1c-.15.22-.29.45-.44.68l.34.32c.32.31.65.66,1,1.06a23.09,23.09,0,0,1,3.14,4.61C1283.09,506.19,1283.38,506.8,1283.63,507.41ZM1269.34,511c.77.58,1.42,1.12,2,1.67l.33.31c.34.32.68.63,1,1l.21.2c.43.43.82.86,1.21,1.29s.84.95,1.23,1.42c.4-.5.79-.94,1.19-1.38s.81-.9,1.24-1.33l.21-.2c.34-.34.68-.65,1-1l.33-.32c.62-.55,1.28-1.09,2-1.67-.14-.48-.29-.94-.47-1.43a20.35,20.35,0,0,0-3.56-6.23c-.36-.42-.72-.8-1.08-1.15l-.08-.08-.62-.56a.35.35,0,0,0-.19-.06.42.42,0,0,0-.26.07c-.16.13-.38.33-.62.55l-.07.07c-.36.35-.73.74-1.09,1.16a20.35,20.35,0,0,0-3.56,6.23C1269.63,510.08,1269.48,510.55,1269.34,511Zm6-29.77a.6.6,0,0,0-.21.09c-.19.16-.43.37-.7.63s-.66.66-1,1a21.23,21.23,0,0,0-3.72,6.15c-.18.44-.35.92-.53,1.48a30.49,30.49,0,0,1,2.22,2.1c.47.5.94,1,1.38,1.57.63.76,1.14,1.43,1.61,2.11.34.49.67,1,1,1.52.32-.53.65-1,1-1.52.47-.68,1-1.35,1.6-2.11.45-.54.91-1.07,1.39-1.57a28.49,28.49,0,0,1,2.21-2.1c-.18-.56-.35-1-.52-1.48a21.25,21.25,0,0,0-3.73-6.15c-.34-.38-.68-.73-1-1s-.51-.47-.7-.63a.33.33,0,0,0-.19-.07Zm24.93,27.36a.48.48,0,0,0-.42-.42,14,14,0,0,0-1.42-.07,21.37,21.37,0,0,0-4.5.51c-.58.12-1.17.27-1.75.45s-1.29.41-2,.68a27.32,27.32,0,0,0-5.25,2.77c-.39.26-.78.53-1.17.82s-.78.59-1.17.91-.75.62-1.12,1-.9.83-1.35,1.28l-.4.42-.22.24c-.66.69-1.26,1.38-1.81,2.06l-.45.54c-.28.38-.54.74-.79,1.1l-.1.15c-.28.41-.5.75-.71,1.1l-.21.32h0a24.94,24.94,0,0,0-3.43,9.21c-.1.69-.18,1.34-.21,1.94,0,.34,0,.67,0,1V546.7a2,2,0,1,0,4,0V536.57a22.94,22.94,0,0,0,2.7-.44l.74-.18c.43-.11.88-.24,1.34-.39s.87-.3,1.32-.47a29.45,29.45,0,0,0,10.14-6.77C1300.56,519.72,1300.5,511.06,1300.27,508.61ZM1272.45,521l.09-.15.27-.43.22-.36c.09-.16.19-.31.3-.47l0,0-.31-.37c-.54-.68-1.15-1.37-1.81-2.06l-.22-.24c-.13-.14-.25-.28-.4-.42-.45-.45-.9-.88-1.35-1.28s-.75-.65-1.12-1-.78-.62-1.17-.91-.78-.56-1.17-.83a27.83,27.83,0,0,0-5.25-2.76c-.68-.27-1.34-.49-2-.68s-1.17-.33-1.74-.45a21.51,21.51,0,0,0-4.51-.51,14.15,14.15,0,0,0-1.42.07.48.48,0,0,0-.42.42c-.22,2.45-.28,11.11,8.31,19.71a29.66,29.66,0,0,0,9.69,6.59,24.14,24.14,0,0,1,.16-2.77c.07-.65.18-1.37.34-2.14s.32-1.47.5-2.11a28.83,28.83,0,0,1,2.69-6.37C1272.26,521.36,1272.35,521.2,1272.45,521Zm-5.94-12c.21-.61.41-1.14.61-1.64s.54-1.21.89-1.88a22.64,22.64,0,0,1,3.13-4.61c.36-.4.69-.75,1-1l.36-.34c-.15-.23-.29-.46-.44-.68l-.66-1a26.66,26.66,0,0,0-3.54-4c-.38-.35-.75-.67-1.12-1s-.75-.59-1.13-.86a21,21,0,0,0-5.26-2.79,16.43,16.43,0,0,0-1.89-.56c-.38-.09-.71-.15-1-.19a.39.39,0,0,0-.29.09.4.4,0,0,0-.14.16c-.65,1.85-2.44,8.52,1.8,17A29.09,29.09,0,0,1,1266.51,509.05Zm-.1-20.47c.2-.53.42-1.06.65-1.59.31-.68.61-1.3.91-1.84a23,23,0,0,1,4.49-5.85,27.38,27.38,0,0,0-4.61-5.64c-.38-.34-.75-.67-1.12-1s-.76-.6-1.13-.87a19.7,19.7,0,0,0-8.1-3.54h0a.43.43,0,0,0-.42.26c-.64,1.82-2.42,8.41,1.72,16.83A23.37,23.37,0,0,1,1266.41,488.58Zm9-10.84a30,30,0,0,1,6.19-7.29,20.13,20.13,0,0,0-6-9.3.41.41,0,0,0-.49,0,20.13,20.13,0,0,0-6,9.3A30.28,30.28,0,0,1,1275.38,477.74Z" transform="translate(-936.56 -163.62)"/><path class="cls-1" d="M1430.28,504.21c-.82-1.85-4-5.61-5.7-7.28-2.09-2.09-4.07-3.49-5-2.56s.47,2.92,2.55,5a50.93,50.93,0,0,0,4.81,4.12h-5a43,43,0,0,0-5.33-6.57c-2.09-2.09-4.06-3.49-5-2.56s.47,2.92,2.56,5a50.68,50.68,0,0,0,4.8,4.12h-3.91a1.39,1.39,0,1,0,0,2.78h3.85a50.82,50.82,0,0,0-4.74,4.08c-2.09,2.09-3.5,4.07-2.56,5s2.91-.48,5-2.56a42.73,42.73,0,0,0,5.3-6.53h5a51.08,51.08,0,0,0-4.75,4.08c-2.08,2.09-3.49,4.07-2.55,5s2.91-.48,5-2.56a38.84,38.84,0,0,0,5.63-7.13,2.27,2.27,0,0,0,.27-.79A1.71,1.71,0,0,0,1430.28,504.21Zm12.57-25.55c-2.09-2.09-4.06-3.5-5-2.56s.47,2.91,2.56,5a37.77,37.77,0,0,0,7.13,5.63,2.2,2.2,0,0,0,.78.28,1.65,1.65,0,0,0,.68-.21c1.85-.82,5.61-4,7.28-5.7,2.09-2.09,3.5-4.07,2.56-5s-2.91.47-5,2.56a50.63,50.63,0,0,0-4.13,4.8v-5a42.6,42.6,0,0,0,6.57-5.32c2.09-2.09,3.5-4.07,2.56-5s-2.91.47-5,2.56a50.63,50.63,0,0,0-4.13,4.8v-3.91a1.39,1.39,0,0,0-2.78,0v3.85a50.62,50.62,0,0,0-4.08-4.74c-2.09-2.09-4.06-3.49-5-2.56s.47,2.92,2.56,5a43.86,43.86,0,0,0,6.52,5.3v4.95A49.36,49.36,0,0,0,1442.85,478.66Zm-6.14,24.22a7.08,7.08,0,0,0,1,0,10.73,10.73,0,0,1,7.64-8.39,8,8,0,1,0-8.67,8.39Zm13.63-9.65a7.23,7.23,0,0,0,0,1,10.71,10.71,0,0,1,6.32,3.71,10.86,10.86,0,0,1,2.07,3.93,8,8,0,1,0-8.38-8.68Zm9.65,13.63a7.22,7.22,0,0,0-1,0,10.72,10.72,0,0,1-7.64,8.39,8,8,0,1,0,8.68-8.39Zm17.72-.62h3.92a1.39,1.39,0,1,0,0-2.78h-3.86a50.82,50.82,0,0,0,4.74-4.08c2.09-2.09,3.5-4.07,2.56-5s-2.91.47-5,2.56a43.34,43.34,0,0,0-5.3,6.53h-5a52.15,52.15,0,0,0,4.74-4.08c2.09-2.09,3.49-4.07,2.56-5s-2.92.47-5,2.56c-1.62,1.63-4.71,5.23-5.62,7.13a2.08,2.08,0,0,0-.28.79,1.89,1.89,0,0,0,.2.68c.82,1.85,4,5.61,5.7,7.28,2.09,2.08,4.07,3.49,5,2.56s-.47-2.92-2.56-5a50.68,50.68,0,0,0-4.8-4.12h5a43,43,0,0,0,5.33,6.57c2.09,2.08,4.07,3.49,5,2.56s-.47-2.92-2.56-5A49.44,49.44,0,0,0,1477.71,506.24Zm-31.35,10.27a9,9,0,0,0,0-1,10.72,10.72,0,0,1-8.38-7.64,8,8,0,1,0,8.38,8.68Zm7.48,14.57c2.09,2.09,4.07,3.5,5,2.56s-.47-2.91-2.56-5a37.77,37.77,0,0,0-7.13-5.63,2.2,2.2,0,0,0-.78-.28,1.65,1.65,0,0,0-.68.21c-1.85.82-5.61,4-7.28,5.7-2.09,2.09-3.49,4.06-2.56,5s2.91-.47,5-2.56a49.22,49.22,0,0,0,4.13-4.8v5a43.08,43.08,0,0,0-6.57,5.32c-2.09,2.09-3.49,4.07-2.56,5s2.91-.47,5-2.56a50.44,50.44,0,0,0,4.13-4.8v3.91a1.39,1.39,0,0,0,2.78,0V534.3a50.62,50.62,0,0,0,4.08,4.74c2.09,2.09,4.07,3.49,5,2.56s-.47-2.92-2.56-5a43.86,43.86,0,0,0-6.52-5.3v-4.95A49.36,49.36,0,0,0,1453.84,531.08Zm2.48-26.21a8,8,0,1,1-8-8A8,8,0,0,1,1456.32,504.87Z" transform="translate(-936.56 -163.62)"/><path class="cls-1" d="M1077.27,502.93a.62.62,0,0,0,.83-.54c.2-3.47,2.39-7.27,4.74-9.64l-1.87-2.18c-1.28-1.49-2.61-3-3.88-4.56a.49.49,0,0,1,.07-.69.48.48,0,0,1,.62,0h0c1.54,1.27,3.07,2.59,4.56,3.87l2.18,1.88c2.37-2.35,6.18-4.54,9.65-4.74a.61.61,0,0,0,.53-.83c-1.56-4.08-6.26-7-10.89-7a13,13,0,0,0-9.55,4,12.82,12.82,0,0,0-4,9.51C1070.3,496.66,1073.19,501.37,1077.27,502.93Zm38.5,3.63a.61.61,0,0,0-.83.54c-.21,3.47-2.4,7.27-4.75,9.64l1.88,2.19c1.28,1.48,2.6,3,3.87,4.55a.49.49,0,0,1-.06.69.48.48,0,0,1-.62,0h0c-1.53-1.27-3.07-2.59-4.55-3.87l-2.19-1.88c-2.36,2.35-6.17,4.54-9.64,4.75a.61.61,0,0,0-.54.82c1.57,4.08,6.27,7,10.9,7a13,13,0,0,0,9.54-4,12.8,12.8,0,0,0,4-9.51C1122.74,512.83,1119.84,508.12,1115.77,506.56ZM1086,475.66c3.6.21,7.58,2.55,9.92,5a.6.6,0,0,0,.87,0c2.34-2.45,6.32-4.79,9.92-5a.62.62,0,0,0,.54-.83c-1.57-4.08-6.27-7-10.9-7s-9.33,2.89-10.89,7A.62.62,0,0,0,1086,475.66Zm40.4,18.3a.61.61,0,0,0-.82.54c-.22,3.6-2.56,7.58-5,9.92a.61.61,0,0,0,0,.88c2.45,2.34,4.79,6.32,5,9.91a.6.6,0,0,0,.82.54c4.08-1.56,7-6.26,7-10.89S1130.51,495.53,1126.43,494Zm-31.73,30a.61.61,0,0,0-.54-.83c-3.46-.2-7.27-2.39-9.64-4.74l-2.18,1.88c-1.49,1.28-3,2.6-4.56,3.87a.49.49,0,0,1-.69-.69h0c1.27-1.54,2.6-3.07,3.88-4.55l1.87-2.19c-2.35-2.37-4.54-6.17-4.74-9.64a.62.62,0,0,0-.83-.54c-4.08,1.56-7,6.27-7,10.89a13,13,0,0,0,4,9.55,12.76,12.76,0,0,0,9.5,4C1088.44,531,1093.14,528.07,1094.7,524Zm-22.51-19.55c-2.45-2.34-4.79-6.32-5-9.91a.61.61,0,0,0-.83-.54c-4.07,1.56-7,6.26-7,10.89s2.9,9.33,7,10.89a.61.61,0,0,0,.83-.53c.22-3.6,2.56-7.58,5-9.92A.63.63,0,0,0,1072.19,504.44Zm34.57,29.64c-3.6-.21-7.58-2.56-9.92-5a.6.6,0,0,0-.87,0c-2.34,2.44-6.32,4.79-9.92,5a.62.62,0,0,0-.54.83c1.56,4.08,6.27,7,10.89,7s9.33-2.89,10.9-7A.62.62,0,0,0,1106.76,534.08Zm-8.43-48.58a.62.62,0,0,0,.54.83c3.47.2,7.28,2.39,9.64,4.74l2.19-1.88c1.48-1.28,3-2.6,4.55-3.87a.49.49,0,0,1,.69.07.48.48,0,0,1,0,.62h0c-1.27,1.54-2.59,3.07-3.87,4.56-.63.72-1.25,1.45-1.87,2.18,2.34,2.37,4.53,6.17,4.74,9.64a.61.61,0,0,0,.83.54c4.07-1.56,7-6.27,7-10.89a13,13,0,0,0-4-9.55,12.76,12.76,0,0,0-9.5-4C1104.6,478.53,1099.9,481.42,1098.33,485.5Zm7.93,9.42a14.08,14.08,0,1,0-19.73,19.9,14.08,14.08,0,1,0,19.73-19.9Zm-3.54,16.27a.17.17,0,0,1-.18,0,18.38,18.38,0,0,1-5.82-4,.44.44,0,0,0-.32-.13.44.44,0,0,0-.31.13,18.19,18.19,0,0,1-5.84,4l-.06,0a.18.18,0,0,1-.12-.05.15.15,0,0,1,0-.18,18.19,18.19,0,0,1,4-5.82.44.44,0,0,0,0-.64,18.26,18.26,0,0,1-4-5.83.16.16,0,0,1,0-.18.15.15,0,0,1,.18,0,18.38,18.38,0,0,1,5.82,4,.44.44,0,0,0,.31.13.44.44,0,0,0,.32-.13,18.29,18.29,0,0,1,5.83-4,.19.19,0,0,1,.19,0,.17.17,0,0,1,0,.18,18.35,18.35,0,0,1-4,5.82.43.43,0,0,0-.14.32.45.45,0,0,0,.14.32,18.26,18.26,0,0,1,4,5.83A.16.16,0,0,1,1102.72,511.19Z" transform="translate(-936.56 -163.62)"/></svg>