<?xml version="1.0" encoding="utf-8"?>
<!-- Generator: Adobe Illustrator 23.0.1, SVG Export Plug-In . SVG Version: 6.00 Build 0)  -->
<svg version="1.1" id="Layer_1" xmlns="http://www.w3.org/2000/svg" xmlns:xlink="http://www.w3.org/1999/xlink" x="0px" y="0px"
	 viewBox="0 0 1000 1000" style="enable-background:new 0 0 1000 1000;" xml:space="preserve">
<style type="text/css">
	.st0{fill:#FFFFFF;}
	.st1{fill-rule:evenodd;clip-rule:evenodd;fill:#FFFFFF;}
</style>
<polygon class="st0" points="400.061,453.991 400.061,439.134 397.401,439.134 392.033,448.49 386.599,439.134 384.005,439.134 
	384.005,453.991 386.778,453.991 386.778,445.187 392.033,453.991 397.244,445.187 397.244,453.991 "/>
<rect x="407.039" y="439.134" class="st0" width="2.817" height="14.857"/>
<polygon class="st0" points="419.686,443.723 428.025,453.991 430.841,453.991 430.841,439.134 427.979,439.134 427.979,449.511 
	419.641,439.134 416.869,439.134 416.869,453.991 419.686,453.991 "/>
<path class="st0" d="M449.459,441.306c-1.456-1.449-3.213-2.172-5.267-2.172h-6.52v14.857h6.52c2.055,0,3.811-0.728,5.267-2.184
	c1.456-1.457,2.185-3.213,2.185-5.267C451.645,444.5,450.915,442.755,449.459,441.306 M447.441,449.822
	c-0.895,0.902-1.977,1.352-3.249,1.352h-3.704v-9.224h3.704c1.272,0,2.354,0.452,3.249,1.353c0.895,0.902,1.342,1.98,1.342,3.237
	C448.783,447.825,448.336,448.92,447.441,449.822"/>
<polygon class="st0" points="469.706,441.949 469.706,439.133 457.886,439.133 457.886,453.99 469.928,453.99 469.928,451.175 
	460.703,451.175 460.703,447.537 465.914,447.537 465.914,444.654 460.703,444.654 460.703,441.949 "/>
<polygon class="st0" points="487.456,449.511 479.119,439.134 476.346,439.134 476.346,453.991 479.162,453.991 479.162,443.723 
	487.501,453.991 490.317,453.991 490.317,439.134 487.456,439.134 "/>
<polygon class="st0" points="509.988,443.723 518.325,453.991 521.143,453.991 521.143,439.134 518.282,439.134 518.282,449.511 
	509.945,439.134 507.171,439.134 507.171,453.991 509.988,453.991 "/>
<polygon class="st0" points="540.049,451.174 530.823,451.174 530.823,447.538 536.034,447.538 536.034,444.655 530.823,444.655 
	530.823,441.948 539.826,441.948 539.826,439.133 528.008,439.133 528.008,453.991 540.049,453.991 "/>
<polygon class="st0" points="551.167,453.991 554.628,453.991 560.658,439.134 557.533,439.134 552.898,450.553 548.151,439.134 
	545.136,439.134 "/>
<path class="st0" d="M576.83,453.991h3.128l-7.031-14.859h-2.814l-7.031,14.859h3.127l1.552-3.239h7.562L576.83,453.991z
	 M569.07,447.892l2.46-5.168l2.442,5.168H569.07z"/>
<path class="st0" d="M585.138,439.132v14.859h6.521c2.055,0,3.81-0.728,5.266-2.184c1.456-1.457,2.184-3.213,2.184-5.267
	c0-2.04-0.728-3.785-2.184-5.234c-1.456-1.449-3.211-2.174-5.266-2.174H585.138z M596.248,446.54c0,1.285-0.448,2.379-1.342,3.282
	c-0.895,0.902-1.979,1.352-3.247,1.352h-3.706v-9.224h3.706c1.269,0,2.352,0.452,3.247,1.352
	C595.8,444.204,596.248,445.283,596.248,446.54"/>
<path class="st0" d="M603.012,453.991h3.127l1.552-3.239h7.562l1.509,3.239h3.127l-7.031-14.859h-2.816L603.012,453.991z
	 M613.901,447.892h-4.902l2.46-5.168L613.901,447.892z"/>
<polygon class="st0" points="370.606,556.285 365.178,556.285 365.178,559.798 374.728,559.798 374.728,562.569 361.956,562.569 
	361.956,547.861 374.21,547.861 374.21,550.654 365.178,550.654 365.178,553.514 370.606,553.514 "/>
<path class="st0" d="M390.993,551.645c-0.878-0.653-2.725-1.578-5.158-1.578c-1.464,0-2.771,0.541-2.771,1.803
	c0,1.307,1.937,1.396,3.851,1.555c2.682,0.18,6.87,0.495,6.87,4.549c0,3.626-3.017,5.046-6.622,5.046
	c-3.807,0-6.374-1.51-8.086-2.905l1.823-2.208c1.239,0.991,3.335,2.48,6.308,2.48c1.871,0,3.357-0.721,3.357-2.096
	c0-1.419-1.509-1.735-3.716-1.916c-3.223-0.202-7.006-0.562-7.006-4.303c0-3.558,3.31-4.662,6.081-4.662
	c3.064,0,5.654,1.125,6.917,1.984L390.993,551.645z"/>
<polygon class="st0" points="397.911,547.861 411.787,547.861 411.787,550.653 406.47,550.653 406.47,562.571 403.25,562.571 
	403.25,550.653 397.911,550.653 "/>
<path class="st0" d="M420.619,547.861h2.769l6.826,14.708h-3.537l-1.352-3.108h-6.802l-1.328,3.108h-3.401L420.619,547.861z
	 M419.627,556.915h4.596l-2.23-5.203h-0.136L419.627,556.915z"/>
<polygon class="st0" points="432.221,547.861 446.097,547.861 446.097,550.653 440.781,550.653 440.781,562.571 437.56,562.571 
	437.56,550.653 432.221,550.653 "/>
<polygon class="st0" points="460.267,556.285 454.838,556.285 454.838,559.798 464.39,559.798 464.39,562.569 451.617,562.569 
	451.617,547.861 463.872,547.861 463.872,550.654 454.838,550.654 454.838,553.514 460.267,553.514 "/>
<path class="st0" d="M477.93,562.569v-14.708h6.915c2.703,0,4.46,0.764,5.767,2.094c1.284,1.33,1.982,3.175,1.982,5.247
	c0,2.141-0.743,4.078-2.116,5.429c-1.262,1.194-2.862,1.937-5.633,1.937H477.93z M484.733,559.798c1.689,0,2.387-0.382,3.153-1.059
	c0.857-0.855,1.353-2.026,1.353-3.514c0-1.396-0.428-2.567-1.239-3.401c-0.744-0.744-1.532-1.171-3.267-1.171h-3.582v9.145H484.733z
	"/>
<rect x="498.7" y="547.861" class="st0" width="3.221" height="14.71"/>
<path class="st0" d="M519.584,551.645c-0.878-0.653-2.725-1.578-5.158-1.578c-1.464,0-2.773,0.541-2.773,1.803
	c0,1.307,1.939,1.396,3.853,1.555c2.682,0.18,6.87,0.495,6.87,4.549c0,3.626-3.017,5.046-6.62,5.046
	c-3.808,0-6.377-1.51-8.089-2.905l1.825-2.208c1.239,0.991,3.335,2.48,6.308,2.48c1.871,0,3.357-0.721,3.357-2.096
	c0-1.419-1.509-1.735-3.717-1.916c-3.221-0.202-7.004-0.562-7.004-4.303c0-3.558,3.31-4.662,6.083-4.662
	c3.062,0,5.653,1.125,6.915,1.984L519.584,551.645z"/>
<polygon class="st0" points="526.5,547.861 540.378,547.861 540.378,550.653 535.061,550.653 535.061,562.571 531.842,562.571 
	531.842,550.653 526.5,550.653 "/>
<rect x="545.896" y="547.861" class="st0" width="3.223" height="14.71"/>
<polygon class="st0" points="559.594,547.861 559.594,559.798 568.244,559.798 568.244,562.571 556.373,562.571 556.373,547.861 "/>
<polygon class="st0" points="576.828,547.861 576.828,559.798 585.478,559.798 585.478,562.571 573.607,562.571 573.607,547.861 "/>
<polygon class="st0" points="599.489,556.285 594.061,556.285 594.061,559.798 603.611,559.798 603.611,562.569 590.838,562.569 
	590.838,547.861 603.093,547.861 603.093,550.654 594.061,550.654 594.061,553.514 599.489,553.514 "/>
<path class="st0" d="M609.471,562.57v-14.708h8.152c2.096,0,3.471,0.607,4.415,1.598c0.768,0.811,1.219,1.869,1.219,3.041
	c0,1.892-1.171,3.357-2.974,4.146l3.446,5.924h-3.696l-2.971-5.406h-4.371v5.406H609.471z M612.692,550.586v3.853h5.272
	c1.125,0,2.05-0.812,2.05-1.939c0-0.495-0.182-0.945-0.519-1.284c-0.518-0.562-1.171-0.63-1.757-0.63H612.692z"/>
<polygon class="st0" points="642.135,547.861 636.3,555.856 636.3,562.571 633.058,562.571 633.058,555.856 627.2,547.861 
	631.21,547.861 634.793,552.974 638.351,547.861 "/>
<path class="st1" d="M209.53,500.774l0.002,0.457l-0.003,0.67c-0.012,2.003-0.023,4.074-0.069,5.99
	c-0.023,1.39-0.074,2.69-0.124,3.947c-0.025,0.65-0.05,1.272-0.069,1.861c-0.144,3.365-0.339,5.649-0.341,5.673
	c-0.008,0.081-0.076,0.144-0.157,0.144c-0.081,0-0.151-0.063-0.157-0.144c-0.002-0.023-0.197-2.308-0.342-5.671
	c-0.018-0.599-0.043-1.232-0.069-1.894c-0.048-1.247-0.099-2.538-0.122-3.917c-0.048-1.939-0.06-4.036-0.069-6.065l-0.003-0.592
	l0.003-0.529c0.01-2.05,0.023-4.17,0.071-6.131c0.025-1.385,0.074-2.683,0.124-3.936c0.025-0.655,0.05-1.28,0.068-1.871
	c0.146-3.365,0.339-5.651,0.341-5.673c0.007-0.083,0.076-0.144,0.157-0.144c0.081,0,0.149,0.063,0.157,0.144
	c0.002,0.022,0.194,2.308,0.341,5.671v0.002c0.018,0.591,0.043,1.216,0.068,1.871c0.05,1.252,0.099,2.551,0.126,3.937
	C209.505,496.554,209.517,498.7,209.53,500.774 M202.673,504.673c0-1.211-0.786-1.792-0.971-1.94
	c-0.185-0.151-2.402-1.831-2.402-1.831s2.217-1.682,2.402-1.831c0.185-0.151,0.971-0.73,0.971-1.942v-9.549
	c-0.018-1.886-0.103-3.28-0.248-4.139c-0.242-1.363-0.902-2.132-2.074-2.417c-0.579-0.146-1.438-0.22-2.558-0.22h-2.227v-2.941
	h41.84v17.63h-2.111l-0.17-0.321c-2.033-3.811-4.548-7.378-7.476-10.599c-1.939-2.058-3.654-3.239-5.09-3.504
	c-0.744-0.177-1.624-0.265-2.648-0.265h-4.424v17.598l0.796,0.003c3.229,0,5.985-2.51,8.19-7.459l0.16-0.359h2.253v18.652h-2.268
	l-0.154-0.38c-0.708-1.755-1.702-3.347-2.956-4.728c-1.016-1.084-2.027-1.871-2.996-2.334c-0.635-0.299-1.456-0.452-2.44-0.452
	h-0.586v19.836h3.175c2.088,0,3.924-0.414,5.456-1.226c2.121-1.036,4.743-3.643,7.816-7.76c1.414-1.904,2.635-3.772,3.623-5.548
	l0.172-0.311h2.131v17.787h-42.293v-2.941h2.427c1.83,0,3.065-0.331,3.677-0.986c0.486-0.543,0.799-1.52,0.92-2.898
	c0.055-0.605,0.083-1.578,0.083-2.892V504.673z"/>
<path class="st1" d="M181.681,487.399c0.405,1.135,0.505,2.354,0.516,3.178c-0.018,1.194-0.194,2.265-0.518,3.186
	c-0.374,1.127-0.935,1.967-1.338,2.473c-0.486,0.624-0.993,1.026-1.429,1.352c-0.382,0.273-0.622,0.394-0.634,0.399
	c-0.021,0.01-0.045,0.017-0.068,0.017c-0.048,0-0.093-0.021-0.124-0.06c-0.045-0.058-0.045-0.139,0.002-0.197l0.448-0.556
	c0.293-0.349,0.644-0.898,0.964-1.507c0.754-1.414,1.191-3.32,1.168-5.102c0.007-0.945-0.098-1.859-0.316-2.797
	c-0.18-0.769-0.47-1.547-0.855-2.311c-0.329-0.624-0.67-1.158-0.961-1.504l-0.448-0.557c-0.046-0.058-0.046-0.141-0.002-0.197
	c0.046-0.058,0.126-0.076,0.192-0.043c0.012,0.005,0.253,0.124,0.634,0.397c0.316,0.237,0.903,0.673,1.431,1.353
	C180.748,485.429,181.307,486.269,181.681,487.399 M158.591,494.574c-0.023-1.388-0.076-2.687-0.124-3.94
	c-0.025-0.653-0.05-1.277-0.068-1.868v-0.002c-0.146-3.363-0.339-5.649-0.341-5.671c-0.007-0.083-0.076-0.144-0.157-0.144
	c-0.081,0-0.149,0.063-0.156,0.144c-0.003,0.022-0.197,2.308-0.342,5.673c-0.018,0.591-0.043,1.216-0.068,1.871
	c-0.05,1.252-0.099,2.551-0.124,3.936c-0.048,1.96-0.06,4.081-0.071,6.131l-0.003,0.529l0.003,0.528
	c0.01,2.051,0.022,4.17,0.068,6.129c0.025,1.388,0.076,2.685,0.126,3.939c0.025,0.653,0.05,1.279,0.069,1.873
	c0.144,3.363,0.339,5.648,0.342,5.671c0.007,0.081,0.074,0.144,0.156,0.144c0.081,0,0.151-0.063,0.157-0.144
	c0.002-0.023,0.197-2.308,0.342-5.673c0.018-0.597,0.043-1.231,0.069-1.892c0.048-1.247,0.099-2.538,0.122-3.916
	c0.048-1.96,0.06-4.079,0.069-6.131l0.003-0.529l-0.003-0.528C158.652,498.653,158.639,496.533,158.591,494.574 M180.343,506.435
	c-0.485-0.624-0.991-1.024-1.431-1.352c-0.38-0.273-0.622-0.394-0.634-0.399c-0.066-0.03-0.146-0.015-0.19,0.043
	c-0.046,0.058-0.046,0.139,0,0.197l0.448,0.557c0.29,0.344,0.632,0.88,0.961,1.504c0.385,0.764,0.675,1.543,0.855,2.311
	c0.218,0.938,0.323,1.853,0.316,2.797c0.023,1.782-0.414,3.689-1.168,5.104c-0.323,0.609-0.672,1.158-0.964,1.505l-0.448,0.556
	c-0.046,0.058-0.046,0.139-0.002,0.197c0.031,0.038,0.076,0.06,0.124,0.06c0.022,0,0.046-0.005,0.068-0.017
	c0.012-0.005,0.251-0.124,0.634-0.399c0.437-0.328,0.943-0.728,1.429-1.352c0.404-0.506,0.964-1.347,1.338-2.473
	c0.324-0.921,0.5-1.992,0.518-3.186c-0.012-0.822-0.111-2.043-0.516-3.178C181.307,507.782,180.748,506.941,180.343,506.435
	 M164.642,499.54h1.325c1.954,0,3.366-0.18,4.195-0.538c2.549-1.095,3.841-4.066,3.841-8.831c0-3.687-0.753-6.304-2.238-7.777
	c-0.804-0.802-1.702-1.261-2.751-1.4c-0.868-0.127-1.891-0.192-3.047-0.192h-1.325V499.54z M174.202,511.851
	c0-3.959-0.829-6.685-2.463-8.103c-0.796-0.678-1.697-1.054-2.754-1.15c-0.774-0.076-1.787-0.114-3.017-0.114h-1.325v18.697h1.325
	c2.594,0,3.687-0.195,4.147-0.357C172.829,519.898,174.202,516.879,174.202,511.851 M151.828,504.673
	c0-1.211-0.786-1.792-0.971-1.94c-0.185-0.151-2.402-1.831-2.402-1.831s2.217-1.682,2.402-1.831c0.185-0.151,0.971-0.73,0.971-1.942
	v-9.549c-0.02-1.892-0.103-3.287-0.246-4.139c-0.243-1.363-0.903-2.132-2.076-2.417c-0.577-0.146-1.436-0.22-2.556-0.22h-2.228
	v-2.941h28.126c2.642,0,4.604,0.202,6,0.614c2.9,0.878,5.09,2.457,6.511,4.695c1.309,2.111,1.97,4.569,1.97,7.315
	c0,4.518-1.803,8.02-5.365,10.429c4.164,2.266,6.273,6.033,6.273,11.213c0,3.082-0.807,5.691-2.4,7.754
	c-1.502,1.965-3.573,3.244-6.154,3.797c-1.398,0.296-3.479,0.445-6.18,0.445h-28.781v-2.941h2.428c1.828,0,3.065-0.331,3.677-0.986
	c0.485-0.543,0.797-1.52,0.918-2.898c0.055-0.605,0.083-1.578,0.083-2.892V504.673z"/>
<path class="st1" d="M324.776,500.702l0.003,0.529l-0.003,0.594c-0.01,2.028-0.022,4.126-0.069,6.065
	c-0.023,1.378-0.074,2.668-0.122,3.917c-0.026,0.662-0.051,1.294-0.069,1.891c-0.146,3.365-0.341,5.651-0.342,5.673
	c-0.007,0.083-0.076,0.144-0.157,0.144c-0.081,0-0.149-0.061-0.156-0.144c-0.003-0.022-0.199-2.308-0.342-5.671
	c-0.02-0.589-0.043-1.211-0.069-1.861c-0.05-1.259-0.099-2.559-0.124-3.949c-0.046-1.916-0.058-3.987-0.069-5.988l-0.003-0.67
	l0.003-0.529c0.012-2.05,0.023-4.169,0.071-6.129c0.025-1.386,0.074-2.683,0.124-3.937c0.025-0.653,0.05-1.279,0.069-1.871
	c0.146-3.365,0.337-5.649,0.341-5.673c0.007-0.081,0.074-0.144,0.156-0.144c0.081,0,0.151,0.063,0.157,0.144
	c0.002,0.023,0.195,2.308,0.341,5.671v0.002c0.018,0.591,0.043,1.216,0.068,1.869c0.05,1.254,0.101,2.553,0.124,3.939
	C324.753,496.533,324.767,498.652,324.776,500.702 M330.351,497.129c0,1.211,0.786,1.792,0.971,1.94
	c0.185,0.151,2.402,1.831,2.402,1.831s-2.217,1.682-2.402,1.831c-0.185,0.151-0.971,0.731-0.971,1.942v9.73
	c0,1.891,0.083,3.279,0.245,4.127c0.246,1.376,0.905,2.146,2.078,2.432c0.596,0.144,1.456,0.217,2.558,0.217h2.227v2.943h-27.028
	v-2.943l2.428,0.002c1.83,0,3.065-0.333,3.676-0.988c0.488-0.541,0.799-1.52,0.92-2.897c0.02-0.329,0.051-5.922,0.066-12.624
	c0-1.211-0.786-1.792-0.971-1.942c-0.187-0.149-2.402-1.831-2.402-1.831s2.215-1.681,2.402-1.831c0.185-0.149,0.971-0.73,0.971-1.94
	c0.008-5.638,0.012-11.848,0.017-16.324h-0.103c-1.396,0.023-2.584,0.521-3.615,1.519c-3.821,3.901-6.715,9.375-8.592,16.257
	l-0.122,0.448h-2.293v-21.165h42.408v21.165h-2.334l-0.093-0.495c-0.367-1.954-1.269-4.412-2.678-7.31
	c-1.505-3.208-3.451-6.101-5.783-8.609c-1.141-1.218-2.38-1.81-3.792-1.81h-0.189V497.129"/>
<path class="st1" d="M282.335,509.672c0.046,0.068,0.031,0.159-0.031,0.21c-0.03,0.023-0.065,0.035-0.099,0.035
	c-0.041,0-0.081-0.015-0.112-0.046c-0.013-0.015-1.484-1.52-3.54-3.82c-0.361-0.414-0.744-0.845-1.146-1.299
	c-0.759-0.857-1.547-1.745-2.364-2.711c-1.161-1.35-2.387-2.835-3.573-4.273l-0.612-0.748c-1.191-1.477-2.422-3.003-3.532-4.435
	c-0.781-0.996-1.494-1.944-2.18-2.86c-0.364-0.483-0.711-0.946-1.042-1.38c-1.843-2.48-3.022-4.22-3.034-4.237
	c-0.046-0.068-0.033-0.159,0.03-0.21s0.156-0.046,0.212,0.012c0.015,0.015,1.482,1.52,3.54,3.821c0.357,0.41,0.739,0.84,1.138,1.29
	c0.763,0.86,1.552,1.75,2.372,2.718c1.181,1.376,2.43,2.888,3.636,4.351l0.629,0.771c1.163,1.441,2.367,2.933,3.453,4.334
	c0.786,0.997,1.499,1.947,2.189,2.867c0.361,0.481,0.705,0.941,1.036,1.373C281.143,507.914,282.323,509.656,282.335,509.672
	 M287.329,525.576h-2.071l-28.263-36.57v20.765c0.018,4.827,0.948,8.141,2.766,9.846c1.15,1.05,2.376,1.563,3.745,1.563h0.607
	l0.103,0.607v2.336h-17.873v-2.936l0.599-0.007c1.997-0.023,3.524-0.675,4.667-1.99c1.709-2.068,2.591-5.241,2.609-9.423v-5.095
	c0-1.211-0.786-1.792-0.971-1.94c-0.185-0.149-2.402-1.831-2.402-1.831s2.217-1.682,2.402-1.831c0.185-0.151,0.971-0.73,0.971-1.94
	v-11.456l-1.004-1.247c-0.442-0.609-1.257-1.403-2.445-2.385c-0.731-0.589-1.347-0.946-1.823-1.055
	c-0.491-0.121-0.969-0.18-1.426-0.18h-0.864v-2.943h19.666l18.229,23.387v-9.034c-0.018-4.829-0.948-8.157-2.768-9.889
	c-1.141-1.019-2.372-1.522-3.745-1.522h-0.607l-0.099-0.607v-2.334h17.873v2.935l-0.6,0.008c-1.997,0.023-3.524,0.675-4.665,1.99
	c-1.711,2.066-2.591,5.241-2.609,9.421v4.913c0,1.211,0.786,1.792,0.971,1.94c0.185,0.149,2.402,1.831,2.402,1.831
	s-2.217,1.682-2.402,1.831c-0.185,0.151-0.971,0.73-0.971,1.94V525.576z"/>
<path class="st0" d="M360.107,514.404c0,1.307-0.028,2.28-0.083,2.893c-0.121,1.378-0.433,2.356-0.92,2.897
	c-0.612,0.655-1.848,0.988-3.677,0.988l-2.428-0.002v2.943h42.295v-17.787h-2.129l-0.174,0.309
	c-1.024,1.826-2.235,3.694-3.595,5.548c-3.072,4.093-5.716,6.7-7.873,7.76c-1.534,0.814-3.36,1.226-5.429,1.226h-3.175v-33.6
	c0-1.279,0.028-2.238,0.084-2.86c0.104-1.376,0.415-2.366,0.92-2.93c0.61-0.655,1.851-0.988,3.686-0.988l2.417,0.002v-2.941h-27.028
	v2.941h2.228c1.12,0,1.979,0.073,2.558,0.218c1.173,0.285,1.831,1.055,2.074,2.419c0.146,0.854,0.228,2.248,0.248,4.139v9.549
	c0,1.213-0.786,1.792-0.971,1.94c-0.185,0.151-2.402,1.831-2.402,1.831s2.217,1.682,2.402,1.831
	c0.185,0.151,0.971,0.731,0.971,1.942V514.404z M367.252,500.859l0.002,0.372l-0.002,0.594c-0.012,2.028-0.022,4.126-0.069,6.065
	c-0.023,1.38-0.074,2.672-0.124,3.921c-0.026,0.66-0.051,1.29-0.069,1.888c-0.146,3.365-0.341,5.651-0.342,5.673
	c-0.007,0.083-0.074,0.144-0.155,0.144s-0.151-0.061-0.157-0.144c-0.002-0.022-0.197-2.308-0.342-5.671
	c-0.018-0.599-0.043-1.229-0.069-1.889c-0.05-1.249-0.101-2.541-0.122-3.921c-0.048-1.916-0.06-3.987-0.069-5.988l-0.003-0.668
	l0.003-0.617c0.012-2.022,0.023-4.111,0.069-6.043c0.025-1.375,0.074-2.662,0.124-3.906c0.025-0.665,0.051-1.302,0.069-1.902
	c0.146-3.365,0.339-5.649,0.341-5.673c0.007-0.081,0.076-0.144,0.157-0.144s0.149,0.063,0.155,0.144
	c0.002,0.023,0.195,2.308,0.341,5.671v0.002c0.02,0.6,0.045,1.237,0.069,1.902c0.05,1.244,0.099,2.531,0.124,3.906
	C367.229,496.581,367.241,498.756,367.252,500.859"/>
<path class="st0" d="M402.376,485.108l11.077,21.628v7.669c0,1.305-0.028,2.278-0.084,2.9c-0.103,1.371-0.412,2.344-0.918,2.89
	c-0.61,0.655-1.848,0.986-3.677,0.986h-2.427v2.941h27.028v-2.941h-2.228c-1.118,0-1.977-0.074-2.554-0.218
	c-1.141-0.28-1.823-1.075-2.078-2.42c-0.146-0.829-0.228-2.222-0.248-4.137v-11.008l4.74-9.257c2.738-5.353,5.275-9.1,7.525-11.122
	c1.669-1.398,3.287-2.144,4.812-2.215l0.579-0.026v-2.915h-19.19v2.941h1.411c1.555,0,2.708,0.617,3.53,1.889
	c0.574,0.864,0.865,2.086,0.865,3.631c0,2.012-0.589,4.177-1.75,6.433l-3.611,6.903l-7.509-14.442
	c-0.538-1.032-0.812-1.916-0.812-2.625c0-0.49,0-1.79,3.089-1.79h2.237v-2.941h-27.008v2.941h1.831
	C399.173,480.804,400.93,482.21,402.376,485.108 M420.285,503.261c0.281,0.642,0.43,1.338,0.433,2.022l-0.02,1.75
	c-0.012,1.484-0.065,2.875-0.114,4.22c-0.026,0.706-0.053,1.383-0.07,2.022c-0.146,3.616-0.341,6.073-0.342,6.096
	c-0.007,0.083-0.074,0.146-0.157,0.146c-0.081,0-0.149-0.063-0.155-0.146c-0.002-0.023-0.197-2.48-0.342-6.093
	c-0.018-0.639-0.043-1.309-0.069-2.012c-0.05-1.348-0.103-2.743-0.116-4.235l-0.02-1.729c-0.013-0.486-0.132-0.984-0.342-1.436
	l-1.701-3.163l-3.261-6.371c-0.678-1.32-1.279-2.576-1.861-3.788c-0.306-0.637-0.599-1.247-0.882-1.823
	c-1.555-3.267-2.526-5.53-2.534-5.553c-0.033-0.074-0.002-0.162,0.071-0.2c0.073-0.036,0.162-0.013,0.205,0.055
	c0.013,0.02,1.328,2.104,3.138,5.234c0.311,0.554,0.645,1.135,0.994,1.742c0.673,1.171,1.37,2.384,2.078,3.699l3.401,6.291
	c0,0,0.002,0.003,0.003,0.003L420.285,503.261z"/>
<path class="st1" d="M515.563,504.673c0-1.211,0.786-1.79,0.971-1.94c0.185-0.149,2.402-1.831,2.402-1.831s-2.217-1.681-2.402-1.831
	c-0.185-0.149-0.971-0.73-0.971-1.94v-9.548c0-1.338,0.028-2.296,0.084-2.862c0.103-1.375,0.415-2.362,0.918-2.93
	c0.612-0.653,1.853-0.986,3.687-0.986l2.417,0.002v-2.943h-25.501v2.943h0.84c1.07,0,1.815,0.066,2.419,0.218
	c1.173,0.285,1.831,1.055,2.073,2.419c0.146,0.855,0.23,2.248,0.248,4.139v10.665h-13.198v-10.665c0-1.287,0.028-2.246,0.083-2.862
	c0.104-1.375,0.415-2.364,0.92-2.93c0.637-0.682,1.706-0.986,3.467-0.986l1.11,0.002v-2.943H469.63v2.943h2.227
	c1.12,0,1.978,0.073,2.557,0.218c1.173,0.285,1.831,1.055,2.074,2.417c0.146,0.855,0.23,2.25,0.248,4.141v9.548
	c0,1.211-0.786,1.79-0.971,1.94c-0.185,0.151-2.4,1.831-2.4,1.831s2.215,1.682,2.4,1.831c0.185,0.149,0.971,0.73,0.971,1.94v9.732
	c0,1.313-0.028,2.286-0.083,2.893c-0.121,1.376-0.432,2.356-0.92,2.897c-0.612,0.655-1.848,0.986-3.677,0.988l-2.427-0.002v2.943
	h25.501v-2.943h-0.811c-1.09,0-1.845-0.066-2.445-0.217c-1.143-0.281-1.823-1.075-2.079-2.432c-0.164-0.849-0.245-2.237-0.245-4.127
	v-13.178h13.198v13.178c0,1.289-0.028,2.261-0.083,2.892c-0.121,1.357-0.435,2.337-0.925,2.905c-0.601,0.66-1.755,0.979-3.534,0.981
	l-1.039-0.002v2.943h25.501v-2.943h-2.227c-1.12,0-1.979-0.074-2.556-0.217c-1.158-0.285-1.816-1.057-2.079-2.435
	c-0.162-0.822-0.245-2.21-0.245-4.124V504.673z M483.498,500.621l0.003,0.61l-0.003,0.65c-0.01,1.896-0.022,4.043-0.069,6.012
	c-0.023,1.376-0.073,2.667-0.122,3.912c-0.026,0.675-0.051,1.304-0.071,1.896c-0.137,3.199-0.321,5.428-0.341,5.671l-0.091,1.044
	c-0.007,0.081-0.074,0.142-0.156,0.142c-0.081,0-0.15-0.061-0.157-0.142l-0.088-1.037c-0.002-0.012-0.198-2.288-0.342-5.676
	c-0.018-0.534-0.04-1.097-0.063-1.682l-0.007-0.197c-0.051-1.264-0.103-2.554-0.124-3.932c-0.048-1.967-0.06-4.114-0.069-6.01
	l-0.003-0.65l0.003-0.516c0.01-1.937,0.021-4.134,0.069-6.144c0.025-1.376,0.076-2.665,0.124-3.912
	c0.026-0.677,0.051-1.304,0.069-1.897c0.137-3.186,0.319-5.426,0.341-5.669l0.089-1.052c0.007-0.083,0.076-0.144,0.157-0.144
	c0.081,0,0.149,0.061,0.156,0.144l0.089,1.044c0.022,0.251,0.205,2.493,0.342,5.676c0.018,0.594,0.043,1.221,0.068,1.876
	c0.05,1.267,0.101,2.556,0.124,3.936C483.473,496.507,483.487,498.6,483.498,500.621 M509.907,500.669l0.003,0.562l-0.003,0.701
	c-0.012,1.992-0.023,4.053-0.07,5.96c-0.025,1.35-0.073,2.615-0.119,3.838l-0.017,0.4c-0.023,0.544-0.041,1.07-0.056,1.57
	c-0.147,3.4-0.341,5.666-0.344,5.681l-0.088,1.034c-0.008,0.079-0.076,0.142-0.157,0.142c-0.081,0-0.149-0.061-0.157-0.142
	l-0.089-1.037c-0.05-0.619-0.218-2.754-0.342-5.676c-0.017-0.5-0.036-1.022-0.058-1.565l-0.015-0.405
	c-0.048-1.224-0.098-2.49-0.119-3.841c-0.05-1.907-0.06-3.967-0.069-5.96v-1.239c0.01-1.931,0.02-4.119,0.069-6.121
	c0.023-1.35,0.074-2.617,0.121-3.841l0.003-0.094c0.025-0.655,0.05-1.282,0.068-1.874c0.126-2.915,0.293-5.054,0.339-5.641
	l0.093-1.08c0.008-0.083,0.076-0.144,0.157-0.144c0.081,0,0.149,0.063,0.157,0.144l0.089,1.044c0.002,0.013,0.195,2.318,0.341,5.676
	c0.018,0.596,0.041,1.224,0.068,1.881l0.003,0.091c0.048,1.224,0.096,2.49,0.121,3.84
	C509.884,496.567,509.897,498.745,509.907,500.669"/>
<path class="st1" d="M538.075,514.406c0,1.313-0.028,2.286-0.083,2.892c-0.119,1.378-0.432,2.356-0.918,2.898
	c-0.614,0.655-1.849,0.986-3.677,0.986l-2.428-0.002v2.943h42.295v-17.787h-2.131l-0.174,0.311
	c-0.988,1.777-2.207,3.644-3.621,5.548c-3.074,4.117-5.697,6.725-7.816,7.76c-1.534,0.812-3.368,1.224-5.457,1.224h-3.175v-19.835
	h0.587c0.983,0,1.805,0.152,2.438,0.452c0.969,0.463,1.98,1.249,2.997,2.334c1.254,1.381,2.247,2.973,2.956,4.728l0.154,0.381h2.268
	v-18.652h-2.255l-0.159,0.359c-2.207,4.95-4.961,7.459-8.19,7.459l-0.797-0.003v-17.598h4.425c1.022,0,1.902,0.086,2.648,0.265
	c1.436,0.265,3.151,1.446,5.09,3.504c2.926,3.221,5.443,6.788,7.474,10.599l0.172,0.321h2.109v-17.63h-41.84v2.941h2.228
	c1.12,0,1.979,0.074,2.558,0.22c1.173,0.285,1.831,1.054,2.074,2.417c0.146,0.855,0.228,2.248,0.246,4.139v9.549
	c0,1.213-0.786,1.792-0.971,1.942c-0.184,0.149-2.4,1.831-2.4,1.831s2.217,1.681,2.4,1.831c0.185,0.149,0.971,0.73,0.971,1.94
	V514.406z M545.246,500.427l0.003,0.804l-0.003,0.643c-0.01,1.897-0.021,4.048-0.07,6.018c-0.023,1.406-0.076,2.748-0.122,3.932
	c-0.026,0.657-0.05,1.284-0.07,1.878c-0.146,3.38-0.341,5.664-0.344,5.679l-0.088,1.034c-0.008,0.081-0.076,0.144-0.157,0.144
	c-0.081,0-0.149-0.063-0.157-0.144l-0.089-1.037c-0.002-0.012-0.197-2.296-0.342-5.676c-0.02-0.596-0.043-1.224-0.069-1.883
	c-0.046-1.183-0.101-2.524-0.122-3.927c-0.051-1.975-0.06-4.131-0.069-6.033l-0.003-0.627l0.003-0.783
	c0.012-1.965,0.023-3.998,0.069-5.879c0.025-1.406,0.079-2.749,0.124-3.934c0.025-0.655,0.05-1.282,0.069-1.876
	c0.146-3.358,0.339-5.664,0.342-5.679l0.088-1.042c0.008-0.081,0.076-0.144,0.157-0.144c0.081,0,0.149,0.063,0.157,0.144
	l0.091,1.046c0.048,0.622,0.213,2.763,0.339,5.676c0.02,0.594,0.043,1.219,0.07,1.874c0.045,1.184,0.098,2.528,0.124,3.936
	C545.222,496.445,545.233,498.47,545.246,500.427"/>
<path class="st1" d="M588.852,514.405c0,1.313-0.028,2.286-0.084,2.893c-0.119,1.378-0.43,2.354-0.918,2.897
	c-0.61,0.655-1.849,0.986-3.677,0.988l-2.428-0.002v2.943h25.721v-2.943h-0.92c-1.118,0-1.979-0.074-2.554-0.218
	c-1.143-0.28-1.823-1.074-2.079-2.43c-0.164-0.849-0.246-2.237-0.246-4.127v-11.489h1.525l9.209,21.208h16.586v-2.92l-0.586-0.023
	c-1.229-0.048-2.213-0.263-2.903-0.624c-1.216-0.711-2.238-2.114-3.046-4.197l-6.076-13.793c2.5-0.683,4.466-1.939,5.858-3.732
	c1.783-2.273,2.688-5.173,2.688-8.622c0-2.796-0.642-5.28-1.907-7.386c-1.489-2.442-3.803-4.003-6.874-4.637
	c-1.017-0.22-3.198-0.328-6.667-0.328h-27.729v2.943h2.228c1.12,0,1.979,0.073,2.557,0.218c1.173,0.285,1.831,1.055,2.074,2.409
	c0.058,0.47,0.116,6.647,0.16,13.697c0,1.211-0.784,1.79-0.971,1.94c-0.185,0.149-2.4,1.831-2.4,1.831s2.215,1.682,2.4,1.831
	c0.187,0.149,0.971,0.73,0.971,1.94C588.781,507.902,588.84,511.556,588.852,514.405 M601.664,480.805h1.952
	c2.298,0,4.023,0.596,5.127,1.768c1.552,1.682,2.341,4.359,2.341,7.954c0,6.356-2.303,9.446-7.041,9.446h-2.379V480.805z
	 M595.606,500.708l0.003,0.524l-0.003,0.716c-0.012,1.987-0.022,4.043-0.069,5.945c-0.023,1.406-0.076,2.751-0.124,3.936
	c-0.026,0.653-0.05,1.28-0.068,1.873c-0.126,2.921-0.293,5.057-0.339,5.643l-0.094,1.07c-0.007,0.081-0.074,0.144-0.157,0.144
	c-0.079,0-0.147-0.063-0.156-0.144l-0.089-1.037c-0.002-0.01-0.195-2.276-0.342-5.674c-0.017-0.503-0.035-1.027-0.056-1.573
	l-0.013-0.309c-0.053-1.352-0.101-2.579-0.124-3.927c-0.046-1.912-0.056-3.979-0.068-5.975v-1.28
	c0.012-2.028,0.021-4.126,0.071-6.066c0.023-1.352,0.071-2.584,0.124-3.937c0.026-0.655,0.05-1.28,0.068-1.873
	c0.146-3.36,0.339-5.664,0.342-5.679l0.088-1.042c0.008-0.081,0.076-0.144,0.156-0.144c0.083,0,0.151,0.061,0.157,0.144l0.091,1.044
	c0.05,0.622,0.217,2.763,0.341,5.676c0.02,0.596,0.043,1.224,0.068,1.883l0.005,0.091c0.046,1.223,0.096,2.488,0.119,3.836
	C595.585,496.578,595.596,498.772,595.606,500.708 M618.616,487.369c0.407,1.146,0.508,2.377,0.521,3.209
	c-0.018,1.204-0.195,2.283-0.524,3.213c-0.374,1.135-0.941,1.987-1.35,2.501c-0.496,0.635-1.007,1.039-1.449,1.37
	c-0.366,0.261-0.601,0.382-0.645,0.405l-0.364,0.179c-0.021,0.01-0.048,0.017-0.069,0.017c-0.046,0-0.093-0.022-0.124-0.06
	c-0.046-0.058-0.045-0.139,0.002-0.197l0.705-0.873c0.29-0.344,0.635-0.887,0.953-1.49c0.748-1.401,1.181-3.292,1.158-5.06
	c0.007-0.941-0.094-1.848-0.313-2.776c-0.179-0.763-0.465-1.534-0.849-2.291c-0.326-0.615-0.663-1.146-0.951-1.489l-0.701-0.872
	c-0.046-0.056-0.048-0.139-0.002-0.195c0.046-0.058,0.126-0.078,0.194-0.045l0.361,0.177c0.046,0.025,0.284,0.147,0.648,0.407
	c0.324,0.243,0.917,0.687,1.448,1.368C617.673,485.379,618.24,486.229,618.616,487.369 M618.224,519.685l0.164,0.553
	c0.021,0.074-0.013,0.154-0.083,0.187c-0.023,0.01-0.046,0.015-0.068,0.015c-0.05,0-0.099-0.025-0.129-0.068l-0.319-0.46
	c-0.017-0.022-0.672-0.974-1.494-2.357c-0.885-1.497-1.922-3.457-2.849-5.38c-0.915-1.922-1.793-3.96-2.407-5.59
	c-0.587-1.582-0.905-2.647-0.905-2.652l-0.157-0.529c-0.023-0.074,0.012-0.154,0.081-0.189c0.069-0.031,0.152-0.01,0.198,0.053
	l0.319,0.463c0.17,0.253,0.761,1.128,1.494,2.359c0.887,1.502,1.926,3.462,2.849,5.38c0.926,1.94,1.803,3.977,2.41,5.59
	C617.828,518.402,618.139,519.409,618.224,519.685"/>
<path class="st1" d="M656.107,504.674c0-1.211,0.787-1.792,0.971-1.942c0.187-0.149,2.402-1.83,2.402-1.83s-2.215-1.682-2.402-1.831
	c-0.184-0.151-0.971-0.73-0.971-1.942v-9.549c0-1.285,0.028-2.243,0.083-2.86c0.104-1.376,0.417-2.366,0.92-2.93
	c0.612-0.655,1.851-0.986,3.687-0.986h2.419v-2.941h-27.031v2.941h2.23c1.12,0,1.978,0.074,2.556,0.218
	c1.173,0.286,1.831,1.055,2.076,2.419c0.146,0.852,0.228,2.247,0.245,4.139v9.549c0,1.213-0.784,1.792-0.971,1.942
	c-0.184,0.149-2.4,1.831-2.4,1.831s2.217,1.681,2.4,1.83c0.187,0.151,0.971,0.731,0.971,1.942v9.732c0,1.31-0.025,2.283-0.079,2.892
	c-0.122,1.378-0.433,2.356-0.92,2.898c-0.61,0.655-1.85,0.986-3.677,0.986l-2.43-0.002v2.943h27.031v-2.943h-2.228
	c-1.12,0-1.979-0.073-2.556-0.217c-1.143-0.28-1.823-1.075-2.079-2.435c-0.162-0.819-0.245-2.205-0.245-4.122V504.674z
	 M650.552,500.698l0.003,0.533l-0.003,0.685c-0.012,1.998-0.023,4.065-0.07,5.977c-0.025,1.35-0.073,2.614-0.119,3.836l-0.005,0.091
	c-0.027,0.658-0.05,1.287-0.068,1.883c-0.126,2.922-0.293,5.057-0.341,5.643l-0.093,1.07c-0.008,0.081-0.076,0.144-0.157,0.144
	s-0.149-0.063-0.157-0.144l-0.089-1.037c0-0.012-0.195-2.276-0.341-5.676c-0.017-0.5-0.036-1.022-0.058-1.565l-0.016-0.404
	c-0.046-1.224-0.096-2.491-0.119-3.841c-0.048-1.911-0.058-3.974-0.068-5.969v-1.279c0.01-2.031,0.02-4.131,0.069-6.075
	c0.023-1.403,0.078-2.744,0.122-3.927l0.013-0.309c0.022-0.546,0.041-1.072,0.056-1.573c0.146-3.358,0.341-5.664,0.342-5.679
	l0.088-1.042c0.008-0.081,0.076-0.144,0.157-0.144s0.149,0.063,0.157,0.144l0.091,1.046c0.05,0.622,0.215,2.761,0.341,5.676
	c0.018,0.596,0.041,1.223,0.068,1.879l0.003,0.093c0.048,1.223,0.096,2.488,0.121,3.838
	C650.528,496.576,650.542,498.766,650.552,500.698"/>
<path class="st1" d="M698.54,504.674c0-1.211,0.786-1.792,0.971-1.94c0.187-0.151,2.4-1.831,2.4-1.831s-2.213-1.682-2.4-1.831
	c-0.185-0.151-0.971-0.73-0.971-1.942v-16.324h0.189c1.409,0,2.652,0.592,3.79,1.81c2.334,2.508,4.28,5.403,5.785,8.611
	c1.409,2.898,2.311,5.358,2.677,7.309l0.094,0.495h2.334v-21.165h-42.409v21.165h2.294l0.122-0.448
	c1.876-6.88,4.771-12.354,8.592-16.257c1.031-0.998,2.217-1.494,3.613-1.519h0.103v16.324c0,1.213-0.784,1.792-0.971,1.942
	c-0.185,0.149-2.402,1.831-2.402,1.831s2.217,1.681,2.402,1.831c0.187,0.149,0.971,0.73,0.971,1.94v9.732
	c0,1.31-0.026,2.283-0.081,2.892c-0.122,1.378-0.433,2.357-0.92,2.898c-0.61,0.655-1.848,0.986-3.677,0.986l-2.43-0.002v2.943
	h27.031v-2.943h-2.227c-1.102,0-1.964-0.073-2.558-0.217c-1.173-0.285-1.833-1.055-2.079-2.43c-0.162-0.847-0.243-2.235-0.243-4.127
	V504.674z M693.054,500.46l0.003,0.771l-0.003,0.687c-0.012,1.998-0.023,4.063-0.07,5.975c-0.023,1.404-0.076,2.749-0.122,3.934
	c-0.026,0.655-0.05,1.282-0.07,1.876c-0.147,3.4-0.341,5.664-0.344,5.679l-0.088,1.034c-0.008,0.079-0.076,0.142-0.157,0.142
	c-0.081,0-0.149-0.061-0.157-0.142l-0.089-1.037c-0.05-0.619-0.218-2.754-0.342-5.676c-0.02-0.594-0.043-1.221-0.068-1.878
	c-0.048-1.184-0.103-2.526-0.124-3.932c-0.05-1.912-0.06-3.977-0.069-5.975v-1.221c0.01-1.932,0.02-4.122,0.069-6.126
	c0.023-1.348,0.074-2.615,0.121-3.838l0.003-0.093c0.025-0.657,0.05-1.284,0.069-1.879c0.126-2.915,0.291-5.054,0.337-5.641
	l0.093-1.08c0.008-0.081,0.076-0.144,0.157-0.144c0.081,0,0.149,0.063,0.157,0.144l0.089,1.046c0.002,0.012,0.195,2.318,0.341,5.676
	c0.017,0.498,0.035,1.017,0.056,1.56l0.013,0.316c0.045,1.184,0.098,2.528,0.124,3.934
	C693.029,496.455,693.041,498.491,693.054,500.46"/>
<path class="st1" d="M759.982,521.075c-1.029-0.203-2.01-0.966-2.928-2.281c-0.536-0.718-1.237-2.137-2.086-4.225l-15.264-37.546
	l-0.154-0.379h-2.041l-13.656,33.405c-2.996,7.242-6.02,10.988-8.991,11.132l-0.579,0.028v2.915h18.852v-2.9l-0.564-0.041
	c-0.478-0.036-0.753-0.065-0.971-0.088l-0.237-0.023c-1.633-0.261-2.804-1.016-3.585-2.311c-0.96-1.57-1.446-3.378-1.446-5.376
	c0-0.562,0.055-1.135,0.164-1.711h12.546l1.979,4.996c0.331,0.842,0.496,1.56,0.496,2.134c0,0.667-0.194,1.219-0.579,1.672
	c-0.433,0.475-1.029,0.705-1.826,0.705h-2.976v2.943h26.753v-2.943h-1.347C760.932,521.181,760.399,521.143,759.982,521.075
	 M727.327,508.732l5.194-13.178l5.241,13.178H727.327z M750.432,517.933l0.246,0.834c0.023,0.078-0.015,0.161-0.089,0.19
	c-0.02,0.008-0.041,0.012-0.06,0.012c-0.058,0-0.112-0.03-0.139-0.083l-0.414-0.773c-0.242-0.453-1.072-2.043-2.136-4.296
	c-0.207-0.457-0.432-0.938-0.667-1.439c-0.452-0.969-0.911-1.954-1.375-3.017c-0.647-1.456-1.314-3.047-1.957-4.586l-0.41-0.994
	c-0.648-1.608-1.313-3.261-1.897-4.804c-0.405-1.052-0.763-2.05-1.11-3.012l-0.073-0.207c-0.174-0.481-0.337-0.945-0.501-1.381
	c-0.822-2.336-1.352-4.061-1.495-4.533l-0.258-0.873c-0.023-0.076,0.018-0.159,0.093-0.19c0.076-0.03,0.159,0.002,0.199,0.071
	l0.417,0.781c0.003,0.007,0.918,1.724,2.136,4.296c0.207,0.458,0.428,0.94,0.665,1.443c0.42,0.9,0.897,1.922,1.371,3.014
	c0.696,1.565,1.438,3.337,2.033,4.758l0.367,0.897c0.601,1.482,1.277,3.161,1.869,4.728c0.409,1.057,0.768,2.058,1.113,3.026
	l0.031,0.086c0.185,0.521,0.364,1.021,0.538,1.491v0.002C749.885,516.079,750.43,517.922,750.432,517.933"/>
<path class="st1" d="M765.797,496.772c-0.18,1.74-1.046,2.298-1.046,2.298l-2.4,1.831l2.179,1.663
	c0.506,0.473,1.13,0.994,1.297,2.419c0.382,2.928,1.042,5.411,2.048,7.813c1.803,4.26,4.437,7.51,7.823,9.663
	c3.231,2.07,6.582,3.118,9.964,3.118c2.662,0,4.834-0.331,6.452-0.984c3.964-1.588,6.672-2.392,8.048-2.392
	c2.16,0,3.907,0.711,5.335,2.174l0.427,0.435l1.337-1.312l-0.046-0.308c-0.316-2.076-0.475-5.6-0.475-10.473
	c0-3.621,0.366-6.096,1.085-7.358c0.514-0.903,1.586-1.342,3.282-1.342h2.994v-2.943h-26.827v2.943h2.483
	c2.155,0,3.431,0.556,3.897,1.699c0.387,0.971,0.584,2.839,0.584,5.548c0,2.791-0.195,4.96-0.579,6.45
	c-0.764,3.047-2.581,4.529-5.552,4.529c-2.562,0-4.371-1.295-5.527-3.955c-1.244-2.857-2.055-6.662-2.407-11.327l-0.021-0.136
	c-0.204-2.215-0.336-6.587-0.079-10.367l0.008,0.01l0.103-1.314c0.362-4.657,1.178-8.47,2.425-11.337
	c1.158-2.662,2.872-3.955,5.244-3.955c3.282,0,7.863,1.803,10.705,5.833l0.2,0.28c1.947,2.739,4.154,5.843,5.5,9.363l0.195,0.511
	l2.331-0.617l-0.544-17.605h-1.896l-0.182,0.218c-1.562,1.868-3.581,2.844-4.769,2.844c-0.759,0-2.205-0.367-3.591-1.173
	c-0.998-0.582-2.063-1.161-2.786-1.514c-2.036-0.998-4.966-1.593-7.836-1.593c-5.699,0-10.381,2.175-13.916,6.467
	C768.399,486.366,766.384,490.719,765.797,496.772 M773.875,493.988c-0.425,2.116-0.635,4.472-0.622,7.004
	c-0.008,2.546,0.2,4.903,0.624,7.006c0.457,2.364,1.014,4.359,1.653,5.929c0.624,1.57,1.297,2.974,1.897,3.957
	c0.486,0.834,0.829,1.33,0.895,1.421l0.974,1.376c0.05,0.068,0.036,0.162-0.03,0.213c-0.03,0.023-0.063,0.035-0.098,0.035
	c-0.043,0-0.086-0.02-0.117-0.053l-1.481-1.679c-0.179-0.202-0.453-0.506-0.753-0.92c-0.324-0.414-0.705-0.966-1.127-1.636
	c-0.519-0.819-0.915-1.54-1.246-2.268c-0.963-2.045-1.666-4.089-2.088-6.079c-0.488-2.172-0.771-4.698-0.812-7.3
	c0.046-2.644,0.319-5.1,0.814-7.302c0.427-2,1.13-4.046,2.088-6.079c0.424-0.933,0.912-1.74,1.244-2.266
	c0.425-0.677,0.796-1.213,1.128-1.641c0.293-0.399,0.556-0.696,0.749-0.913l1.497-1.699c0.056-0.063,0.151-0.073,0.215-0.02
	c0.066,0.051,0.078,0.146,0.03,0.215l-0.989,1.391c-0.003,0.007-0.367,0.521-0.895,1.423c-0.605,0.991-1.279,2.394-1.897,3.957
	v0.002C774.882,489.647,774.325,491.642,773.875,493.988 M800.965,507.741c0.162,1.199,0.256,2.73,0.261,4.199
	c-0.005,1.474-0.098,3.004-0.261,4.199c-0.165,1.17-0.356,1.926-0.357,1.931l-0.084,0.337c-0.016,0.071-0.079,0.119-0.152,0.119
	c-0.071,0-0.134-0.05-0.152-0.119l-0.086-0.349c0,0-0.192-0.763-0.356-1.919c-0.16-1.194-0.256-2.723-0.26-4.199
	c0.005-1.469,0.101-2.999,0.261-4.199c0.162-1.145,0.354-1.922,0.356-1.927l0.084-0.344c0.018-0.069,0.079-0.119,0.152-0.119
	c0.073,0,0.136,0.05,0.152,0.119l0.088,0.352C800.633,505.91,800.811,506.663,800.965,507.741"/>
<path class="st1" d="M824.182,514.404c0,1.3-0.028,2.273-0.083,2.893c-0.121,1.376-0.432,2.356-0.92,2.897
	c-0.612,0.655-1.849,0.988-3.677,0.988l-2.429-0.002v2.943h42.297v-17.789h-2.132l-0.174,0.313
	c-0.984,1.772-2.202,3.639-3.623,5.548c-3.074,4.117-5.694,6.725-7.813,7.759c-1.534,0.814-3.37,1.226-5.459,1.226h-3.173v-19.836
	h0.586c0.984,0,1.807,0.154,2.44,0.452c0.968,0.463,1.978,1.251,2.997,2.334c1.251,1.381,2.247,2.973,2.955,4.73l0.151,0.379h2.273
	v-18.652h-2.255l-0.16,0.361c-2.204,4.948-4.961,7.459-8.192,7.459l-0.794-0.003v-17.598h4.424c1.024,0,1.904,0.086,2.647,0.265
	c1.438,0.265,3.155,1.446,5.09,3.504c2.93,3.221,5.444,6.786,7.477,10.597l0.172,0.323h2.109v-17.63h-41.842v2.941h2.228
	c1.118,0,1.98,0.073,2.559,0.218c1.173,0.286,1.83,1.055,2.073,2.419c0.146,0.857,0.23,2.251,0.248,4.139v9.549
	c0,1.211-0.786,1.792-0.971,1.94c-0.185,0.151-2.4,1.831-2.4,1.831s2.215,1.682,2.4,1.831c0.185,0.151,0.971,0.731,0.971,1.942
	V514.404z M831.34,501.231l-0.003,0.695c-0.012,1.995-0.021,4.058-0.068,5.967c-0.023,1.403-0.078,2.746-0.124,3.929
	c-0.026,0.657-0.05,1.285-0.069,1.881c-0.146,3.398-0.341,5.664-0.344,5.679l-0.088,1.032c-0.007,0.081-0.076,0.144-0.157,0.144
	c-0.081,0-0.149-0.061-0.155-0.144l-0.091-1.036c-0.05-0.619-0.217-2.754-0.342-5.676c-0.018-0.597-0.041-1.224-0.069-1.883
	l-0.003-0.091c-0.046-1.224-0.098-2.488-0.119-3.838c-0.048-1.914-0.058-3.983-0.07-5.985v-1.18c0.01-1.942,0.021-4.144,0.071-6.156
	c0.023-1.35,0.073-2.614,0.119-3.838l0.005-0.094c0.026-0.655,0.05-1.284,0.07-1.878c0.124-2.915,0.289-5.055,0.336-5.641
	l0.094-1.082c0.007-0.081,0.074-0.142,0.155-0.142c0.081,0,0.151,0.063,0.157,0.142l0.089,1.046
	c0.002,0.013,0.197,2.319,0.341,5.676c0.017,0.503,0.035,1.029,0.058,1.573l0.012,0.311c0.046,1.183,0.098,2.523,0.124,3.927
	c0.045,1.876,0.058,3.906,0.069,5.868l0.002,0.256v0.002L831.34,501.231z"/>
</svg>
