<svg id="Layer_1" data-name="Layer 1" xmlns="http://www.w3.org/2000/svg" viewBox="0 0 7.03 6.33"><defs><style>.cls-1{fill:gray;}</style></defs><title>phone</title><path class="cls-1" d="M5.89,5.35a.43.43,0,0,1,.16,0h.49s0,0,0,0c0,.2,0,.41,0,.62,0,0,0,0,0,0h.63s0,0,0,0v2s0,.05,0,.05H1.71s0,0,0-.05v-2s0,0,0,0h.62s0,0,0,0V5.4c0-.06,0-.06,0-.06H3s0,0,0,0V4s0,0,0,0H5.85s0,0,0,0a2.81,2.81,0,0,1,0,.29V5.35ZM5.17,6.4v-1c0-.05,0-.05,0-.05H3.85c-.07,0-.07,0-.07.07v2s0,0,0,0H5.14s0,0,0,0C5.17,7.08,5.17,6.74,5.17,6.4Z" transform="translate(-0.97 -1.83)"/><path class="cls-1" d="M4.48,1.84H7.24s0,0,0,0v.6s0,0,0,0H8a0,0,0,0,1,0,0V4.62s0,0,0,0H6.61s0,0,0,0V3.29s0,0,0,0H2.42s0,0,0,0V4.61s0,0,0,0H1s0,0,0,0v-2s0,0,0,0a.4.4,0,0,1,.11,0h.52s0,0,0,0V1.87s0,0,0,0Z" transform="translate(-0.97 -1.83)"/></svg>