<?xml version="1.0" encoding="utf-8"?>
<!-- Generator: Adobe Illustrator 23.0.4, SVG Export Plug-In . SVG Version: 6.00 Build 0)  -->
<svg version="1.1" id="Layer_1" xmlns="http://www.w3.org/2000/svg" xmlns:xlink="http://www.w3.org/1999/xlink" x="0px" y="0px"
	 viewBox="0 0 33.2 47" style="enable-background:new 0 0 33.2 47;" xml:space="preserve">
<style type="text/css">
	.st0{fill:#9A6B50;}
</style>
<g>
	<path class="st0" d="M16.6,0C7.5,0,0,7.4,0,16.6c0,11.2,14.8,29.1,15.4,29.9c0.3,0.3,0.7,0.5,1.2,0.5s0.9-0.2,1.2-0.5
		c0.6-0.8,15.4-18.7,15.4-29.9C33.2,7.4,25.7,0,16.6,0z M16.6,43.1C13.1,38.6,3,25,3,16.6C3,9.1,9.1,3,16.6,3s13.6,6.1,13.6,13.6
		C30.2,25,20.1,38.6,16.6,43.1z"/>
	<path class="st0" d="M16.6,6.8c-5.5,0-9.9,4.5-9.9,9.9c0,5.5,4.5,9.9,9.9,9.9s9.9-4.5,9.9-9.9C26.5,11.2,22.1,6.8,16.6,6.8z
		 M16.6,23.6c-3.8,0-6.9-3.1-6.9-6.9s3.1-6.9,6.9-6.9s6.9,3.1,6.9,6.9S20.4,23.6,16.6,23.6z"/>
</g>
</svg>
