<?xml version="1.0" encoding="utf-8"?>
<!-- Generator: Adobe Illustrator 25.0.1, SVG Export Plug-In . SVG Version: 6.00 Build 0)  -->
<svg version="1.1" id="Layer_1" xmlns="http://www.w3.org/2000/svg" xmlns:xlink="http://www.w3.org/1999/xlink" x="0px" y="0px"
	 viewBox="0 0 432 432" style="enable-background:new 0 0 432 432;" xml:space="preserve">
<style type="text/css">
	.st0{fill:#000316;}
</style>
<path class="st0" d="M364,318.1l35.3,3.7l-20.9-28.7l-24.6-2.6l-3.3-1.9l18.3-4.9c2.3-0.6,3.7-3,3.1-5.3c-0.6-2.3-3-3.7-5.3-3.1
	l-26.7,7.2l-33-19l7.2-1.9l24,13.8c2.1,1.2,4.7,0.5,5.9-1.6c1.2-2.1,0.5-4.7-1.6-5.9l-16.4-9.5l3.7-1l24.5,3.9l27.6-22.3l-35-5.5
	l-19.2,15.6l-3.7,1l9.5-16.4c1.2-2.1,0.5-4.7-1.6-5.9c-2.1-1.2-4.7-0.5-5.9,1.6l-13.8,24l-15.6,4.2l-64-37l32.8,0l19.6,19.6
	c1.7,1.7,4.4,1.7,6.1,0c1.7-1.7,1.7-4.4,0-6.1l-13.4-13.4h3.8l22.6,10.1l32.4-14.4l-32.4-14.4l-22.6,10.1h-3.8l13.4-13.4
	c1.7-1.7,1.7-4.4,0-6.1c-1.7-1.7-4.4-1.7-6.1,0L265,211.7h-32.8l64-37l15.6,4.2l13.8,24c1.2,2.1,3.9,2.8,5.9,1.6
	c2.1-1.2,2.8-3.9,1.6-5.9l-9.5-16.4l3.7,1l19.2,15.6l35-5.5l-27.6-22.3l-24.5,3.9l-3.7-1l16.4-9.5c2.1-1.2,2.8-3.9,1.6-5.9
	c-1.2-2.1-3.9-2.8-5.9-1.6l-24,13.8l-7.2-1.9l33-19l26.7,7.2c2.3,0.6,4.7-0.8,5.3-3.1c0.6-2.3-0.8-4.7-3.1-5.3l-18.3-4.9l3.3-1.9
	l24.6-2.6l20.9-28.7l-35.3,3.7l-14.6,20l-3.3,1.9l4.9-18.3c0.6-2.3-0.8-4.7-3.1-5.3c-2.3-0.6-4.7,0.8-5.3,3.1l-7.2,26.7l-33,19
	l1.9-7.2l24-13.8c2.1-1.2,2.8-3.9,1.6-5.9c-1.2-2.1-3.9-2.8-5.9-1.6l-16.4,9.5l1-3.7l15.6-19.3l-5.5-35l-22.3,27.6l3.9,24.5l-1,3.7
	l-9.5-16.4c-1.2-2.1-3.9-2.8-5.9-1.6c-2.1,1.2-2.8,3.9-1.6,5.9l13.8,24l-4.2,15.6l-64,37l16.4-28.4l26.7-7.2c2.3-0.6,3.7-3,3.1-5.3
	c-0.6-2.3-3-3.7-5.3-3.1l-18.3,4.9l1.9-3.3l20-14.6l3.7-35.3l-28.7,20.9l-2.6,24.6l-1.9,3.3l-4.9-18.3c-0.6-2.3-3-3.7-5.3-3.1
	c-2.3,0.6-3.7,3-3.1,5.3l7.2,26.7l-16.4,28.4v-73.9l11.4-11.4h27.7c2.4,0,4.3-1.9,4.3-4.3c0-2.4-1.9-4.3-4.3-4.3h-19l2.7-2.7
	l23.1-8.9L279,61.1l-33.1,12.7L237,96.9l-2.7,2.7v-19c0-2.4-1.9-4.3-4.3-4.3c-2.4,0-4.3,1.9-4.3,4.3v27.7l-5.3,5.3V75.5L239.9,56
	c1.7-1.7,1.7-4.4,0-6.1c-1.7-1.7-4.4-1.7-6.1,0l-13.4,13.4v-3.8l10.1-22.6L216,4.4l-14.4,32.4l10.1,22.6v3.8l-13.4-13.4
	c-1.7-1.7-4.4-1.7-6.1,0c-1.7,1.7-1.7,4.4,0,6.1l19.6,19.6v38.1l-5.3-5.3V80.6c0-2.4-1.9-4.3-4.3-4.3c-2.4,0-4.3,1.9-4.3,4.3v19
	l-2.7-2.7l-8.9-23.1L153,61.1l12.7,33.1l23.1,8.9l2.7,2.7h-19c-2.4,0-4.3,1.9-4.3,4.3c0,2.4,1.9,4.3,4.3,4.3h27.7l11.4,11.4v73.9
	l-16.4-28.4l7.2-26.7c0.6-2.3-0.8-4.7-3.1-5.3c-2.3-0.6-4.7,0.8-5.3,3.1l-4.9,18.3l-1.9-3.3l-2.6-24.6l-28.7-20.9l3.7,35.3l20,14.6
	l1.9,3.3l-18.3-4.9c-2.3-0.6-4.7,0.8-5.3,3.1c-0.6,2.3,0.8,4.7,3.1,5.3l26.7,7.2l16.4,28.4l-64-37l-4.2-15.6l13.8-24
	c1.2-2.1,0.5-4.7-1.6-5.9c-2.1-1.2-4.7-0.5-5.9,1.6l-9.5,16.4l-1-3.7l3.9-24.5L113.3,84l-5.5,35l15.6,19.3l1,3.7l-16.4-9.5
	c-2.1-1.2-4.7-0.5-5.9,1.6c-1.2,2.1-0.5,4.7,1.6,5.9l24,13.8l1.9,7.2l-33-19l-7.2-26.7c-0.6-2.3-3-3.7-5.3-3.1
	c-2.3,0.6-3.7,3-3.1,5.3l4.9,18.3l-3.3-1.9l-14.6-20l-35.3-3.7l20.9,28.7l24.6,2.6l3.3,1.9l-18.3,4.9c-2.3,0.6-3.7,3-3.1,5.3
	c0.6,2.3,3,3.7,5.3,3.1l26.7-7.2l33,19l-7.2,1.9l-24-13.8c-2.1-1.2-4.7-0.5-5.9,1.6c-1.2,2.1-0.5,4.7,1.6,5.9l16.4,9.5l-3.7,1
	l-24.5-3.9l-27.6,22.3l35,5.5l19.3-15.6l3.7-1l-9.5,16.4c-1.2,2.1-0.5,4.7,1.6,5.9c2.1,1.2,4.7,0.5,5.9-1.6l13.8-24l15.6-4.2l64,37
	H167l-19.6-19.6c-1.7-1.7-4.4-1.7-6.1,0c-1.7,1.7-1.7,4.4,0,6.1l13.4,13.4h-3.8l-22.6-10L95.8,216l32.4,14.4l22.6-10h3.8l-13.4,13.4
	c-1.7,1.7-1.7,4.4,0,6.1c1.7,1.7,4.4,1.7,6.1,0l19.6-19.6l32.8,0l-64,37l-15.6-4.2l-13.8-24c-1.2-2.1-3.9-2.8-5.9-1.6
	c-2.1,1.2-2.8,3.9-1.6,5.9l9.5,16.4l-3.7-1l-19.3-15.6l-35,5.5l27.6,22.3l24.5-3.9l3.7,1l-16.4,9.5c-2.1,1.2-2.8,3.9-1.6,5.9
	c1.2,2.1,3.9,2.8,5.9,1.6l24-13.8l7.2,1.9l-33,19l-26.7-7.2c-2.3-0.6-4.7,0.8-5.3,3.1c-0.6,2.3,0.8,4.7,3.1,5.3l18.3,4.9l-3.3,1.9
	l-24.6,2.6l-20.9,28.7l35.3-3.7l14.6-20l3.3-1.9L81,314.5c-0.6,2.3,0.8,4.7,3.1,5.3c2.3,0.6,4.7-0.8,5.3-3.1l7.2-26.7l33-19
	l-1.9,7.2l-24,13.8c-2.1,1.2-2.8,3.9-1.6,5.9c1.2,2.1,3.9,2.8,5.9,1.6l16.4-9.5l-1,3.7L107.8,313l5.5,35l22.3-27.6l-3.9-24.5l1-3.7
	l9.5,16.4c1.2,2.1,3.9,2.8,5.9,1.6c2.1-1.2,2.8-3.9,1.6-5.9l-13.8-24l4.2-15.6l64-37l-16.4,28.4l-26.7,7.2c-2.3,0.6-3.7,3-3.1,5.3
	c0.6,2.3,3,3.7,5.3,3.1l18.3-4.9l-1.9,3.3l-20,14.6l-3.7,35.3l28.7-20.9l2.6-24.6l1.9-3.3l4.9,18.3c0.6,2.3,3,3.7,5.3,3.1
	c2.3-0.6,3.7-3,3.1-5.3l-7.2-26.7l16.4-28.4v73.9l-11.4,11.4h-27.7c-2.4,0-4.3,1.9-4.3,4.3c0,2.4,1.9,4.3,4.3,4.3h19l-2.7,2.7
	l-23.1,8.9L153,370.9l33.1-12.7l8.9-23.1l2.7-2.7v19c0,2.4,1.9,4.3,4.3,4.3c2.4,0,4.3-1.9,4.3-4.3v-27.7l5.3-5.3v38.1L192.1,376
	c-1.7,1.7-1.7,4.4,0,6.1c1.7,1.7,4.4,1.7,6.1,0l13.4-13.4v3.8l-10.1,22.6l14.4,32.4l14.4-32.4l-10.1-22.6v-3.8l13.4,13.4
	c1.7,1.7,4.4,1.7,6.1,0c1.7-1.7,1.7-4.5,0-6.1l-19.6-19.6v-38.1l5.3,5.3v27.7c0,2.4,1.9,4.3,4.3,4.3c2.4,0,4.3-1.9,4.3-4.3v-19
	l2.7,2.7l8.9,23.1l33.1,12.7l-12.7-33.1l-23.1-8.9l-2.7-2.7h19c2.4,0,4.3-1.9,4.3-4.3c0-2.4-1.9-4.3-4.3-4.3h-27.7l-11.4-11.4v-73.9
	l16.4,28.4l-7.2,26.7c-0.6,2.3,0.8,4.7,3.1,5.3c2.3,0.6,4.7-0.8,5.3-3.1l4.9-18.3l1.9,3.3l2.6,24.6l28.7,20.9l-3.7-35.3l-20-14.6
	l-1.9-3.3l18.3,4.9c2.3,0.6,4.7-0.8,5.3-3.1c0.6-2.3-0.8-4.7-3.1-5.3l-26.7-7.2l-16.4-28.4l64,37l4.2,15.6l-13.8,24
	c-1.2,2.1-0.5,4.7,1.6,5.9c2.1,1.2,4.7,0.5,5.9-1.6l9.5-16.4l1,3.7l-3.9,24.5l22.3,27.6l5.5-35l-15.6-19.3l-1-3.7l16.4,9.5
	c2.1,1.2,4.7,0.5,5.9-1.6c1.2-2.1,0.5-4.7-1.6-5.9l-24-13.8l-1.9-7.2l33,19l7.2,26.7c0.6,2.3,3,3.7,5.3,3.1c2.3-0.6,3.7-3,3.1-5.3
	l-4.9-18.3l3.3,1.9L364,318.1z"/>
</svg>
