<?xml version="1.0" encoding="utf-8"?>
<!-- Generator: Adobe Illustrator 23.0.4, SVG Export Plug-In . SVG Version: 6.00 Build 0)  -->
<svg version="1.1" id="Layer_1" xmlns="http://www.w3.org/2000/svg" xmlns:xlink="http://www.w3.org/1999/xlink" x="0px" y="0px"
	 viewBox="0 0 431.71 567.018" style="enable-background:new 0 0 431.71 567.018;" xml:space="preserve">
<style type="text/css">
	.st0{fill:#24618E;stroke:#24618E;stroke-width:0.25;stroke-miterlimit:10;}
	.st1{fill:none;stroke:#24618E;stroke-width:2;stroke-linecap:round;stroke-miterlimit:10;}
</style>
<g>
	<g>
		<path class="st0" d="M63.625,216.463c0,13.88-7.83,23.62-23.5,23.62c-12.11,0-21.6-3.68-21.6-3.68l-4.99,2.37
			c-0.47,0.12-0.83-0.12-0.83-0.47l-0.12-23.03c0-0.24,0-0.6,0-0.83c0-0.83,0.12-1.67,0.95-1.67c1.78,0,12.11,13.29,22.91,13.29
			c4.99,0,11.52-0.47,11.52-8.19c0-16.85-36.08-16.26-36.08-40.12c0-18.87,16.02-23.14,24.34-23.14c7.24,0,11.63,1.9,15.43,2.37
			l4.99-2.37c0.47-0.12,0.83,0.12,0.83,0.59v17.68c0,1.55-0.71,2.26-1.3,2.26c-0.36,0-0.72-0.24-0.95-0.47
			c-3.32-4.04-10.33-6.17-15.55-6.17c-6.06,0-11.99,3.21-11.99,9.02C27.665,191.413,63.625,190.823,63.625,216.463z"/>
		<path class="st0" d="M77.275,197.353c0-27.9,10.09-42.73,30.39-42.73c18.52,0,30.26,14.36,30.26,42.73
			c0,29.31-10.68,42.73-30.26,42.73C86.305,240.083,77.275,224.293,77.275,197.353z M122.145,197.353
			c0-18.28-4.63-28.49-14.13-28.49c-7.83,0-14.95,8.07-14.95,28.49c0,17.32,4.15,28.49,14.48,28.49
			C117.635,225.843,122.145,215.393,122.145,197.353z"/>
		<path class="st0" d="M212.485,156.283l-2.14,4.16v36.08v14.6c0,20.77-14.12,28.96-27.18,28.96c-13.77,0-27.18-8.19-27.18-28.96
			l0.12-18.99v-31.69l-2.14-4.16c-0.12-0.23,0.12-0.47,0.35-0.47h19.94c0.36,0,0.72,0.36,0.47,0.72l-2.85,6.05v33.95v6.06
			c0,11.39,0.36,23.38,11.28,23.38s11.39-11.99,11.39-23.38v-6.06v-33.72l-2.96-6.29c-0.12-0.36,0.12-0.72,0.59-0.72h19.82
			C212.355,155.803,212.595,156.053,212.485,156.283z"/>
		<path class="st0" d="M285.715,239.013h-19.7c-0.24,0-0.35-0.24-0.35-0.47l0.83-4.15h0.12c-0.72-1.78-1.55-3.44-2.02-4.52
			l-7.48-17.8c-3.44,0.47-6.77,0.59-9.97,0.59c0,2.26,0.12,14.83,0.12,21.72l2.14,4.15c0.12,0.24,0,0.47-0.35,0.47h-19.94
			c-0.36,0-0.72-0.35-0.47-0.83l2.96-6.17v-68.96l-2.96-6.29c-0.12-0.35,0.12-0.83,0.59-0.83h15.78c19.35,0,40.48,1.9,40.48,27.77
			c0,12.82-6.05,20.18-14.01,24.21c1.54,3.09,3.68,7.36,6.53,14.13c1.42,3.32,3.08,6.88,4.39,10.09l3.68,6.06
			C286.305,238.543,286.075,239.013,285.715,239.013z M269.685,183.943c0-12.82-10.32-14.12-22.31-14.12v30.26
			C247.375,200.083,269.685,202.453,269.685,183.943z"/>
		<path class="st0" d="M353.255,231.293c0,1.67-7.72,8.79-22.2,8.79c-18.99,0-29.91-9.26-29.44-42.73
			c0-30.15,8.55-42.73,29.08-42.73c6.89,0,11.52,0.71,15.19,1.78l3.8-1.78c0.36-0.12,0.83,0.12,0.83,0.59v17.09
			c0,0.47-0.36,0.71-0.83,0.59c-2.49-0.83-7.6-4.51-16.73-4.51c-12.23,0-15.55,6.17-15.55,28.96c0.24,22.79,4.16,28.84,13.54,28.84
			c9.25,0,13.29-5.82,15.31-8.42c0.24-0.24,0.83-0.12,0.95,0.23C348.745,220.973,353.255,230.823,353.255,231.293z"/>
		<path class="st0" d="M413.315,232.723c0.95,6.17,2.26,5.82,0.95,6.29h-44.39c-0.36,0-0.72-0.47-0.47-0.83l2.85-6.06v-71.69
			l-2.02-3.91c-0.24-0.24,0-0.6,0.35-0.6h43.68c1.31,0.47,0,0.12-0.95,6.41c-0.47,3.32-1.07,5.81-0.95,8.07
			c0.12,0.59-0.35,0.95-0.83,0.71c-2.25-0.71-3.92-1.07-7.48-1.19c-2.37-0.12-5.47-0.12-10.09,0h-5.93v19.23
			c7.01,0,13.41-0.12,15.78-0.12c0.95,0,2.5-0.83,2.85-0.83c0.6,0,0.95,0.35,0.95,0.83v0.24c-2.73,10.45-3.2,11.15-3.56,13.17
			c-0.12,0.24-0.24,0.35-0.47,0.35c-0.36,0-0.83-0.23-1.42-0.47c-2.14-0.47-4.63-0.47-14.13-0.47v23.39h5.93h10.09
			c3.56-0.24,5.22-0.47,7.48-1.3c0.47-0.12,0.95,0.12,0.83,0.71C412.245,226.903,412.835,229.283,413.315,232.723z"/>
		<path class="st0" d="M115.735,317.463c0-27.89,10.09-42.73,30.39-42.73c18.52,0,30.26,14.36,30.26,42.73
			c0,29.32-10.68,42.73-30.26,42.73C124.755,360.193,115.735,344.413,115.735,317.463z M160.605,317.463
			c0-18.27-4.63-28.49-14.13-28.49c-7.83,0-14.95,8.07-14.95,28.49c0,17.33,4.15,28.49,14.48,28.49
			C156.095,345.953,160.605,335.503,160.605,317.463z"/>
		<path class="st0" d="M246.425,283.163v69.08l2.85,6.05c0.23,0.36-0.12,0.83-0.47,0.83h-19.94c-0.24,0-0.47-0.24-0.36-0.47
			l2.14-4.16v-15.67l-21.84-31.69v47.36l2.14,4.16c0.12,0.24-0.12,0.47-0.36,0.47h-19.94c-0.35,0-0.71-0.47-0.47-0.83l2.85-6.05
			v-71.45l-2.13-4.16c-0.12-0.23,0.12-0.59,0.35-0.59h19.94c0.47,0,0.71,0.47,0.6,0.83l-2.97,6.29v0.83l21.84,31.57v-34.77
			l-2.14-4.16c-0.12-0.23,0.12-0.59,0.36-0.59h19.94c0.47,0,0.71,0.47,0.59,0.83L246.425,283.163z"/>
		<path class="st0" d="M309.455,352.843c0.95,6.17,2.26,5.81,0.95,6.29h-44.39c-0.36,0-0.72-0.47-0.47-0.83l2.85-6.05v-71.69
			l-2.02-3.92c-0.24-0.23,0-0.59,0.35-0.59h43.68c1.31,0.47,0,0.12-0.95,6.41c-0.47,3.32-1.07,5.82-0.95,8.07
			c0.12,0.6-0.35,0.95-0.83,0.71c-2.25-0.71-3.92-1.07-7.48-1.19c-2.37-0.12-5.47-0.12-10.09,0h-5.93v19.23
			c7.01,0,13.41-0.12,15.78-0.12c0.95,0,2.5-0.83,2.85-0.83c0.6,0,0.95,0.36,0.95,0.83v0.23c-2.73,10.45-3.2,11.16-3.56,13.18
			c-0.12,0.24-0.24,0.36-0.47,0.36c-0.36,0-0.83-0.24-1.42-0.47c-2.14-0.47-4.63-0.47-14.13-0.47v23.38h5.93h10.09
			c3.56-0.24,5.22-0.47,7.48-1.31c0.47-0.12,0.95,0.12,0.83,0.72C308.385,347.023,308.975,349.393,309.455,352.843z"/>
	</g>
	<g>
		<path class="st0" d="M24.825,110.023c2.5,2.46,5.45,2.7,8.9,0.49c3.68-2.35,4.07-4.97,2.64-7.22c-1.54-2.4-3.58-2.92-9.15-0.99
			c-6.94,2.39-10.23,1.56-12.45-1.89c-2.43-3.8-1.53-8.59,4.07-12.18c6.03-3.86,10.7-2,13.16,1.11l-3.73,2.39
			c-1.74-1.81-4.16-2.78-7.69-0.52c-2.86,1.83-3.67,4.14-2.23,6.39c1.42,2.21,3.31,2.23,8.25,0.52c8.19-2.82,11.26-0.92,13.33,2.32
			c2.62,4.1,1.57,9.17-4.58,13.11c-6.25,3.99-11.19,2.44-14.24-1.16L24.825,110.023z"/>
		<path class="st0" d="M45.985,72.923l13.85,25.93l-3.85,2.05l-13.86-25.93L45.985,72.923z"/>
		<path class="st0" d="M73.695,91.733l-11.51-27.08l5.22-2.22c6.46,4.67,20.01,14.25,22.74,16.58l0.05-0.03
			c-1.69-3.23-3.52-7.6-5.4-12.02l-4.29-10.09l3.76-1.6l11.51,27.08l-4.93,2.09c-5.9-4.3-20.36-14.84-23.29-17.2l-0.05,0.03
			c1.45,2.86,3.49,7.63,5.57,12.51l4.39,10.35L73.695,91.733z"/>
		<path class="st0" d="M133.465,70.373l-3.18,0.93c-0.37-0.54-0.85-1.71-1.44-3.52c-0.7,2.41-2.61,5.14-7.49,6.58
			c-8.15,2.39-14.33-2.5-16.7-10.53c-2.49-8.46,0.33-16.2,8.92-18.72c6.69-1.97,11.92,0.46,14.17,5.23l-4.19,1.23
			c-1.74-2.65-4.54-4.34-9.06-3.01c-6.41,1.88-7.31,7.75-5.54,13.78c1.66,5.63,5.7,10.21,11.93,8.37c6.11-1.79,6.37-6.32,5.09-10.66
			l-0.08-0.29l-7.62,2.24l-1.04-3.55l11.7-3.44L133.465,70.373z"/>
		<path class="st0" d="M142.465,38.283l4.3-0.79l4.61,25.33l14.98-2.73l0.09,3.75l-18.71,3.4L142.465,38.283z"/>
		<path class="st0" d="M196.515,47.203l-14.47,1.22l0.82,9.82l15.91-1.33l-0.24,3.72l-19.61,1.65l-2.46-29.31l19.41-1.63l0.31,3.68
			l-15.16,1.28l0.71,8.44l14.48-1.23L196.515,47.203z"/>
		<path class="st0" d="M250.385,48.253l-14.5-0.99l-0.67,9.84l15.94,1.09l-0.8,3.65l-19.65-1.34l2-29.37l19.44,1.32l-0.25,3.69
			l-15.18-1.03l-0.58,8.46l14.5,0.99L250.385,48.253z"/>
		<path class="st0" d="M267.705,55.823c0.19,3.5,2.22,5.67,6.26,6.35c4.3,0.73,6.37-0.95,6.81-3.58c0.47-2.81-0.69-4.56-6.12-6.88
			c-6.75-2.89-8.63-5.72-7.94-9.78c0.75-4.45,4.64-7.39,11.2-6.28c7.06,1.2,9.26,5.71,9,9.67l-4.37-0.74
			c-0.06-2.52-1.21-4.85-5.35-5.55c-3.35-0.57-5.5,0.6-5.95,3.23c-0.44,2.59,0.94,3.88,5.76,5.94c7.97,3.42,8.96,6.88,8.31,10.68
			c-0.81,4.8-5.01,7.85-12.21,6.64c-7.32-1.24-9.93-5.72-9.77-10.44L267.705,55.823z"/>
		<path class="st0" d="M309.355,46.713l-9.07-2.47l0.97-3.57l22.38,6.09l-0.97,3.57l-9.08-2.47l-6.76,24.83l-4.24-1.16
			L309.355,46.713z"/>
		<path class="st0" d="M331.285,71.493l-5.77,6.87l-4.06-1.52l20.05-23.96l5.07,1.89l-0.15,31.39l-4.35-1.62l0.05-9L331.285,71.493z
			 M342.405,71.693c0.11-7.92,0.13-12.27,0.33-14.67l-0.04-0.02c-1.58,2.16-4.86,6.17-9.11,11.39L342.405,71.693z"/>
		<path class="st0" d="M370.885,69.203l-8.47-4.06l1.6-3.33l20.89,10.02l-1.6,3.33l-8.47-4.06l-11.12,23.18l-3.95-1.9
			L370.885,69.203z"/>
		<path class="st0" d="M405.705,102.243l-12.44-7.52l-5.1,8.44l13.67,8.27l-2.39,2.88l-16.85-10.19l15.22-25.19l16.68,10.09
			l-1.91,3.17l-13.02-7.88l-4.39,7.26l12.43,7.52L405.705,102.243z"/>
	</g>
	<g>
		<g>
			<path class="st0" d="M94.405,455.613l-15.44,71.33h0.12l1.19,4.16c0.12,0.24-0.12,0.47-0.47,0.47h-26.23
				c-0.36,0-0.6-0.24-0.47-0.47l1.18-4.04l-15.31-71.45l-4.39-6.29c-0.24-0.36,0-0.83,0.35-0.83h19.47c0.35,0,0.6,0.36,0.47,0.59
				l-1.19,4.16l12.94,60.3l13.18-60.41l-1.19-4.04c-0.12-0.23,0.12-0.59,0.47-0.59h19.23c0.47,0,0.59,0.47,0.36,0.83L94.405,455.613
				z"/>
			<path class="st0" d="M108.885,489.913c0-27.89,10.09-42.73,30.39-42.73c18.52,0,30.26,14.36,30.26,42.73
				c0,29.32-10.68,42.73-30.26,42.73C117.905,532.643,108.885,516.863,108.885,489.913z M153.755,489.913
				c0-18.27-4.63-28.49-14.13-28.49c-7.83,0-14.95,8.07-14.95,28.49c0,17.33,4.15,28.49,14.48,28.49
				C149.245,518.403,153.755,507.953,153.755,489.913z"/>
			<path class="st0" d="M243.015,489.323c0,29.08-13.89,42.26-44.63,42.26h-2.02c-2.85,0-7.71,0-7.83,0h-2.37
				c-0.47,0-0.72-0.36-0.47-0.83l2.85-6.17v-71.33l-2.14-4.16c-0.12-0.23,0.12-0.59,0.36-0.59h9.61h2.37
				C229.595,448.493,243.015,460.833,243.015,489.323z M227.225,490.383c0-18.99-7.24-27.77-22.91-27.77v55.19
				C220.105,517.813,227.225,509.263,227.225,490.383z"/>
			<path class="st0" d="M316.845,451.813c-0.12,0.12-22.79,39.05-22.79,40.12c0,0.24,18.04,38.22,23.98,38.22
				c0.35,0,0.95,0.12,0.95,0.71c0,0.6-0.36,0.71-0.95,0.71h-23.15c-0.12,0-0.36,0-0.36-0.36c0-0.47,0.6-1.07,0.6-1.42
				c0-1.07-13.06-27.89-13.53-28.72c-0.36-0.72-1.07-0.95-1.66-0.95c-1.9,0-2.14,0.12-2.14,0.47v26.34l2.14,4.16
				c0.12,0.24-0.12,0.47-0.35,0.47h-19.94c-0.47,0-0.72-0.47-0.47-0.83l2.85-6.29v-71.22l-2.14-4.16c-0.12-0.23,0.12-0.59,0.36-0.59
				h19.94c0.47,0,0.71,0.47,0.47,0.83l-2.85,6.29v30.5c0.12,0.47,1.07,0.6,1.54,0.6c0.36,0,0.95-0.12,1.67-0.12
				c0.59,0,17.8-30.98,17.8-35.84c0-1.31-0.71-1.19-0.71-1.78c0-0.36,0.71-0.47,2.02-0.47h1.07c1.42,0,3.09,0,5.11,0h12.82
				c0.47,0,0.59,0.24,0.59,0.47C319.695,449.803,317.795,450.153,316.845,451.813z"/>
			<path class="st0" d="M393.645,531.573h-19.47c-0.35,0-0.6-0.24-0.47-0.47l1.42-4.16l-3.09-16.97h-16.62l-3.09,16.97l1.3,4.16
				c0.12,0.24-0.12,0.47-0.47,0.47h-19.34c-0.47,0-0.71-0.47-0.35-0.83l4.03-6.29l12.82-71.22l-1.3-4.16
				c-0.12-0.23,0.12-0.59,0.35-0.59h28.73c0.23,0,0.47,0.36,0.47,0.59l-1.42,4.16l12.82,71.22l4.15,6.29
				C394.355,531.103,394.125,531.573,393.645,531.573z M369.785,497.393l-6.05-33.47l-6.05,33.47H369.785z"/>
		</g>
	</g>
</g>
<line class="st1" x1="32.575" y1="403.533" x2="378.995" y2="403.533"/>
</svg>
