<?xml version="1.0" encoding="utf-8"?>
<!-- Generator: Adobe Illustrator 23.0.3, SVG Export Plug-In . SVG Version: 6.00 Build 0)  -->
<svg version="1.1"
	 id="Layer_1" xmlns:cc="http://creativecommons.org/ns#" xmlns:dc="http://purl.org/dc/elements/1.1/" xmlns:rdf="http://www.w3.org/1999/02/22-rdf-syntax-ns#" xmlns:svg="http://www.w3.org/2000/svg"
	 xmlns="http://www.w3.org/2000/svg" xmlns:xlink="http://www.w3.org/1999/xlink" x="0px" y="0px" viewBox="0 0 528 528"
	 style="enable-background:new 0 0 528 528;" xml:space="preserve">
<style type="text/css">
	.st0{fill:#F8F4ED;}
</style>
<g>
	<path class="st0" d="M162.955,131.604c33.894,20.477,69.389,5.775,78.876-32.671l4.919-19.934c9.487-38.447,25.012-38.447,34.499,0
		l4.919,19.934c9.487,38.447,44.981,53.149,78.876,32.671l17.574-10.617c33.894-20.477,44.872-9.5,24.395,24.395l-10.617,17.574
		c-20.477,33.894-5.775,69.389,32.671,78.876l19.934,4.919c38.447,9.487,38.447,25.012,0,34.499l-19.934,4.919
		c-38.447,9.487-53.149,44.981-32.671,78.876l10.617,17.574c20.477,33.894,9.5,44.872-24.395,24.395l-17.574-10.617
		c-33.894-20.477-69.389-5.775-78.876,32.671l-4.919,19.934c-9.487,38.447-25.012,38.447-34.499,0l-4.919-19.934
		c-9.487-38.447-44.981-53.149-78.876-32.671l-17.574,10.617c-33.894,20.477-44.872,9.5-24.395-24.395l10.617-17.574
		c20.477-33.894,5.775-69.389-32.671-78.876l-19.934-4.919c-38.447-9.487-38.447-25.012,0-34.499l19.934-4.919
		c38.447-9.487,53.149-44.981,32.671-78.876l-10.617-17.574c-20.477-33.894-9.5-44.872,24.395-24.395L162.955,131.604z"/>
</g>
</svg>
