<?xml version="1.0" encoding="utf-8"?>
<!-- Generator: Adobe Illustrator 23.0.4, SVG Export Plug-In . SVG Version: 6.00 Build 0)  -->
<svg version="1.1" id="Capa_1" xmlns="http://www.w3.org/2000/svg" xmlns:xlink="http://www.w3.org/1999/xlink" x="0px" y="0px"
	 viewBox="0 0 87.859 87.859" style="enable-background:new 0 0 87.859 87.859;" xml:space="preserve">
<style type="text/css">
	.st0{fill:#9A6B50;}
</style>
<g>
	<g id="Marker">
		<g>
			<path class="st0" d="M80.938,40.483C79.294,22.713,65.093,8.528,47.312,6.917V0h-6.757v6.918
				C22.773,8.528,8.572,22.714,6.93,40.483H0v6.757h6.919c1.582,17.838,15.81,32.087,33.636,33.701v6.918h6.757v-6.918
				c17.826-1.613,32.054-15.862,33.636-33.701h6.911v-6.757H80.938z M47.312,74.146v-6.558h-6.757v6.558
				C26.457,72.58,15.242,61.345,13.708,47.24h6.566v-6.757h-6.549c1.591-14.041,12.777-25.21,26.829-26.771v6.564h6.756v-6.564
				c14.053,1.56,25.239,12.729,26.83,26.771h-6.556v6.757h6.573C72.625,61.345,61.409,72.58,47.312,74.146z M43.934,33.727
				c-5.595,0-10.135,4.533-10.135,10.131c0,5.599,4.54,10.139,10.135,10.139s10.134-4.54,10.134-10.139
				C54.068,38.26,49.527,33.727,43.934,33.727z"/>
		</g>
	</g>
</g>
</svg>
