<?xml version="1.0" encoding="utf-8"?>
<!-- Generator: Adobe Illustrator 23.0.3, SVG Export Plug-In . SVG Version: 6.00 Build 0)  -->
<svg version="1.1" id="Layer_1" xmlns="http://www.w3.org/2000/svg" xmlns:xlink="http://www.w3.org/1999/xlink" x="0px" y="0px"
	 viewBox="0 0 280.895 27.264" style="enable-background:new 0 0 280.895 27.264;" xml:space="preserve">
<style type="text/css">
	.st0{fill:#F3F3F3;}
</style>
<path class="st0" d="M0,0.022C46.262-0.001,92.525,0,139.211,0c-0.468,1.741-1.55,2.368-2.534,3.113
	c-5.072,3.836-9.714,8.008-12.274,14.091c-0.849,2.018-0.952,4.175-1.764,6.179c-0.378,0.932-0.567,1.888-1.555,2.576
	c-0.988,0.548-2.185,0.379-3.299,0.151c-6.132-1.253-12.247-2.594-18.372-3.885c-11.287-2.378-22.579-4.74-33.867-7.113
	c-15.477-3.255-30.94-6.573-46.434-9.742C13.139,4.147,7.101,3.239,1.084,2.241"/>
<path class="st0" d="M163.363,27.067c-2.02-4.983-2.611-10.517-5.96-15.019c-3.201-4.302-7.627-7.13-11.744-10.593
	c5.731-0.945,130.59-0.736,135.238,0.404c-38.964,8.581-77.111,16.985-115.265,25.361C165.023,27.354,164.34,27.143,163.363,27.067z
	"/>
</svg>
