<?xml version="1.0" encoding="UTF-8" standalone="no"?>
<svg xmlns="http://www.w3.org/2000/svg" xmlns:xlink="http://www.w3.org/1999/xlink" xmlns:serif="http://www.serif.com/" width="100%" height="100%" viewBox="0 0 112 112" version="1.1" xml:space="preserve" style="fill-rule:evenodd;clip-rule:evenodd;stroke-linejoin:round;stroke-miterlimit:2;">
    <g transform="matrix(1,0,0,1,-2100.23,-60.792)">
        <g transform="matrix(1,0,0,1,1894.25,0)">
            <g opacity="0.2">
                <g transform="matrix(0,-1,-1,0,261.535,60.9063)">
                    <path d="M-55.555,-55.555C-86.238,-55.555 -111.11,-30.682 -111.11,0.001C-111.11,30.682 -86.238,55.555 -55.555,55.555C-24.872,55.555 0,30.682 0,0.001C0,-30.682 -24.872,-55.555 -55.555,-55.555" style="fill:rgb(109,110,113);fill-rule:nonzero;"></path>
                </g>
            </g>
        </g>
        <g transform="matrix(1,0,0,1,1894.25,0)">
            <g transform="matrix(0,111.11,111.11,0,262.303,60.792)">
                <ellipse cx="0.5" cy="0" rx="0.5" ry="0.5" style="fill:url(#_Linear1);"></ellipse>
            </g>
        </g>
        <g transform="matrix(1,0,0,1,1894.25,0)">
            <g transform="matrix(111.11,0,0,-111.11,206.749,143.569)">
                <path d="M0.5,-0.235C0.227,-0.235 0.006,-0.017 0,0.255C0,0.252 0,0.248 0,0.245C0,-0.031 0.224,-0.255 0.5,-0.255C0.776,-0.255 1,-0.031 1,0.245C1,0.248 1,0.252 1,0.255C0.994,-0.017 0.773,-0.235 0.5,-0.235Z" style="fill:url(#_Linear2);fill-rule:nonzero;"></path>
            </g>
        </g>
        <g transform="matrix(1,0,0,1,1894.25,0)">
            <g transform="matrix(111.11,0,0,-111.11,206.749,142.737)">
                <path d="M0.5,-0.242C0.226,-0.242 0.003,-0.021 0,0.253C0,0.251 0,0.249 0,0.247C0,-0.029 0.224,-0.253 0.5,-0.253C0.776,-0.253 1,-0.029 1,0.247C1,0.249 1,0.251 1,0.253C0.997,-0.021 0.774,-0.242 0.5,-0.242Z" style="fill:url(#_Linear3);fill-rule:nonzero;"></path>
            </g>
        </g>
        <g transform="matrix(1,0,0,1,1894.25,0)">
            <g transform="matrix(111.11,0,0,-111.11,206.749,89.1266)">
                <path d="M0,-0.245C0,-0.248 0,-0.252 0,-0.255C0.006,0.017 0.227,0.235 0.5,0.235C0.773,0.235 0.994,0.017 1,-0.255C1,-0.252 1,-0.248 1,-0.245C1,0.031 0.776,0.255 0.5,0.255C0.224,0.255 0,0.031 0,-0.245Z" style="fill:url(#_Linear4);fill-rule:nonzero;"></path>
            </g>
        </g>
        <g transform="matrix(1,0,0,1,1894.25,0)">
            <g transform="matrix(111.11,0,0,-111.11,206.749,89.9597)">
                <path d="M0,-0.248C0,-0.249 0,-0.251 0,-0.252C0.003,0.021 0.226,0.243 0.5,0.243C0.774,0.243 0.997,0.021 1,-0.252C1,-0.251 1,-0.249 1,-0.248C1,0.029 0.776,0.253 0.5,0.253C0.224,0.253 0,0.029 0,-0.248Z" style="fill:url(#_Linear5);fill-rule:nonzero;"></path>
            </g>
        </g>
        <g transform="matrix(1,0,0,1,1894.25,0)">
            <g>
                <g transform="matrix(0.953488,0.301432,-0.301432,0.953488,0,0)">
                    <text x="281.102px" y="80.438px" style="font-family:'AlegreyaSansSC-Medium', 'Alegreya Sans SC';font-weight:500;font-size:13.327px;fill:rgb(133,117,80);">2</text>
                </g>
                <g transform="matrix(0.995274,0.0971105,-0.0971105,0.995274,0,0)">
                    <text x="268.166px" y="138.713px" style="font-family:'AlegreyaSansSC-Medium', 'Alegreya Sans SC';font-weight:500;font-size:13.327px;fill:rgb(133,117,80);">0</text>
                </g>
                <g transform="matrix(0.994223,-0.107339,0.107339,0.994223,0,0)">
                    <text x="245.001px" y="192.125px" style="font-family:'AlegreyaSansSC-Medium', 'Alegreya Sans SC';font-weight:500;font-size:13.327px;fill:rgb(133,117,80);">2</text>
                </g>
                <g transform="matrix(0.950396,-0.311043,0.311043,0.950396,0,0)">
                    <text x="209.712px" y="240.449px" style="font-family:'AlegreyaSansSC-Medium', 'Alegreya Sans SC';font-weight:500;font-size:13.327px;fill:rgb(133,117,80);">1</text>
                </g>
            </g>
        </g>
        <g transform="matrix(1,0,0,1,1894.25,0)">
            <g transform="matrix(-1.6602,-13.2232,13.2232,-1.6602,222.834,125.448)">
                <path d="M0.482,-0.246L0.481,-0.172C0.482,-0.115 0.464,-0.071 0.427,-0.04C0.39,-0.009 0.338,0.007 0.271,0.007C0.204,0.007 0.154,-0.009 0.119,-0.04C0.084,-0.071 0.068,-0.115 0.069,-0.172L0.07,-0.249L0.067,-0.501L0.164,-0.501L0.159,-0.187C0.158,-0.111 0.197,-0.073 0.275,-0.073C0.314,-0.073 0.343,-0.083 0.363,-0.102C0.383,-0.121 0.393,-0.149 0.392,-0.187L0.388,-0.501L0.485,-0.501L0.482,-0.246Z" style="fill-rule:nonzero;"></path>
            </g>
        </g>
        <g transform="matrix(1,0,0,1,1894.25,0)">
            <g transform="matrix(1.1785,-13.2748,13.2748,1.1785,221.965,115.952)">
                <path d="M0.244,-0.507C0.287,-0.507 0.329,-0.499 0.372,-0.482L0.357,-0.391L0.342,-0.388C0.303,-0.419 0.267,-0.434 0.232,-0.434C0.207,-0.434 0.188,-0.428 0.174,-0.415C0.159,-0.402 0.152,-0.388 0.152,-0.371C0.152,-0.354 0.16,-0.341 0.175,-0.33C0.19,-0.319 0.213,-0.306 0.245,-0.293C0.275,-0.28 0.299,-0.269 0.318,-0.258C0.336,-0.247 0.352,-0.232 0.365,-0.214C0.378,-0.196 0.385,-0.174 0.385,-0.147C0.385,-0.12 0.378,-0.094 0.364,-0.071C0.349,-0.048 0.328,-0.029 0.3,-0.015C0.271,-0 0.237,0.007 0.197,0.007C0.173,0.007 0.148,0.004 0.121,-0.001C0.094,-0.006 0.069,-0.014 0.044,-0.025L0.057,-0.122L0.068,-0.128C0.087,-0.109 0.11,-0.094 0.137,-0.083C0.163,-0.072 0.187,-0.066 0.209,-0.066C0.233,-0.066 0.253,-0.072 0.268,-0.085C0.282,-0.097 0.29,-0.112 0.29,-0.13C0.29,-0.148 0.282,-0.163 0.267,-0.174C0.252,-0.185 0.228,-0.197 0.196,-0.21C0.167,-0.223 0.144,-0.235 0.125,-0.246C0.106,-0.257 0.091,-0.271 0.078,-0.29C0.065,-0.308 0.058,-0.33 0.058,-0.357C0.058,-0.385 0.066,-0.41 0.081,-0.433C0.096,-0.456 0.117,-0.474 0.146,-0.487C0.174,-0.5 0.207,-0.507 0.244,-0.507Z" style="fill-rule:nonzero;"></path>
            </g>
        </g>
        <g transform="matrix(1,0,0,1,1894.25,0)">
            <g transform="matrix(3.9483,-12.7288,12.7288,3.9483,222.846,107.998)">
                <path d="M0.489,-0L0.392,-0L0.379,-0.062L0.361,-0.117L0.249,-0.118L0.149,-0.117L0.13,-0.067L0.116,-0L0.021,-0L0.208,-0.501L0.32,-0.501L0.489,-0ZM0.336,-0.192L0.265,-0.411L0.258,-0.411L0.177,-0.192L0.256,-0.191L0.336,-0.192Z" style="fill-rule:nonzero;"></path>
            </g>
        </g>
        <g transform="matrix(1,0,0,1,1894.25,0)">
            <g transform="matrix(7.7964,-10.8086,10.8086,7.7964,228.001,95.3854)">
                <path d="M0.244,-0.507C0.287,-0.507 0.329,-0.499 0.372,-0.482L0.357,-0.391L0.342,-0.388C0.303,-0.419 0.267,-0.434 0.232,-0.434C0.207,-0.434 0.188,-0.428 0.174,-0.415C0.159,-0.402 0.152,-0.388 0.152,-0.371C0.152,-0.354 0.16,-0.341 0.175,-0.33C0.19,-0.319 0.213,-0.306 0.245,-0.293C0.275,-0.28 0.299,-0.269 0.318,-0.258C0.336,-0.247 0.352,-0.232 0.365,-0.214C0.378,-0.196 0.385,-0.174 0.385,-0.147C0.385,-0.12 0.378,-0.094 0.364,-0.071C0.349,-0.048 0.328,-0.029 0.3,-0.015C0.271,-0 0.237,0.007 0.197,0.007C0.173,0.007 0.148,0.004 0.121,-0.001C0.094,-0.006 0.069,-0.014 0.044,-0.025L0.057,-0.122L0.068,-0.128C0.087,-0.109 0.11,-0.094 0.137,-0.083C0.163,-0.072 0.187,-0.066 0.209,-0.066C0.233,-0.066 0.253,-0.072 0.268,-0.085C0.282,-0.097 0.29,-0.112 0.29,-0.13C0.29,-0.148 0.282,-0.163 0.267,-0.174C0.252,-0.185 0.228,-0.197 0.196,-0.21C0.167,-0.223 0.144,-0.235 0.125,-0.246C0.106,-0.257 0.091,-0.271 0.078,-0.29C0.065,-0.308 0.058,-0.33 0.058,-0.357C0.058,-0.385 0.066,-0.41 0.081,-0.433C0.096,-0.456 0.117,-0.474 0.146,-0.487C0.174,-0.5 0.207,-0.507 0.244,-0.507Z" style="fill-rule:nonzero;"></path>
            </g>
        </g>
        <g transform="matrix(1,0,0,1,1894.25,0)">
            <g transform="matrix(9.8218,-9.0079,9.0079,9.8218,232.841,89.0114)">
                <path d="M0.273,-0.502C0.327,-0.502 0.369,-0.489 0.399,-0.463C0.428,-0.436 0.443,-0.399 0.443,-0.35C0.443,-0.293 0.424,-0.248 0.386,-0.215C0.348,-0.182 0.297,-0.165 0.232,-0.165L0.175,-0.165L0.175,-0.159L0.179,-0L0.083,-0L0.087,-0.15L0.083,-0.501L0.273,-0.502ZM0.256,-0.237C0.313,-0.249 0.342,-0.284 0.342,-0.342C0.342,-0.371 0.334,-0.392 0.318,-0.406C0.302,-0.42 0.277,-0.428 0.244,-0.429L0.179,-0.427L0.176,-0.239L0.256,-0.237Z" style="fill-rule:nonzero;"></path>
            </g>
        </g>
        <g transform="matrix(1,0,0,1,1894.25,0)">
            <g transform="matrix(11.2624,-7.1252,7.1252,11.2624,239.427,83.4176)">
                <path d="M0.175,-0.159L0.179,-0L0.083,-0L0.087,-0.15L0.083,-0.501L0.18,-0.501L0.175,-0.159Z" style="fill-rule:nonzero;"></path>
            </g>
        </g>
        <g transform="matrix(1,0,0,1,1894.25,0)">
            <g transform="matrix(12.3754,-4.9457,4.9457,12.3754,244.385,80.3522)">
                <path d="M0.342,-0.2C0.381,-0.142 0.424,-0.083 0.473,-0.023L0.472,-0.011C0.437,-0.001 0.407,0.005 0.381,0.007L0.366,-0.002C0.317,-0.081 0.283,-0.138 0.263,-0.174L0.175,-0.173L0.175,-0.159L0.179,-0L0.083,-0L0.087,-0.15L0.083,-0.501L0.273,-0.502C0.327,-0.502 0.369,-0.489 0.399,-0.464C0.428,-0.438 0.443,-0.402 0.443,-0.355C0.443,-0.322 0.434,-0.293 0.417,-0.266C0.399,-0.239 0.374,-0.217 0.342,-0.2ZM0.176,-0.25L0.263,-0.247C0.316,-0.262 0.342,-0.295 0.342,-0.346C0.342,-0.373 0.334,-0.394 0.318,-0.407C0.302,-0.42 0.278,-0.427 0.245,-0.428L0.179,-0.426L0.176,-0.25Z" style="fill-rule:nonzero;"></path>
            </g>
        </g>
        <g transform="matrix(1,0,0,1,1894.25,0)">
            <g transform="matrix(13.073,-2.5895,2.5895,13.073,252.889,77.3375)">
                <path d="M0.175,-0.159L0.179,-0L0.083,-0L0.087,-0.15L0.083,-0.501L0.18,-0.501L0.175,-0.159Z" style="fill-rule:nonzero;"></path>
            </g>
        </g>
        <g transform="matrix(1,0,0,1,1894.25,0)">
            <g transform="matrix(13.3225,-0.3478,0.3478,13.3225,258.53,76.3112)">
                <path d="M0.413,-0.493L0.407,-0.416L0.31,-0.423L0.268,-0.423L0.266,-0.159L0.269,-0L0.173,-0L0.177,-0.15L0.175,-0.423L0.134,-0.423L0.035,-0.416L0.028,-0.424L0.035,-0.501L0.408,-0.501L0.413,-0.493Z" style="fill-rule:nonzero;"></path>
            </g>
        </g>
        <g transform="matrix(1,0,0,1,1894.25,0)">
            <g transform="matrix(13.1443,2.1992,-2.1992,13.1443,266.43,76.2994)">
                <path d="M0.244,-0.507C0.287,-0.507 0.329,-0.499 0.372,-0.482L0.357,-0.391L0.342,-0.388C0.303,-0.419 0.267,-0.434 0.232,-0.434C0.207,-0.434 0.188,-0.428 0.174,-0.415C0.159,-0.402 0.152,-0.388 0.152,-0.371C0.152,-0.354 0.16,-0.341 0.175,-0.33C0.19,-0.319 0.213,-0.306 0.245,-0.293C0.275,-0.28 0.299,-0.269 0.318,-0.258C0.336,-0.247 0.352,-0.232 0.365,-0.214C0.378,-0.196 0.385,-0.174 0.385,-0.147C0.385,-0.12 0.378,-0.094 0.364,-0.071C0.349,-0.048 0.328,-0.029 0.3,-0.015C0.271,-0 0.237,0.007 0.197,0.007C0.173,0.007 0.148,0.004 0.121,-0.001C0.094,-0.006 0.069,-0.014 0.044,-0.025L0.057,-0.122L0.068,-0.128C0.087,-0.109 0.11,-0.094 0.137,-0.083C0.163,-0.072 0.187,-0.066 0.209,-0.066C0.233,-0.066 0.253,-0.072 0.268,-0.085C0.282,-0.097 0.29,-0.112 0.29,-0.13C0.29,-0.148 0.282,-0.163 0.267,-0.174C0.252,-0.185 0.228,-0.197 0.196,-0.21C0.167,-0.223 0.144,-0.235 0.125,-0.246C0.106,-0.257 0.091,-0.271 0.078,-0.29C0.065,-0.308 0.058,-0.33 0.058,-0.357C0.058,-0.385 0.066,-0.41 0.081,-0.433C0.096,-0.456 0.117,-0.474 0.146,-0.487C0.174,-0.5 0.207,-0.507 0.244,-0.507Z" style="fill-rule:nonzero;"></path>
            </g>
        </g>
        <g transform="matrix(1,0,0,1,1894.25,0)">
            <g transform="matrix(11.7586,6.2726,-6.2726,11.7586,278.587,79.3678)">
                <path d="M0.342,-0.2C0.381,-0.142 0.424,-0.083 0.473,-0.023L0.472,-0.011C0.437,-0.001 0.407,0.005 0.381,0.007L0.366,-0.002C0.317,-0.081 0.283,-0.138 0.263,-0.174L0.175,-0.173L0.175,-0.159L0.179,-0L0.083,-0L0.087,-0.15L0.083,-0.501L0.273,-0.502C0.327,-0.502 0.369,-0.489 0.399,-0.464C0.428,-0.438 0.443,-0.402 0.443,-0.355C0.443,-0.322 0.434,-0.293 0.417,-0.266C0.399,-0.239 0.374,-0.217 0.342,-0.2ZM0.176,-0.25L0.263,-0.247C0.316,-0.262 0.342,-0.295 0.342,-0.346C0.342,-0.373 0.334,-0.394 0.318,-0.407C0.302,-0.42 0.278,-0.427 0.245,-0.428L0.179,-0.426L0.176,-0.25Z" style="fill-rule:nonzero;"></path>
            </g>
        </g>
        <g transform="matrix(1,0,0,1,1894.25,0)">
            <g transform="matrix(10.0862,8.7108,-8.7108,10.0862,286.377,83.7916)">
                <path d="M0.489,-0L0.392,-0L0.379,-0.062L0.361,-0.117L0.249,-0.118L0.149,-0.117L0.13,-0.067L0.116,-0L0.021,-0L0.208,-0.501L0.32,-0.501L0.489,-0ZM0.336,-0.192L0.265,-0.411L0.258,-0.411L0.177,-0.192L0.256,-0.191L0.336,-0.192Z" style="fill-rule:nonzero;"></path>
            </g>
        </g>
        <g transform="matrix(1,0,0,1,1894.25,0)">
            <g transform="matrix(8.2117,10.4966,-10.4966,8.2117,292.643,89.4664)">
                <path d="M0.413,-0.493L0.407,-0.416L0.31,-0.423L0.268,-0.423L0.266,-0.159L0.269,-0L0.173,-0L0.177,-0.15L0.175,-0.423L0.134,-0.423L0.035,-0.416L0.028,-0.424L0.035,-0.501L0.408,-0.501L0.413,-0.493Z" style="fill-rule:nonzero;"></path>
            </g>
        </g>
        <g transform="matrix(1,0,0,1,1894.25,0)">
            <g transform="matrix(6.2905,11.749,-11.749,6.2905,297.421,96.0533)">
                <path d="M0.175,-0.159L0.179,-0L0.083,-0L0.087,-0.15L0.083,-0.501L0.18,-0.501L0.175,-0.159Z" style="fill-rule:nonzero;"></path>
            </g>
        </g>
        <g transform="matrix(1,0,0,1,1894.25,0)">
            <g transform="matrix(3.8397,12.7619,-12.7619,3.8397,300.169,101.194)">
                <path d="M0.512,-0.153L0.515,-0L0.411,-0L0.174,-0.352L0.168,-0.352L0.167,-0.17L0.17,-0L0.083,-0L0.087,-0.147L0.084,-0.501L0.186,-0.501L0.423,-0.149L0.431,-0.149L0.428,-0.498L0.517,-0.503L0.512,-0.153Z" style="fill-rule:nonzero;"></path>
            </g>
        </g>
        <g transform="matrix(1,0,0,1,1894.25,0)">
            <g transform="matrix(0.78,13.3042,-13.3042,0.78,302.758,110.82)">
                <path d="M0.31,-0.507C0.362,-0.507 0.415,-0.497 0.468,-0.476L0.439,-0.385L0.429,-0.385C0.404,-0.4 0.381,-0.411 0.361,-0.418C0.34,-0.425 0.318,-0.428 0.293,-0.428C0.241,-0.428 0.203,-0.413 0.178,-0.385C0.153,-0.356 0.141,-0.309 0.141,-0.244C0.141,-0.181 0.153,-0.137 0.176,-0.111C0.199,-0.084 0.238,-0.071 0.291,-0.071C0.305,-0.071 0.318,-0.072 0.331,-0.075C0.344,-0.078 0.359,-0.082 0.378,-0.089L0.378,-0.131L0.377,-0.206L0.465,-0.212L0.464,-0.146L0.464,-0.024C0.396,-0.003 0.337,0.007 0.286,0.007C0.205,0.007 0.143,-0.014 0.102,-0.057C0.061,-0.1 0.04,-0.161 0.04,-0.24C0.04,-0.326 0.064,-0.392 0.111,-0.438C0.158,-0.484 0.224,-0.507 0.31,-0.507Z" style="fill-rule:nonzero;"></path>
            </g>
        </g>
        <g transform="matrix(1,0,0,1,1894.25,0)">
            <g transform="matrix(-2.003,13.1757,-13.1757,-2.003,303.004,119.987)">
                <path d="M0.244,-0.507C0.287,-0.507 0.329,-0.499 0.372,-0.482L0.357,-0.391L0.342,-0.388C0.303,-0.419 0.267,-0.434 0.232,-0.434C0.207,-0.434 0.188,-0.428 0.174,-0.415C0.159,-0.402 0.152,-0.388 0.152,-0.371C0.152,-0.354 0.16,-0.341 0.175,-0.33C0.19,-0.319 0.213,-0.306 0.245,-0.293C0.275,-0.28 0.299,-0.269 0.318,-0.258C0.336,-0.247 0.352,-0.232 0.365,-0.214C0.378,-0.196 0.385,-0.174 0.385,-0.147C0.385,-0.12 0.378,-0.094 0.364,-0.071C0.349,-0.048 0.328,-0.029 0.3,-0.015C0.271,-0 0.237,0.007 0.197,0.007C0.173,0.007 0.148,0.004 0.121,-0.001C0.094,-0.006 0.069,-0.014 0.044,-0.025L0.057,-0.122L0.068,-0.128C0.087,-0.109 0.11,-0.094 0.137,-0.083C0.163,-0.072 0.187,-0.066 0.209,-0.066C0.233,-0.066 0.253,-0.072 0.268,-0.085C0.282,-0.097 0.29,-0.112 0.29,-0.13C0.29,-0.148 0.282,-0.163 0.267,-0.174C0.252,-0.185 0.228,-0.197 0.196,-0.21C0.167,-0.223 0.144,-0.235 0.125,-0.246C0.106,-0.257 0.091,-0.271 0.078,-0.29C0.065,-0.308 0.058,-0.33 0.058,-0.357C0.058,-0.385 0.066,-0.41 0.081,-0.433C0.096,-0.456 0.117,-0.474 0.146,-0.487C0.174,-0.5 0.207,-0.507 0.244,-0.507Z" style="fill-rule:nonzero;"></path>
            </g>
        </g>
        <g transform="matrix(1,0,0,1,1894.25,0)">
            <g transform="matrix(0,-73.0054,73.0054,0,262.304,154.499)">
                <ellipse cx="0.523" cy="-0" rx="0.489" ry="0.489" style="fill:url(#_Linear6);"></ellipse>
            </g>
        </g>
        <g transform="matrix(1,0,0,1,1894.25,0)">
            <g transform="matrix(71.563,0,0,-71.563,226.522,134.127)">
                <path d="M0.5,-0.238C0.227,-0.238 0.006,-0.017 0,0.259C0,0.255 0,0.252 0,0.248C0,-0.032 0.224,-0.259 0.5,-0.259C0.776,-0.259 1,-0.032 1,0.248C1,0.252 1,0.255 1,0.259C0.994,-0.017 0.773,-0.238 0.5,-0.238Z" style="fill:url(#_Linear7);fill-rule:nonzero;"></path>
            </g>
        </g>
        <g transform="matrix(1,0,0,1,1894.25,0)">
            <g transform="matrix(1,0,0,1,262.304,115.985)">
                <path d="M0,35.195C19.642,35.195 35.579,19.145 35.772,-0.726C35.773,-0.604 35.781,-0.484 35.781,-0.363C35.781,19.676 19.762,35.921 0,35.921C-19.762,35.921 -35.781,19.676 -35.781,-0.363C-35.781,-0.484 -35.773,-0.604 -35.772,-0.726C-35.579,19.145 -19.642,35.195 0,35.195" style="fill:rgb(117,82,28);fill-rule:nonzero;"></path>
            </g>
        </g>
        <g transform="matrix(1,0,0,1,1894.25,0)">
            <g transform="matrix(71.563,0,0,-71.563,226.522,98.5696)">
                <path d="M0,-0.248C0,-0.252 0,-0.255 0,-0.259C0.006,0.017 0.227,0.238 0.5,0.238C0.773,0.238 0.994,0.017 1,-0.259C1,-0.255 1,-0.252 1,-0.248C1,0.032 0.776,0.259 0.5,0.259C0.224,0.259 0,0.032 0,-0.248Z" style="fill:url(#_Linear8);fill-rule:nonzero;"></path>
            </g>
        </g>
        <g transform="matrix(1,0,0,1,1894.25,0)">
            <g transform="matrix(1,0,0,1,262.304,116.711)">
                <path d="M0,-35.195C19.642,-35.195 35.579,-19.145 35.772,0.726C35.773,0.604 35.781,0.484 35.781,0.363C35.781,-19.676 19.762,-35.921 0,-35.921C-19.762,-35.921 -35.781,-19.676 -35.781,0.363C-35.781,0.484 -35.773,0.604 -35.772,0.726C-35.579,-19.145 -19.642,-35.195 0,-35.195" style="fill:rgb(117,82,28);fill-rule:nonzero;"></path>
            </g>
        </g>
        <g transform="matrix(1,0,0,1,1894.25,0)">
            <g transform="matrix(1,0,0,1,268.453,132.965)">
                <g>
                    <path d="M0,2.27C1.635,1.219 3.374,0.491 4.619,0.282C5.61,0.116 6.716,0.04 7.608,0.543C8.704,1.162 8.351,2.128 6.466,1.896C3.975,1.59 1.042,-1.26 -0.519,-2.397C-1.9,-3.405 -6.636,-7.825 -11.327,-5.556C-11.423,-5.501 -11.41,-5.361 -11.255,-5.429C-6.521,-7.53 -2.308,-3.403 -0.687,-2.269C0.667,-1.322 3.732,1.593 6.287,2.046C8.705,2.475 9.27,0.716 6.866,0.066C6.507,-0.031 6.153,-0.064 5.773,-0.079C5.307,-0.097 4.873,-0.04 4.416,-0.019C1.623,0.107 -3.273,3.406 -6.064,5.181C-7.729,6.24 -9.871,7.15 -11.405,7.254C-14.188,7.444 -16.742,4.986 -14.663,2.417C-13.728,1.262 -12.859,1.145 -12.818,1.223C-12.794,1.269 -13.146,1.491 -13.342,1.565C-13.778,1.731 -13.979,1.796 -14.229,1.812C-15.258,1.877 -16.713,1.442 -18.108,0.82C-19.441,0.226 -20.758,-0.333 -21.632,-0.124C-23.448,0.31 -23.027,1.78 -20.97,1.89C-18.114,2.044 -12.557,-1.635 -10.492,-2.075C-8.504,-2.673 -6.915,-2.619 -5.04,-1.42C-2.483,0.212 -0.763,1.979 0.479,2.677C1.773,3.404 4.869,5.213 8.252,4.965C12.351,4.666 13.999,1.738 12.997,-0.652C11.799,-3.512 8.229,-4.736 5.251,-4.455C2.375,-4.183 1.406,-3.664 0.022,-3.168C-2.43,-2.292 -7.108,-0.07 -10.215,1.789C-24.097,10.095 -29.667,-2.937 -20.683,-4.394C-19.704,-4.553 -17.791,-5.055 -13.527,-2.878C-9.813,-0.982 -4.771,3.234 -2.403,5.122C-1.17,6.106 1.339,7.5 3.498,7.505C3.577,7.505 3.566,7.41 3.503,7.404C1.371,7.184 -0.635,6.271 -2.296,4.943C-5.932,2.037 -10.889,-1.813 -13.386,-3.019C-15.972,-4.268 -18.831,-5.535 -22.209,-4.598C-27.266,-3.197 -27.7,4.074 -17.649,5.15C-15.659,5.363 -13.22,4.627 -10.699,3.504C-8.623,2.58 -8.7,1.769 0.794,-2.696C3.542,-3.988 6.742,-5.045 9.745,-3.547C13.715,-1.567 13.652,4.087 8.175,4.685C5.161,5.014 2.259,3.589 0.506,2.476C-1.56,1.165 -1.69,0.66 -4.794,-1.458C-7.86,-3.55 -10.551,-2.889 -11.614,-2.72C-14.129,-2.32 -18.47,1.303 -21.131,1.414C-22.603,1.475 -23.069,0.53 -21.883,0.102C-20.878,-0.259 -19.707,0.307 -18.311,0.921C-16.377,1.773 -15.207,1.996 -14.351,1.966C-13.255,1.929 -12.441,1.174 -12.467,1.108C-12.521,0.969 -13.043,1.06 -13.328,1.153C-14.035,1.384 -14.769,2.267 -14.855,2.382C-17.658,6.114 -11.9,9.621 -7.003,7.061C-3.599,5.281 -3.832,4.733 0,2.27" style="fill:rgb(194,136,56);fill-rule:nonzero;"></path>
                </g>
            </g>
        </g>
        <g transform="matrix(1,0,0,1,1894.25,0)">
            <g transform="matrix(1,0,0,1,256.034,98.8124)">
                <g>
                    <path d="M0,-2.27C-1.635,-1.219 -3.374,-0.49 -4.62,-0.282C-5.611,-0.116 -6.716,-0.04 -7.608,-0.543C-8.704,-1.161 -8.351,-2.128 -6.466,-1.896C-3.975,-1.589 -1.042,1.26 0.519,2.397C1.9,3.405 6.636,7.825 11.327,5.556C11.423,5.501 11.409,5.361 11.255,5.429C6.521,7.531 2.308,3.403 0.687,2.269C-0.668,1.322 -3.733,-1.593 -6.287,-2.046C-8.706,-2.475 -9.27,-0.715 -6.866,-0.066C-6.507,0.031 -6.153,0.064 -5.773,0.079C-5.307,0.097 -4.874,0.04 -4.416,0.019C-1.623,-0.107 3.273,-3.405 6.064,-5.181C7.728,-6.239 9.871,-7.149 11.405,-7.254C14.188,-7.444 16.742,-4.986 14.662,-2.417C13.728,-1.262 12.859,-1.145 12.818,-1.223C12.793,-1.269 13.146,-1.491 13.342,-1.565C13.778,-1.731 13.979,-1.796 14.229,-1.812C15.258,-1.877 16.713,-1.441 18.108,-0.82C19.44,-0.226 20.758,0.333 21.631,0.124C23.448,-0.31 23.027,-1.779 20.97,-1.89C18.113,-2.043 12.556,1.635 10.492,2.075C8.504,2.673 6.915,2.619 5.039,1.42C2.483,-0.212 0.762,-1.979 -0.48,-2.677C-1.773,-3.403 -4.869,-5.213 -8.252,-4.965C-12.352,-4.666 -13.999,-1.738 -12.998,0.652C-11.799,3.513 -8.229,4.736 -5.251,4.455C-2.375,4.183 -1.407,3.664 -0.022,3.169C2.43,2.292 7.108,0.071 10.214,-1.789C24.097,-10.095 29.667,2.937 20.683,4.394C19.704,4.553 17.791,5.056 13.527,2.879C9.812,0.983 4.77,-3.234 2.403,-5.122C1.17,-6.105 -1.34,-7.499 -3.499,-7.505C-3.577,-7.505 -3.567,-7.41 -3.503,-7.403C-1.371,-7.184 0.635,-6.27 2.296,-4.942C5.932,-2.037 10.889,1.813 13.386,3.019C15.971,4.268 18.831,5.535 22.209,4.598C27.265,3.197 27.699,-4.073 17.648,-5.149C15.659,-5.363 13.22,-4.627 10.699,-3.504C8.623,-2.58 8.699,-1.769 -0.794,2.696C-3.543,3.988 -6.742,5.045 -9.745,3.547C-13.715,1.568 -13.653,-4.086 -8.175,-4.685C-5.161,-5.014 -2.259,-3.588 -0.507,-2.476C1.56,-1.165 1.69,-0.66 4.793,1.458C7.86,3.551 10.551,2.889 11.613,2.72C14.129,2.32 18.47,-1.303 21.131,-1.414C22.602,-1.475 23.069,-0.53 21.883,-0.102C20.877,0.259 19.706,-0.307 18.311,-0.921C16.377,-1.772 15.207,-1.995 14.351,-1.966C13.254,-1.929 12.441,-1.174 12.467,-1.108C12.521,-0.968 13.043,-1.06 13.327,-1.153C14.035,-1.384 14.769,-2.267 14.854,-2.381C17.657,-6.114 11.9,-9.62 7.003,-7.06C3.598,-5.281 3.831,-4.733 0,-2.27" style="fill:rgb(194,136,56);fill-rule:nonzero;"></path>
                </g>
            </g>
        </g>
        <g transform="matrix(1,0,0,1,1894.25,0)">
            <g transform="matrix(15.007,0,0,15.007,239.019,120.809)">
                <path d="M0.39,-0.01C0.423,-0.01 0.444,-0.016 0.453,-0.028C0.462,-0.04 0.466,-0.06 0.466,-0.089L0.466,-0.283L0.402,-0.283L0.402,-0.305L0.69,-0.305L0.69,-0.283L0.651,-0.283L0.651,-0.001L0.636,-0.001C0.624,-0.018 0.607,-0.026 0.585,-0.026C0.576,-0.026 0.548,-0.02 0.502,-0.008C0.455,0.004 0.416,0.01 0.383,0.01C0.274,0.01 0.19,-0.019 0.131,-0.078C0.071,-0.137 0.041,-0.225 0.041,-0.343C0.041,-0.46 0.072,-0.551 0.135,-0.615C0.197,-0.679 0.281,-0.711 0.386,-0.711C0.427,-0.711 0.468,-0.706 0.509,-0.696C0.55,-0.685 0.573,-0.68 0.58,-0.68C0.587,-0.68 0.592,-0.682 0.595,-0.685C0.598,-0.688 0.602,-0.693 0.606,-0.7L0.617,-0.7L0.625,-0.483L0.607,-0.483C0.574,-0.548 0.542,-0.599 0.509,-0.636C0.476,-0.673 0.439,-0.691 0.398,-0.691C0.296,-0.691 0.245,-0.591 0.245,-0.392L0.245,-0.313C0.245,-0.213 0.258,-0.138 0.283,-0.087C0.308,-0.036 0.343,-0.01 0.39,-0.01Z" style="fill:white;fill-rule:nonzero;"></path>
            </g>
            <g transform="matrix(15.007,0,0,15.007,251.174,120.809)">
                <path d="M0.501,-0.309L0.501,-0.383C0.501,-0.505 0.495,-0.582 0.483,-0.614C0.47,-0.651 0.451,-0.673 0.426,-0.682C0.412,-0.687 0.395,-0.69 0.375,-0.69C0.355,-0.69 0.338,-0.687 0.324,-0.682C0.309,-0.677 0.297,-0.667 0.288,-0.654C0.279,-0.641 0.271,-0.627 0.266,-0.612C0.26,-0.597 0.255,-0.577 0.252,-0.55C0.248,-0.511 0.246,-0.454 0.246,-0.379L0.246,-0.307C0.246,-0.226 0.249,-0.168 0.256,-0.134C0.262,-0.099 0.27,-0.075 0.279,-0.06C0.3,-0.027 0.332,-0.011 0.375,-0.011C0.428,-0.011 0.462,-0.033 0.478,-0.078C0.493,-0.122 0.501,-0.199 0.501,-0.309ZM0.373,0.01C0.262,0.01 0.179,-0.02 0.124,-0.081C0.069,-0.141 0.041,-0.228 0.041,-0.343C0.041,-0.457 0.071,-0.547 0.13,-0.613C0.189,-0.678 0.272,-0.711 0.38,-0.711C0.488,-0.711 0.57,-0.68 0.625,-0.618C0.68,-0.555 0.707,-0.467 0.707,-0.352C0.707,-0.237 0.679,-0.148 0.624,-0.085C0.568,-0.022 0.484,0.01 0.373,0.01Z" style="fill:white;fill-rule:nonzero;"></path>
            </g>
            <g transform="matrix(15.007,0,0,15.007,263.9,120.809)">
                <path d="M0.021,-0.7L0.381,-0.7L0.381,-0.678L0.275,-0.678L0.275,-0.022L0.311,-0.022C0.368,-0.022 0.413,-0.039 0.447,-0.074C0.48,-0.109 0.514,-0.162 0.549,-0.234L0.57,-0.234L0.551,-0L0.021,-0L0.021,-0.022L0.08,-0.022L0.08,-0.678L0.021,-0.678L0.021,-0.7Z" style="fill:white;fill-rule:nonzero;"></path>
            </g>
            <g transform="matrix(15.007,0,0,15.007,274.345,120.809)">
                <path d="M0.714,-0.362C0.714,-0.225 0.675,-0.129 0.598,-0.075C0.527,-0.025 0.429,-0 0.304,-0L0.021,-0L0.021,-0.019L0.087,-0.019L0.087,-0.681L0.021,-0.681L0.021,-0.7L0.33,-0.7C0.458,-0.7 0.554,-0.674 0.618,-0.622C0.682,-0.569 0.714,-0.483 0.714,-0.362ZM0.282,-0.019L0.32,-0.019C0.387,-0.019 0.436,-0.043 0.465,-0.091C0.494,-0.138 0.508,-0.218 0.508,-0.33L0.508,-0.388C0.508,-0.538 0.479,-0.628 0.422,-0.659C0.395,-0.674 0.356,-0.681 0.306,-0.681L0.282,-0.681L0.282,-0.019Z" style="fill:white;fill-rule:nonzero;"></path>
            </g>
        </g>
    </g>
    <defs>
        <linearGradient id="_Linear1" x1="0" y1="0" x2="1" y2="0" gradientUnits="userSpaceOnUse" gradientTransform="matrix(1,0,0,-1,0,4.89605e-06)"><stop offset="0" style="stop-color:rgb(245,245,245);stop-opacity:1"></stop><stop offset="0.08" style="stop-color:rgb(245,245,245);stop-opacity:1"></stop><stop offset="0.49" style="stop-color:rgb(245,245,245);stop-opacity:1"></stop><stop offset="1" style="stop-color:rgb(242,234,223);stop-opacity:1"></stop></linearGradient>
        <linearGradient id="_Linear2" x1="0" y1="0" x2="1" y2="0" gradientUnits="userSpaceOnUse" gradientTransform="matrix(1,0,0,-1,0,-6.91746e-06)"><stop offset="0" style="stop-color:rgb(245,245,245);stop-opacity:1"></stop><stop offset="0.08" style="stop-color:rgb(245,245,245);stop-opacity:1"></stop><stop offset="0.49" style="stop-color:rgb(130,130,130);stop-opacity:1"></stop><stop offset="1" style="stop-color:rgb(130,130,130);stop-opacity:1"></stop></linearGradient>
        <linearGradient id="_Linear3" x1="0" y1="0" x2="1" y2="0" gradientUnits="userSpaceOnUse" gradientTransform="matrix(1,0,0,-1,0,1.12501e-06)"><stop offset="0" style="stop-color:rgb(245,245,245);stop-opacity:1"></stop><stop offset="0.08" style="stop-color:rgb(245,245,245);stop-opacity:1"></stop><stop offset="0.49" style="stop-color:white;stop-opacity:1"></stop><stop offset="1" style="stop-color:white;stop-opacity:1"></stop></linearGradient>
        <linearGradient id="_Linear4" x1="0" y1="0" x2="1" y2="0" gradientUnits="userSpaceOnUse" gradientTransform="matrix(1,0,0,-1,0,1.74961e-06)"><stop offset="0" style="stop-color:rgb(245,245,245);stop-opacity:1"></stop><stop offset="0.08" style="stop-color:rgb(245,245,245);stop-opacity:1"></stop><stop offset="0.49" style="stop-color:rgb(130,130,130);stop-opacity:1"></stop><stop offset="1" style="stop-color:rgb(130,130,130);stop-opacity:1"></stop></linearGradient>
        <linearGradient id="_Linear5" x1="0" y1="0" x2="1" y2="0" gradientUnits="userSpaceOnUse" gradientTransform="matrix(1,0,0,-1,0,3.80523e-06)"><stop offset="0" style="stop-color:rgb(245,245,245);stop-opacity:1"></stop><stop offset="0.08" style="stop-color:rgb(245,245,245);stop-opacity:1"></stop><stop offset="0.49" style="stop-color:white;stop-opacity:1"></stop><stop offset="1" style="stop-color:white;stop-opacity:1"></stop></linearGradient>
        <linearGradient id="_Linear6" x1="0" y1="0" x2="1" y2="0" gradientUnits="userSpaceOnUse" gradientTransform="matrix(-0.707107,0.707107,0.707107,0.707107,0.89213,-0.369532)"><stop offset="0" style="stop-color:rgb(228,196,142);stop-opacity:1"></stop><stop offset="0.01" style="stop-color:rgb(228,196,142);stop-opacity:1"></stop><stop offset="0.33" style="stop-color:rgb(209,144,41);stop-opacity:1"></stop><stop offset="0.56" style="stop-color:rgb(239,205,132);stop-opacity:1"></stop><stop offset="0.97" style="stop-color:rgb(230,185,102);stop-opacity:1"></stop><stop offset="1" style="stop-color:rgb(228,180,95);stop-opacity:1"></stop></linearGradient>
        <linearGradient id="_Linear7" x1="0" y1="0" x2="1" y2="0" gradientUnits="userSpaceOnUse" gradientTransform="matrix(1,0,0,-1,0,1.24254e-05)"><stop offset="0" style="stop-color:rgb(245,245,245);stop-opacity:1"></stop><stop offset="0.08" style="stop-color:rgb(245,245,245);stop-opacity:1"></stop><stop offset="0.49" style="stop-color:white;stop-opacity:1"></stop><stop offset="1" style="stop-color:white;stop-opacity:1"></stop></linearGradient>
        <linearGradient id="_Linear8" x1="0" y1="0" x2="1" y2="0" gradientUnits="userSpaceOnUse" gradientTransform="matrix(1,0,0,-1,0,2.90653e-06)"><stop offset="0" style="stop-color:rgb(245,245,245);stop-opacity:1"></stop><stop offset="0.08" style="stop-color:rgb(245,245,245);stop-opacity:1"></stop><stop offset="0.49" style="stop-color:white;stop-opacity:1"></stop><stop offset="1" style="stop-color:white;stop-opacity:1"></stop></linearGradient>
    </defs>
</svg>
